<svg id="Capa_5" data-name="Capa 5" xmlns="http://www.w3.org/2000/svg" viewBox="0 0 973.15 949.6"><path id="Icon_simple-materialdesign" data-name="Icon simple-materialdesign" d="M708.66,158.68c-268.73,0-486.57,212.57-486.57,474.79s217.84,474.8,486.57,474.8,486.57-212.57,486.57-474.8S977.34,158.8,708.66,158.68Zm0,29.67c111.73-.06,219.56,40.09,302.85,112.77H405.77C489.07,228.44,596.92,188.29,708.66,188.35ZM417.28,330.79H1000L708.66,899.48Zm-49.22,7.12V929C214,760.71,214,506.32,368.06,338Zm681.2,0c154.09,168.34,154.09,422.74,0,591.09ZM398.47,360.47l295,575.69h-295Zm620.39,0V936.16h-295l295-575.69Zm-613,605.36h605.62c-172.49,150.35-433.17,150.35-605.66,0Z" transform="translate(-222.09 -158.68)"/></svg>