<svg id="Capa_1" data-name="Capa 1" xmlns="http://www.w3.org/2000/svg" viewBox="0 0 586.69 538.01"><defs><style>.cls-1{fill:#707070;}</style></defs><path class="cls-1" d="M975.7,588.18c-3.47,16.39-6.06,33-10.63,49.1a200.71,200.71,0,0,1-37,71.16l-3.5-59.32-3.52-.85c-12.16,59.56-43.94,107.28-97,141l34.64-76.35-4.49-2.8c-43.4,61.84-103.45,98.82-183.76,105.81,32.72-16.81,60.87-38.42,85.42-67.37L689.26,766l-2-3.26c22.65-15.71,40.13-35,51.07-59.07,10.85-23.9,12.69-48.52,8.22-74.3-18,51.93-49.66,91.22-110.48,103.39-39.42,7.89-77.62,2-103.43-15.32l17.47-5.62c-18.09-15.59-28-33.91-26.33-56.76,1.31-18.07,20.24-33.76,39.66-32.47,12.64.84,18.55,7.79,13.24,18.56-10,20.31,13.07,37.14,32.63,36.51,3.32-.11,7.53-3.5,9.54-6.43,5-7.26,9-15.12,14.47-24.76.51,8.77.89,15.32,1.27,21.87l2.65,1.56c5.57-7.14,11.66-14,16.58-21.51,7.33-11.18,11.52-12.46,23.16-4.83,4.1,2.7,7.59,6.2,12.73,10.48-3.47-32.81-17.93-59.6-39.82-83-44.08-47-100.37-63.7-166.21-54.43-4.94.69-9.87,4.32-13.75,7.64-4.32,3.69-7.43,8.58-13,15.27-.66-6-1.16-9.21-1.35-12.48-.18-3.07,0-6.16,0-11.57-4.91,5.35-8.34,9.08-13.45,14.66-.74-4.79-.58-7.83-1.75-10.34a44.64,44.64,0,0,0-7-10.94c-6.23-6.93-13.07-13.4-19.51-20.18-2.48-2.61-4-6.35-6.93-8.18-11.07-6.86-20.25-14.94-17.47-28.31,3.21-15.43,14.31-25.41,30.26-30.23,6.92-2.08,15.45-.79,21.51-3.9,16.09-8.24,34.22-15.55,46.17-27.72,32.77-33.4,73.55-46.59,120.49-48.48,46.18-1.85,90.93,3.47,134.33,22.53a64.86,64.86,0,0,0-.75-7c-3.83-16.73,3.58-28.7,18.34-37.84,12.14-7.53,23.42-15.78,22.77-31.28,35.42,7.26,72,44.78,71,90.56-1,47.59-31.36,79.67-89.6,92.74,47.74,22.21,113-18.8,130.37-83.56,6.85,8,13.23,14.87,19,22.18,33.26,42.23,56,88.33,60.49,141.07.16,1.93,1.2,3.79,1.82,5.69Z" transform="translate(-389.01 -277.91)"/><path class="cls-1" d="M730.35,349.38c0-7.49-2.51-16,.48-22.26,8-16.81,10.33-32-7.1-45.84l2.89-3.37c9.79,2.74,20.52,4,29.15,8.57,13.64,7.28,13.62,17.08,1.29,26-13.13,9.45-23.66,20.05-22.74,37.07Z" transform="translate(-389.01 -277.91)"/></svg>