<?xml version="1.0" encoding="utf-8"?>
<!-- Generator: Adobe Illustrator 24.1.2, SVG Export Plug-In . SVG Version: 6.00 Build 0)  -->
<svg version="1.1" id="Capa_1" xmlns="http://www.w3.org/2000/svg" xmlns:xlink="http://www.w3.org/1999/xlink" x="0px" y="0px"
	 viewBox="0 0 1000 1000" style="enable-background:new 0 0 1000 1000;" xml:space="preserve">
<style type="text/css">
	.st0{fill-rule:evenodd;clip-rule:evenodd;fill:#565656;}
	.st1{fill-rule:evenodd;clip-rule:evenodd;fill:#656768;}
	.st2{fill-rule:evenodd;clip-rule:evenodd;fill:#B2B6B7;}
</style>
<polygon id="Path-2" class="st0" points="500,11 43,169.6 108.4,775.9 500,989.1 "/>
<polygon id="Path-2_1_" class="st1" points="498,11 955,169.6 889.6,775.9 498,989.1 "/>
<path id="Combined-Shape" class="st2" d="M726.8,345.7l-0.1-0.3c20.9,23.2,31.6,50.8,32.2,82.7c0.6,31.9-10.1,65.6-32.4,100.9
	c16.6-12.9,35.8-40.8,57.6-83.4c9.4,86.3-25.5,151.8-104.9,196.6c25.4-2.3,59-19,100.8-50.1C735.3,699.5,653.4,756.1,534.1,762
	c-115.3,0-190-69.3-189.9-69.3c-47.4-36.9-80-83.4-97.7-139.3c-28.3-31-28.6-34.3-31.6-46.7s1.8-15.8,10.2-27.9
	c5.5-8.1,6.8-19.7,4-34.6c-7.1-9.8-11.1-25.1-12.2-46c0-10.1,6.7-20.7,20.2-31.9c13.5-11.2,21.7-19.8,24.7-25.7
	c2.3-3.2,3.2-17.2,2.6-42c-0.1-24.4,13.4-37.6,40.6-39.7c40.8-3.2,63.8-33.9,76.6-47.8c8.5-9.3,21.2-13.8,37.1-13.9
	c22.4-1.1,42.9,7.6,60.5,25.3c43.8-2.3,88.7,9.5,134.2,35.1c64.6,38.4,99.9,80,105.8,124.5c-6.9,58.6-85.7,57.1-235.9-4.6
	c-78.6,22.3-117.3,70.5-116,144.8c-0.1,68.1,32.9,117.6,98.7,148.5c-32.1-31.5-45.7-57.9-41.1-79.8c66.7,79,142.6,108.5,227.7,88.6
	c-37.5,1.3-67.2-10.8-89.6-36.4c57.5-1.4,111.8-28.1,162.9-80.4c-29.5,23.5-60.4,32.4-93.1,26.8
	C721.3,519.8,752.7,438.5,726.8,345.7z M566,335c7.2,0,13-5.8,13-13s-5.8-13-13-13s-13,5.8-13,13S558.8,335,566,335z"/>
</svg>
