<svg id="Capa_5" data-name="Capa 5" xmlns="http://www.w3.org/2000/svg" viewBox="0 0 1051.32 1014.27"><defs><style>.cls-1{fill:#525253;}</style></defs><path id="Icon_simple-eclipseide" data-name="Icon simple-eclipseide" class="cls-1" d="M486.59,0c-12,.17-26.46.51-32.28,1C294.72,14.27,151.92,105.6,69.13,247.11A517.54,517.54,0,0,0,.9,469.49,694.41,694.41,0,0,0,2.43,563C14,672.49,61,775.69,136.9,857.89c83.37,90.83,200.33,146.53,325.77,155.13a256.44,256.44,0,0,0,44.68.51,110.14,110.14,0,0,0-14.81-3.13A509.55,509.55,0,0,1,283.3,915.86C109.88,778.7,40.14,553.72,107,347.24c33.91-106.1,102.72-198.67,196-263.69A493.32,493.32,0,0,1,488.64,4.17L508.05,0ZM551.2,21.6a445.79,445.79,0,0,0-231.42,79C238.49,157.49,176.34,236.24,141.06,327a308.29,308.29,0,0,0-12.34,37.21c0,.52,167.69,1,451.62,1,370.76,0,451.89-.34,451.89-1.53a365.48,365.48,0,0,0-12.41-37.16,591.8,591.8,0,0,0-35.92-72.91,513.38,513.38,0,0,0-64.57-84.35Q810.88,53.66,664.38,28.07A540.54,540.54,0,0,0,551.16,21.6Zm492.66,399.51c-.91,0-209.91,0-464.72.17L116,421.62l-.49,2.49c-1.57,6.77-5.86,45.82-5.86,52.64,0,1.18,78.19,1.35,470.76,1.35h470.95v-3.17c0-4.32-3.06-33.52-4.64-44.67-.91-6.77-1.76-9.15-2.74-9.15ZM580.72,532.75c-410.48-.17-470.06,0-470.59,1.48a284,284,0,0,0,3.28,41.19c.91,6.65,1.53,12.62,1.53,13.3,0,1.15,93.61,1.49,465.42,1.49h465.36l1-7.94c1.89-13.8,4.47-41.07,4.12-45.18l-.35-4Zm.12,115.08c-389.11,0-452.14.17-452.14,1.48,0,.88,2.37,8.82,5.3,17.78a466.87,466.87,0,0,0,90.72,158.4,716.73,716.73,0,0,0,53.8,54.5c63,56.53,142,93.8,226.91,107.13a407.24,407.24,0,0,0,76.66,4.65,388.12,388.12,0,0,0,88.68-7.49C763.19,966.64,842.22,922.84,913,850.06a471.3,471.3,0,0,0,115.12-186.77l5.13-15.45Z" transform="translate(0 0)"/></svg>