<svg id="Capa_5" data-name="Capa 5" xmlns="http://www.w3.org/2000/svg" viewBox="0 0 972.26 990.02"><path id="Icon_simple-firebase" data-name="Icon simple-firebase" d="M269,768,401.35,140.32c2.65-12.19,18.21-20.5,34.75-18.55,9.31,1.1,17.4,5.34,21.89,11.45l142.5,196.84Zm940.06,152.31L1083,342.63c-2.72-12.22-18.35-20.5-34.93-18.5a35.31,35.31,0,0,0-16.49,6.21L236.79,920.24l439.75,182.7c27.58,11.43,61.26,11.43,88.84,0L1209,920.24ZM851.65,416.21,749.79,272.57c-7.79-10.94-26.12-15.15-41-9.42a27.85,27.85,0,0,0-12.78,9.42L249,863.3Z" transform="translate(-236.79 -121.49)"/></svg>