<svg id="Capa_5" data-name="Capa 5" xmlns="http://www.w3.org/2000/svg" viewBox="0 0 852.36 704.87"><defs><style>.cls-1{fill:#707070;}</style></defs><path id="Icon_simple-postgresql" data-name="Icon simple-postgresql" class="cls-1" d="M612.36,0A457.15,457.15,0,0,0,511.51,11.84l-2.29.61a498.57,498.57,0,0,0-62.6-4.85c-38.47-1-76.54,6.55-110,21.79A521.09,521.09,0,0,0,181.71,9.87c-44.81,2-93.72,12.87-130,43.59S-3.52,131.64.5,196.25a474.36,474.36,0,0,0,17.94,84.58,851.18,851.18,0,0,0,43.68,122c18.41,40.23,38.58,76.35,70.1,100.91,16.33,13.93,39.13,21.82,63,21.79,17.83-1,34.76-6.69,48.13-16.22a57.36,57.36,0,0,0,20.72,13.25,116.45,116.45,0,0,0,24.94,7.8,214.62,214.62,0,0,0,71.31,2.89,160.35,160.35,0,0,0,32-8c.4,9.69.88,19.18,1.35,28.81,1.53,30.42,2.45,58.53,13.84,83.17,4.74,15.78,13.83,30.51,26.61,43.09,19.78,18.33,58.5,29.75,102.61,22.18,31.12-5.35,70.69-15,97-45,26-29.66,37.7-72.22,40-141.24.58-3.73,1.28-6.9,2-9.86l6.19.44h.76A265.49,265.49,0,0,0,782,493.06c26.65-9.89,46.83-19.91,61.5-37.68a33.57,33.57,0,0,0,8.79-18.88C852.75,425,846.76,414,836,406.39c-21.78-13.28-35.47-8.22-50.15-5.79a283.5,283.5,0,0,1-44,4.3c39.73-53.62,70-111.39,90-171.67a306.41,306.41,0,0,0,16.47-86.55c.48-25.59-2.12-48.23-21.23-67.82C767.33,17.63,683.39.71,618.45.12c-2,0-4-.06-6,0Zm-1.72,18.8c61.42-.47,139.91,13.36,196.25,71.14,12.67,13,16.43,32,16,55.33a295.86,295.86,0,0,1-15.71,81.93c-22.5,67.64-58.3,132-106,190.54a29.81,29.81,0,0,0,5.79,2.53c10.62,3.52,34.81,6.55,83.09-1.41,12.16-2,21-3.44,30.28,2.2,4.54,3.09,7,7.71,6.7,12.48a18.42,18.42,0,0,1-4.76,9.87c-9.36,11.25-27.75,21.92-51.38,30.7a246.09,246.09,0,0,1-77.46,12.13,147.13,147.13,0,0,1-36.06-3.32l-.65-.21c-4,31.13-13.29,92.61-19.33,120.65-4.84,22.62-13.29,40.59-29.44,54S569,679,538.32,684.26c-38,6.55-65.7-.5-83.57-12.57-14.07-10.33-24.69-23.33-30.9-37.8a91.63,91.63,0,0,1-6.8-27.2c-1.68-11.68-2.93-26-3.78-42.11q-1.68-37-1.1-74.1c-15.87,11.66-35.6,19.41-56.82,22.32a186,186,0,0,1-61.17-2.6,97.26,97.26,0,0,1-19-5.9A33.66,33.66,0,0,1,259,492.61a13.68,13.68,0,0,1-2.09-11.19,18.14,18.14,0,0,1,8-9.72,81.64,81.64,0,0,1,31.32-9.81c26.32-4.34,35.51-7.31,41.11-10.87A200.87,200.87,0,0,0,357,432.76c0-.41-.08-.82-.11-1.23A129.53,129.53,0,0,1,308.21,421c-5.49,4.64-33.53,28.43-67.72,61.44-14.39,13.8-30.28,21.74-47,22.29-17.1-.17-33.33-6-44.81-16.21C122.94,468.48,102.41,434,84.51,395A834.28,834.28,0,0,1,41.78,275.55,482.69,482.69,0,0,1,24.42,194.3C20.6,133.16,38.42,91.94,69,66S141.53,30.12,182.4,28.2c73.4-3.38,143.11,17.16,157.2,21.56C371,33.28,408,25.08,445.47,26.36A332.93,332.93,0,0,1,507,32.76l.77-.26q13.28-3.73,27-6.27a435.41,435.41,0,0,1,75.82-7.35Zm5.56,19.68h-5.35a395.26,395.26,0,0,0-62.38,5.64c41,14.83,76.84,37.52,104.34,66.08a243.17,243.17,0,0,1,41.44,56.38A118.36,118.36,0,0,1,702.52,186,33.45,33.45,0,0,1,704,192.9a10.26,10.26,0,0,1-.44,4.23c0,.09-.18.3-.22.38,1.1,25.75-6.87,43.18-7.8,67.73-.76,17.78,5,38.71,6.34,61.53,2.41,23.75-4.31,47.52-19.26,68.11,1.47,1.41,2.78,2.82,4.17,4.23C730,344.4,762.54,284.76,783.45,222.22a283.53,283.53,0,0,0,14.9-77.3c.36-21.15-4.54-36.48-10.81-42.91C738.42,51.64,671.94,38.8,616.22,38.45ZM440.81,46c-43.27.09-74.31,10.58-97.85,26.29-23.36,16.54-41,37.63-51.25,61.24A216.1,216.1,0,0,0,273,204.41l.47-.23A220.08,220.08,0,0,1,322,189a119,119,0,0,1,56.16,1.18c20.13,6.78,34.52,21.35,38.15,38.61,25.77,95.66-8,131.22-20.47,158.07a245.37,245.37,0,0,0-12.11,29.76,44.38,44.38,0,0,1,4.73-.77,48.51,48.51,0,0,1,19.77,3.18c12.18,4.43,21.52,12.73,25.77,22.9a33.91,33.91,0,0,1,2.59,8.34,8.06,8.06,0,0,1,.77,3.74q-2.08,54.87.47,109.78c.84,15.8,2.09,29.72,3.66,40.7a92.92,92.92,0,0,0,5.23,22.12,74.61,74.61,0,0,0,23.91,30.07C483,665,500.77,670.62,533.2,665c28.12-4.84,45.47-11.57,57.07-21.23s18.49-23.11,22.92-43.7c6.62-30.83,20-120.27,21.56-137.1a46.71,46.71,0,0,1,6.66-29.87c4.56-6.56,11.65-11.77,20.21-14.83A82.4,82.4,0,0,1,671,415.6q-4.25-4.91-8.89-9.55a129.15,129.15,0,0,1-24.38-32.27q-4.4-7.21-9.41-14.2c-4.87-7.05-11-15.87-17.47-25.75a288.26,288.26,0,0,1-34.19-67.25C569.41,243.2,568.35,219,587,201.93c16.47-15.16,45.39-21.45,88.81-17.91a95.68,95.68,0,0,0-4.21-9.76,225.28,225.28,0,0,0-38.11-51.81c-44.38-47.75-114.13-76-188.38-76.37h-4.25ZM197.66,47.5c-4.65,0-9.3.12-13.91.32-37,1.71-71.94,10.31-96.93,31.58S45.34,135.55,48.89,193.25A509.05,509.05,0,0,0,65.7,271.14a827,827,0,0,0,41.8,117c17.32,37.79,38.29,70.69,58.21,86.25,6.67,6.36,16.31,10.22,26.65,10.66,7.94-.29,17.49-4,29.18-15.21q31.94-30.91,66.26-60.15c-33-23-49.09-57.85-42.73-92.51a292.63,292.63,0,0,0,3.82-58c-.44-15.63-1.83-26-1.83-32.49v-.88h0a240,240,0,0,1,21.67-99.16c10.32-23.25,26.84-44.42,48.4-62A505.58,505.58,0,0,0,211.57,47.9q-6.94-.28-13.91-.29ZM651.53,202.63c-24.86.26-38.81,5.41-46.13,12.13-10.36,9.54-11.35,26.29-4.91,46.9a276.28,276.28,0,0,0,32.09,62.91c6.23,9.61,12.26,18.24,17.14,25.26a170.54,170.54,0,0,1,10.69,16.3,88.22,88.22,0,0,0,6.52,10.63,81.78,81.78,0,0,0,10.36-49C676,307.11,670,286,670.92,264.63c1-25,7.13-41.26,7.68-60.59a266.4,266.4,0,0,0-27.09-1.41ZM350.1,206a127.34,127.34,0,0,0-22.55,2.19,197.48,197.48,0,0,0-42.21,13.19,93,93,0,0,0-12.78,6.7l-.8.61c.22,4.29,1.28,14.71,1.72,30a309.83,309.83,0,0,1-4.1,61.21c-8.75,50.22,36.67,91.81,90,91.87A250.22,250.22,0,0,1,372.77,380c14.86-32.13,44.11-55.57,19.47-147-4-15-12-21-23-24.43a65.78,65.78,0,0,0-19.18-2.46Zm289.82,6h1.84a39.35,39.35,0,0,1,6.59.65,17.21,17.21,0,0,1,5,1.61,5,5,0,0,1,2.74,3.23v.24h0a6,6,0,0,1-1.28,4,20.46,20.46,0,0,1-4,4.41,27,27,0,0,1-14.13,6.23,25.82,25.82,0,0,1-15-3,21.32,21.32,0,0,1-4.76-3.46,7.19,7.19,0,0,1-2.3-3.74,4.41,4.41,0,0,1,1.53-3.75,14,14,0,0,1,4.29-2.65,48.39,48.39,0,0,1,13.65-3.4A57.45,57.45,0,0,1,640,212Zm-286.2,5a54.32,54.32,0,0,1,6.11.38A47.44,47.44,0,0,1,374.22,221a16.29,16.29,0,0,1,4.86,3.12,5.71,5.71,0,0,1,2,5,8.35,8.35,0,0,1-2.74,4.53,23.33,23.33,0,0,1-5.23,3.82,28,28,0,0,1-16.41,3.31,29,29,0,0,1-15.38-6.7A21.43,21.43,0,0,1,337,229.2a7,7,0,0,1-1.53-5.19c.76-2.83,3.48-5.06,7-5.73a38.71,38.71,0,0,1,11.24-1.17ZM685.36,432.62h-.11c-5.35,1.55-9.81,2.2-13.55,3.52a15.83,15.83,0,0,0-8.74,6.28,31.14,31.14,0,0,0-3.7,19.56,20.69,20.69,0,0,0,5.42,2.06,126,126,0,0,0,28.48,2.37,232.7,232.7,0,0,0,67.36-10.27A151.87,151.87,0,0,0,795,438.07h0c-51,8.46-79.8,6.2-97.48.36a52.28,52.28,0,0,1-12.16-5.87Zm-294,2.76h-.76c-1.94.14-4.76.67-10.22,5.51-12.74,11.46-17.2,18.65-27.71,25.38S328.51,476.55,301.24,481a82.39,82.39,0,0,0-16.87,4.23,9.4,9.4,0,0,0,2.55,1.56A71.59,71.59,0,0,0,300.18,491a158.08,158.08,0,0,0,51.06,2.35c24.06-3.15,45.39-14.23,58.83-30.54a12.56,12.56,0,0,0,.88-14.1,23.88,23.88,0,0,0-12.16-11.5,28.25,28.25,0,0,0-7.47-1.77Z" transform="translate(0.03 0)"/></svg>