<svg id="Capa_4" data-name="Capa 4" xmlns="http://www.w3.org/2000/svg" viewBox="0 0 542.74 168.79"><defs><style>.cls-1{fill:#3aade4;}.cls-2{fill:#f8d031;}.cls-3{fill:#35bded;}.cls-4{fill:#3bb5e8;}.cls-5{fill:#f7ab2b;}.cls-6{fill:#65c7f1;}.cls-7{fill:#f9d551;}</style></defs><path class="cls-1" d="M704.92,265.38c-3.87,5.89-5.89,12.65-8.81,19-4.33,9.37-8.18,19-12.32,28.66H667.61L688.72,264l-21-48.87h16.1c3.91,9,7.78,18.2,11.92,27.31,3.07,6.76,5.23,13.93,9.21,20.28Z" transform="translate(-162.18 -188.73)"/><path class="cls-2" d="M201.38,222.68c3.68-4.24,8.17-7.16,13.82-7.86,9.61-1.2,19.05,6.71,21.91,16.7a67.59,67.59,0,0,1,2.61,18.26c.1,19.43.07,38.85.08,58.28,0,.89-.14,1.77-.24,2.89-2.68.94-5.37.31-8.07.43-4.3-2.77-5.27-7-5.26-11.67q0-23.26,0-46.54a49.84,49.84,0,0,0-.23-5.86c-.9-7.47-2-8.92-8.89-12.47-7.47,1.81-9,7.63-9,14-.15,19-.08,37.95-.14,56.93,0,1.76.44,3.61-.74,5.44H194.85c-1.06-1.86-.67-3.7-.67-5.48q0-26,0-51.95c0-1.81,0-3.62-.1-5.42-.39-6.09-1.66-11.65-8.92-13.56-7.28,1.75-8.69,7.6-8.74,14-.14,19-.07,38-.12,56.92,0,1.77.42,3.62-.72,5.47H163.1c-1.29-1.25-.84-2.84-.85-4.28,0-18.07-.14-36.15.05-54.22.09-8.72.6-17.52,4.74-25.47C173.9,214.05,190,209.32,201.38,222.68Z" transform="translate(-162.18 -188.73)"/><path class="cls-2" d="M272.35,281.45q3.42-22.29,6.82-44.58c.62-4,1.35-8,1.92-12,.48-3.43,1.63-6.37,5.38-7.92h11c-1.55,8.51-3,16.74-4.55,25q-8.86,47-17.86,93.88c-1.16,6-2.2,12.15-6.25,17.11-2.12,2.59-4.7,4.61-8.24,4.61-29.53,0-59.07,0-89,0l-8.89-20.68c2.1-1.49,4-.93,5.67-.94,27.43,0,54.87-.23,82.3.09,9.37.11,11.93-3.42,13-10.6a15,15,0,0,1,.64-2.14c4.22-12.28,5.79-25.06,7.24-37.87C272.84,284.29,272.44,282.83,272.35,281.45Z" transform="translate(-162.18 -188.73)"/><path class="cls-1" d="M583.38,270.78H550.86c-2.67,5.84.12,15.85,5.54,20.68a17.14,17.14,0,0,0,6.46.18c5-1.82,4.93-7.57,8.89-9.6h10.34c-.18,12.85-6,25.91-17.1,30.8-6.71,3-16.93-1.41-21.19-8.47a54.84,54.84,0,0,1-7.51-24.28c-1.31-16.35-2.15-32.83,3.89-48.58,2.05-5.34,4.67-10.28,9.92-13.9,8.18-5.64,19.12-1.29,23.69,4.74,4.85,6.41,6.85,13.88,8.16,21.64A118.85,118.85,0,0,1,583.38,270.78ZM569,254.44a29.15,29.15,0,0,0-2.23-13.23c-2.18-5.48-10.08-6.84-13.14-2.35s-4.11,9.79-4,15.58Z" transform="translate(-162.18 -188.73)"/><path class="cls-1" d="M505.68,245.54c-4.29.1-7.89.58-11.87-.53-2.59-5.34-4.65-12-13.32-10-7.72,4.13-4.88,11.89,2.25,15.76,4.13,2.25,8.95,3.31,12.9,5.78,6.42,4,10.61,9.77,11.44,17.73.94,9.08.68,17.89-3,26.47-3.79,8.94-11.65,14.12-24.55,12.52-6.7-.83-13.47-5.65-16.32-15.71a43.72,43.72,0,0,1-1.63-16.41h13.17c0,7.4,3.32,12.21,11.13,13.73a24.77,24.77,0,0,0,4.63-2.47c4.84-3.91,3.71-11.9-2.11-15.06a50.77,50.77,0,0,0-8.42-3.78c-10.59-3.49-15.91-11.27-17.21-21.77a46,46,0,0,1,4-26.3c4-8.38,16.41-13.94,26.49-7.94a21,21,0,0,1,8.64,9.79C504.56,233,505.53,238.93,505.68,245.54Z" transform="translate(-162.18 -188.73)"/><path class="cls-1" d="M662.1,245.42a38.39,38.39,0,0,1-11.71-.28C647.86,239.41,645.58,233,637,235l-3,2.3c-2.07,6.5-.23,10.29,5.49,13.67,4.84,2.85,10.51,3.59,15.11,7.24,5.32,4.23,8.42,9.34,9.14,15.81,1.08,9.79.49,19.3-3.81,28.6-5.43,11.74-24.3,14.09-32.75,6.53s-8.74-17.49-9.28-28h13.48c.23,7.08,3.11,12.3,11.1,13.69a25.74,25.74,0,0,0,4.65-2.46c5.23-4.21,4.06-11.95-2.35-15.15-4.33-2.17-9.15-3.47-13.21-6-11.77-7.4-13.48-19-12.17-31.56a47.92,47.92,0,0,1,2.15-9.67c2.72-8.47,8.23-14.25,17.39-15,9.34-.78,15.93,4,20.24,13.65A42.41,42.41,0,0,1,662.1,245.42Z" transform="translate(-162.18 -188.73)"/><path class="cls-3" d="M370.18,307.78c-4.87-2.52-5.08-7.65-6-12A60.38,60.38,0,0,1,364,272.5c1.89-10.42,7.3-16.95,20.62-19.77,8.69-1.84,11.73-7.9,7.78-15.39-4-2.3-8.12-3.63-13.15.78l-1.62,2.71H365.19c-.51-12.73,6.94-27,22.33-26A21,21,0,0,1,406.39,232a71.79,71.79,0,0,1,.76,17.07c-2.08-.29-2.81,1.17-3.51,2.7-1.52,3.35-2.91,6.77-4.63,10-.91,1.71-1.78,3.9-4.48,3.57A82.79,82.79,0,0,0,377.77,274c-1.86,7-3.79,13.8,2.39,19.54h6.29c-1.62,3.46-4.9.68-7.73,2.35A52.35,52.35,0,0,0,370.18,307.78Z" transform="translate(-162.18 -188.73)"/><path class="cls-1" d="M525.82,311.35H513.13c-1.21-1.67-.75-3.38-.75-5q0-46,0-92.1a70.71,70.71,0,0,1,.9-10.77c1.68-10.86,8.52-16.1,20.56-14.45v20.79l-6.44.74c-2.41,3.81-1.54,7.77-1.21,12l7.18.57c2.37,9.45-.08,15.63-7.57,18.58Z" transform="translate(-162.18 -188.73)"/><path class="cls-3" d="M319.35,234.8a8.58,8.58,0,0,0-1.85,5.74q.15,22.58,0,45.15c0,2.83.37,5.38,2.78,7.37l5,.52v17.67a53.32,53.32,0,0,1-14.61,0c-3.12-.43-4.76-3.31-5.7-6.29a33.29,33.29,0,0,1-1.1-10.28q0-50.34,0-100.68c0-1.62-.35-3.34.86-4.72,7.13-2.47,12.5,3.93,12.64,10.54.12,5.52,0,11.05,0,16.79l6.37.57c2.94,3.92,2.33,9.86-1.61,15.61V219.22c-1.86-1-3.1-1.16-4.66.18,0,4.21,0,8.7,0,13.18A2,2,0,0,0,319.35,234.8Z" transform="translate(-162.18 -188.73)"/><path class="cls-4" d="M441.63,239.18c-5.74-5.6-12.44-3.84-14.66,3.77-1,3.4-.93,6.84-.94,10.28q0,26.41,0,52.82v5.05c-4.76.84-9.06.37-13.23.36-1.37-1.63-.87-3.36-.87-5,0-17,0-34,0-51a92.27,92.27,0,0,1,2.57-22.33c2.37-9.61,8.79-15.27,17.87-18.12,5.65-1.76,15.58,3.63,18.53,9.62-4.05,1-3.46,4.92-4.74,7.65C445,234.81,445.51,238.44,441.63,239.18Z" transform="translate(-162.18 -188.73)"/><path class="cls-3" d="M364.84,216.84c-1.61,4.76-3.28,8.77-4.28,12.93s-1.27,8.27-1.86,12.38c-2.14,1.51-4.61.35-6.94,1.48-6.66,3.23-6.7,9.4-6.85,15-.42,15.8-.2,31.62-.23,47.43v5.16H331.31c-.19-.27-.52-.51-.51-.76.32-22.82-2.19-45.74,2.33-68.42a39.38,39.38,0,0,1,8.19-17.29C347.34,217.32,355.67,217,364.84,216.84Z" transform="translate(-162.18 -188.73)"/><path class="cls-1" d="M619.37,217.37c-2.85,8.23-5.46,16.18-5.89,24.89-8.75,1.25-10.74,7.71-10.86,15-.26,16.11-.17,32.22-.22,48.32,0,1.78,0,3.55,0,5.53-4.73.85-9,.37-13.13.36-1.3-1.33-.93-2.76-.94-4.06,0-15.36-.18-30.72.08-46.07.16-10.09,1.42-20.06,5.91-29.37C599.33,221.58,608.3,216,619.37,217.37Z" transform="translate(-162.18 -188.73)"/><path class="cls-1" d="M441.63,239.18c3.88-.74,3.32-4.37,4.49-6.87,1.28-2.73.69-6.62,4.74-7.65,6.41,8,6.41,17.69,6.66,27,.52,19.1.19,38.22.19,57.34a12.09,12.09,0,0,1-.4,2.19,28.86,28.86,0,0,1-9,.1c-4.25-3.76-4.57-8.73-4.59-13.71-.07-14.6-.1-29.2,0-43.8A40.8,40.8,0,0,0,441.63,239.18Z" transform="translate(-162.18 -188.73)"/><path class="cls-4" d="M370.18,307.78a52.35,52.35,0,0,1,8.54-11.92c2.83-1.67,6.11,1.11,7.73-2.36a15.82,15.82,0,0,0,6.67-9.49c1.71-6.16,1.26-12.39,1.41-18.61,2.7.33,3.57-1.86,4.48-3.57,1.72-3.25,3.11-6.67,4.63-10,.7-1.53,1.43-3,3.51-2.7-.13,14.66,1.56,29.4-1.72,43.9-2,8.76-6.23,15.8-15.25,19.36C383.27,315.1,374.53,313.44,370.18,307.78Z" transform="translate(-162.18 -188.73)"/><path class="cls-2" d="M258,285.27c-3.77-14.68-5.8-29.71-8.92-44.53-1.63-7.76-3-15.57-4.54-23.72h16c3,19.29,6,38.8,9,58.31-2.07-.29-3.06,1.36-4.49,2.35C262.08,279.72,261.48,283.85,258,285.27Z" transform="translate(-162.18 -188.73)"/><path class="cls-5" d="M258,285.27c3.53-1.42,4.13-5.55,7.07-7.59,1.43-1,2.42-2.64,4.49-2.35l1.11,6.45c0,1.28-.32,2.62.89,3.59-1.45,12.81-3,25.59-7.24,37.87-.77-11.53-4.09-22.62-5.8-34C258.27,287.93,258.13,286.6,258,285.27Z" transform="translate(-162.18 -188.73)"/><path class="cls-6" d="M430.63,344c-.17,2.11-1.79,1.66-3.05,1.66q-61.63,0-123.12,0c-1.26-.84-1.82-1.78-1.41-3.93h26.48c.05,3.44,2.72,2.17,4.34,2.18Q382.25,344,430.63,344Z" transform="translate(-162.18 -188.73)"/><path class="cls-7" d="M632.32,340.47q1.6,4.3,3.2,8.6l.93-.14V328.75a8.52,8.52,0,0,1,6-.48c1,1.31.95,2.59.26,4.21l-3.47.87c-1.33,3.84,6.2,3.11,3.15,7.7l-2.94.57c-.86,1.18-.35,2.37-.41,3.39,1.07,1.42,2.74.37,3.91,1.35a4.37,4.37,0,0,1-.29,4.39h-9.41l-3.45-9.22c-2.53,3.12-.17,6.84-3.36,10.05-1.23-8.27-.5-15.68-.53-22.74,2.1-1.21,3.61-.8,5.27-.79C635.44,331.78,634.79,336,632.32,340.47Zm-2.74-8.61a4.81,4.81,0,0,0-.85,5.57C632.24,336.67,632.47,335.38,629.58,331.86Z" transform="translate(-162.18 -188.73)"/><path class="cls-1" d="M430.63,344q-48.39,0-96.76-.08c-1.62,0-4.29,1.26-4.34-2.18,12.61-.08,25.23-.21,37.84-.24q29.75-.06,59.5,0C428.39,341.54,431.34,340.23,430.63,344Z" transform="translate(-162.18 -188.73)"/><path class="cls-6" d="M473.63,340.83c2.06-2,.94-4.55,1.76-6.53s-.11-4.57,2.32-6.75c3,4.35,1.87,9.36,3.29,14.08,1.74-4.46.81-9.28,3.42-13.27.87,7.77-1,15.16-3.08,22.62-2.94-3.78-1.88-8.56-4-13.09-.49,2.68-.94,4.85-1.28,7s.15,4.54-2.81,6.56c-2-7.87-3.33-15.36-3-23.15C473.48,331.87,472.7,336.46,473.63,340.83Z" transform="translate(-162.18 -188.73)"/><path class="cls-6" d="M501.61,350.76a189.72,189.72,0,0,1,.09-22.39c6.73-1,9.61,2.08,10.13,10.27C512.3,345.92,508.45,350.79,501.61,350.76ZM504,333.59c.37,4.06-.52,8,.54,12,4.41-.73,5.44-4.41,3.47-11.62C507,333.05,505.9,332.92,504,333.59Z" transform="translate(-162.18 -188.73)"/><path class="cls-7" d="M607.65,335.87a4.15,4.15,0,0,0,3.51.17c1.87-2.3-.54-5.69,2.83-8.83.81,8.5.56,16,.22,24.94-3.55-3.89-1.51-7.29-2.64-10.24a4.12,4.12,0,0,0-4.1-.14c-1.13,2.93.61,6.3-2.09,10.31-1.58-8.82-.7-16.36-.75-25.16C608.34,330.22,606.12,333.54,607.65,335.87Z" transform="translate(-162.18 -188.73)"/><path class="cls-7" d="M569.55,351.24c-6.62-4.46-7.68-17.22-2.19-22.31,1.64-1.52,3-1.53,4.6-.16C577.68,333.57,576.35,347.26,569.55,351.24Zm.29-19.74c-4.1,3.95-4.5,8.27-1.42,14.22,1.88.63,3.36.2,3.75-1.88C573,339.47,574.08,335,569.84,331.5Z" transform="translate(-162.18 -188.73)"/><path class="cls-7" d="M585.34,327c3.47,9.2,1.35,21.68-3.38,24.1-4.84-2.79-6.9-16.46-3.29-23.23,3.05,5.84-1.29,12.61,2.77,18,.19.25,1.11,0,1.8-.09C585.47,340.05,583,333.85,585.34,327Z" transform="translate(-162.18 -188.73)"/><path class="cls-6" d="M520.21,340.68c1,3.65,3.23,6.56,2.2,10.53-4.18-1.86-2.1-7.15-5.7-9.28-1.68,2.85.06,6.1-1.47,8.8-2.37-2.89-2.79-17.57-.77-22.33C521.61,327.21,523.6,331.5,520.21,340.68Zm-4.05-3.38c1.87.6,2.74.16,3-1.35.39-2-.38-3.34-2.32-4.4C515.5,333.46,515.91,335.3,516.16,337.3Z" transform="translate(-162.18 -188.73)"/><path class="cls-6" d="M487.13,328h5.19a2.8,2.8,0,0,1,.81,4c-.51,1.54-2.55.46-3.29,1.7-.8,2.4,1.31,2.07,2.43,2.82s1.07,2.35.88,3.72c-.53,1.7-2.58.54-3.46,2v3.09l3.76.92a4.27,4.27,0,0,1-.13,4.44,10.75,10.75,0,0,1-6.08-.05A182.75,182.75,0,0,1,487.13,328Z" transform="translate(-162.18 -188.73)"/><path class="cls-7" d="M622.83,341.08l-2.55.54c-.87,1.19-.53,2.36-.37,3.48,1,1.33,2.68.24,3.77,1.34a4.07,4.07,0,0,1-.38,4.35h-5.82c-.72-7.48-.31-15-.21-22.65h5.46c1.2,1.3,1.28,2.67.26,4.42l-3,.81C618.82,337,625.82,336.46,622.83,341.08Z" transform="translate(-162.18 -188.73)"/><path class="cls-6" d="M546.37,340.83l-3.29,1V345c.87,1.45,2.62.42,3.76,1.45a4.13,4.13,0,0,1-.11,4.22c-1.83.77-3.73.46-6.06.13V328.23H546a2.88,2.88,0,0,1,.56,3.67c-.42,1.81-3,.39-3.4,1.9-.66,3,2.42,1.84,3.05,3.27A5.39,5.39,0,0,1,546.37,340.83Z" transform="translate(-162.18 -188.73)"/><path class="cls-6" d="M533.55,351.05a60.43,60.43,0,0,1-4.5-22.7c3.73,4.3,2.44,10,4.43,14.83,1.87-4.86,1-10.39,4.3-14.85C538.13,336.19,536.14,343.62,533.55,351.05Z" transform="translate(-162.18 -188.73)"/><path class="cls-7" d="M553.78,327.05c3.75,2.79,2.66,6.29,4.72,8.43,2.25-1.93,1-5.66,4.83-8.3-1.37,8.58-4.55,15.77-4.79,23.59C557.79,343.07,554.79,335.87,553.78,327.05Z" transform="translate(-162.18 -188.73)"/><path class="cls-7" d="M594.74,328.15h7.68c1.45,2.89.7,4.67-2.36,5.37-.77,5.79.57,11.64-1.61,17.29-1.73-5.49-.88-11.18-1.32-17.11C595,332.79,592.48,331.67,594.74,328.15Z" transform="translate(-162.18 -188.73)"/><path class="cls-1" d="M319.35,234.8a2,2,0,0,1-1.78-2.22c0-4.48,0-9,0-13.18,1.56-1.34,2.8-1.17,4.66-.18v13.56C321.49,233.76,320.9,235,319.35,234.8Z" transform="translate(-162.18 -188.73)"/><path class="cls-6" d="M526.1,327.21v24.41C523.45,347.9,523.42,331.21,526.1,327.21Z" transform="translate(-162.18 -188.73)"/><path class="cls-6" d="M647.1,326.69c1.39,6.45.57,11.5.66,17.17C644.91,340.66,644.47,332.31,647.1,326.69Z" transform="translate(-162.18 -188.73)"/><path class="cls-6" d="M646.7,345.38c1.63,2,1.33,3.6.63,5.39C645.22,348.53,645.22,348.53,646.7,345.38Z" transform="translate(-162.18 -188.73)"/><path class="cls-7" d="M271.51,285.37c-1.21-1-.92-2.31-.89-3.59l1.74-.33C272.44,282.83,272.84,284.29,271.51,285.37Z" transform="translate(-162.18 -188.73)"/></svg>