<svg id="Capa_5" data-name="Capa 5" xmlns="http://www.w3.org/2000/svg" viewBox="0 0 636.9 631.15"><defs><style>.cls-1{fill:#525353;}</style></defs><path id="Icon_simple-typescript" data-name="Icon simple-typescript" class="cls-1" d="M378.12,649.6V965.17H1015V334H378.12Zm513.27-25.15a79.45,79.45,0,0,1,39.83,22.75,101.92,101.92,0,0,1,15.25,20.25c.22.79-27.49,19.21-44.26,29.54-.61.39-3.05-2.2-5.76-6.21A36.17,36.17,0,0,0,866.54,673c-19.32-1.32-31.74,8.7-31.63,25.43a23,23,0,0,0,2.7,11.83c4.25,8.71,12.16,13.94,36.89,24.54,45.62,19.46,65.12,32.27,77.25,50.49,13.54,20.31,16.59,52.81,7.38,77C949,888.43,924,906.26,888.67,912.13a196.38,196.38,0,0,1-48.51-.47,117.49,117.49,0,0,1-64.79-33.48c-5.87-6.39-17.31-23.14-16.59-24.32a40.87,40.87,0,0,1,5.84-3.71c2.86-1.61,13.56-7.74,23.67-13.55l18.31-10.52,3.84,5.63a85.41,85.41,0,0,0,24.15,22.93c20.33,10.62,48.22,9.12,62-3.1a27.21,27.21,0,0,0,3.53-35c-4.94-7-15.05-12.89-43.76-25.25-32.85-14-47-22.72-59.94-36.55A83,83,0,0,1,778.9,723.2a125.92,125.92,0,0,1-1.11-40.26c6.77-31.48,30.73-53.38,65.31-59.9a162.43,162.43,0,0,1,48.32,1.39ZM741.85,650.8l.21,25.85h-82.9V910.07H600.51V676.66H517.66V651.3a251.23,251.23,0,0,1,.69-26c.32-.43,50.77-.63,111.91-.55l111.32.31Z" transform="translate(-378.12 -334.02)"/></svg>