<svg id="Capa_5" data-name="Capa 5" xmlns="http://www.w3.org/2000/svg" viewBox="0 0 958.05 997.16"><defs><style>.cls-1{fill:#525353;}</style></defs><path id="Icon_awesome-laravel" data-name="Icon awesome-laravel" class="cls-1" d="M1016.91,339.72c-9.68,2-121.77,30.51-134.78,33.69-13,3.42-21.18,11.15-13.16,28,7.1,15,80.81,172.3,97.11,206.9l-293,105.62L439.82,127.78c-9.23-20.71-11.2-28-32.37-26.4-21.16,1.39-182.86,21.64-194.36,23.2-11.49,1.41-24.2,9.14-12.7,50.11S395.52,811.13,400.67,828.42s18.45,45.52,49.61,34.14c31.91-11.61,142.64-55.08,203.15-79,31.91,87.18,97.11,263.81,109.21,289.07,16,33.92,27.22,28.23,51.88,16.85,19.36-8.88,301.92-161.84,314.63-169.57,12.7-8,20.57-13.43,11.95-32.78-6.36-14.11-80.93-164.33-120-243.09,26.78-10.7,121.92-48.71,132.05-53C1165.15,586.46,1026.44,337.67,1016.91,339.72Zm-389.36,391c-3.48,1.14-167.6,60.33-176.37,63.3s-8.78,1.6-9.83-3S246.22,184,243.49,176.51s-2.57-13.43,0-13.43,155.05-20.48,160.34-20.94c5.45-.46,4.84,1.37,6.81,6.38,0,0,215.09,558.57,218.73,568.36C633.29,726.67,631,729.63,627.55,730.77Zm462.87,130.66c2.57,6.14,5.29,10.24-3,14.56-8.16,4.55-277.87,141.34-283,144.8s-9.38,4.56-16-10.24S694,767.46,694,767.46L979.54,655.7c7.11-3.41,9.38-5.68,13.91,5,4.39,10.92,94.39,194.61,97,200.76Zm18.33-305.21c-6.36,2-111.33,41.19-111.33,41.19L911.63,420.26c-2.43-5.2-4.39-10.24,1.66-11.39s103.47-27.74,107.86-29.13c4.39-1.6,8.16-3.42,13.61,7.74s79.56,152.5,82.48,158c2.72,5.2-2.12,8.42-8.48,10.7Z" transform="translate(-195.87 -101.17)"/></svg>