<svg id="Capa_5" data-name="Capa 5" xmlns="http://www.w3.org/2000/svg" viewBox="0 0 982.47 1037.62"><path id="Icon_simple-intellijidea" data-name="Icon simple-intellijidea" d="M236.81,111.38V1149h982.47V111.38Zm152.4,134.51h204.7v79.29H537V596.55h56.89v79.3H389.21v-79.3h59.11V325.18H389.21Zm452.55,0h91v281a199,199,0,0,1-9.09,67.27,129.09,129.09,0,0,1-29.59,48,100.43,100.43,0,0,1-45.44,28.88,153.58,153.58,0,0,1-59.16,12,157.42,157.42,0,0,1-79.58-19.23,199.71,199.71,0,0,1-52.36-45.66l56.9-67.23a133.26,133.26,0,0,0,34.09,31.22,73.57,73.57,0,0,0,38.69,12,53.29,53.29,0,0,0,40.94-16.82c9-12,13.67-28.87,13.67-55.25Zm-514,708.56H696.19v64.86H327.77Z" transform="translate(-236.81 -111.38)"/></svg>