<svg id="Capa_3" data-name="Capa 3" xmlns="http://www.w3.org/2000/svg" viewBox="0 0 277.34 511"><defs><style>.cls-1{fill:#f2f2f2;}</style></defs><path class="cls-1" d="M615.81,846.83c-6.13-2.35-12.7-3.92-18.29-7.18-18.73-10.9-27.39-27.83-27.41-49.27q-.12-111.52-.12-223,0-87.57.11-175.14c0-29.11,17.66-50.52,46.07-55.8a52,52,0,0,1,9.43-.55q82.81-.06,165.65,0c32.47,0,55.88,23.33,55.93,55.93q.17,100.8.15,201.58,0,97-.12,194.09c0,31.8-14.4,50.62-45.07,58.73-.27.07-.46.43-.69.66ZM592.25,421.59V761H825.12V421.59Zm233.22-22v-7.91c0-20.36-13.05-34.23-33.27-34.31q-83.55-.32-167.11,0c-22.91.11-37.59,19.5-32.58,42.2ZM592.33,783.16c-4.23,26.18,12.89,42.73,36.06,42.44,53.37-.68,106.75-.19,160.12-.26a51.3,51.3,0,0,0,12.83-1.17c17.66-4.61,26.83-20.71,23.56-41Z" transform="translate(-569.99 -335.83)"/><path class="cls-1" d="M678.71,655c.2-.85.53-2.64,1-4.37q18.84-62.79,37.74-125.56c2.29-7.61,7.75-11.14,13.93-9.11,6.34,2.07,8.82,7.78,6.54,15.4Q719.21,594.21,700.37,657c-2.37,7.91-7.86,11.33-14.39,9.13C681.49,664.65,678.69,660.74,678.71,655Z" transform="translate(-569.99 -335.83)"/><path class="cls-1" d="M664,527.55c3.52,2.71,7,4.44,9.09,7.21,2.75,3.62,2,7.94-.74,11.59-6.07,8.12-12.24,16.16-18.37,24.23-4.33,5.69-8.54,11.47-13,17-2.24,2.74-2.43,4.65-.08,7.64,10.44,13.35,20.62,26.9,30.82,40.44,3.74,5,3.91,9.48.83,13.74-4.46,6.18-12.57,6-17.76-.64-9.28-11.94-18.35-24-27.51-36.06-3.52-4.63-7.07-9.24-10.5-13.93-4-5.39-4-9.35-.14-14.53,12.62-16.71,25.21-33.43,38.1-49.93C656.76,531.7,660.27,530.21,664,527.55Z" transform="translate(-569.99 -335.83)"/><path class="cls-1" d="M779.74,591.35c-11.41-15-22.5-29.52-33.52-44.1-3.44-4.56-3.75-9.41-1-13.4s6.78-5.59,11.29-4.25a14.12,14.12,0,0,1,6.75,4.62c12.72,16.42,25.25,33,37.76,49.57,4.3,5.69,4.28,9.73,0,15.38q-18.65,24.65-37.42,49.2c-4.6,6-10.86,7.18-16,3.22s-5.53-10.33-1-16.34c9.9-13.13,19.91-26.19,29.86-39.29C777.48,594.53,778.51,593.05,779.74,591.35Z" transform="translate(-569.99 -335.83)"/></svg>