<svg id="Capa_1" data-name="Capa 1" xmlns="http://www.w3.org/2000/svg" viewBox="0 0 672.98 218.55"><defs><style>.cls-1{fill:#284a9a;}.cls-2{fill:#fff;}</style></defs><path class="cls-1" d="M375.83,234.8c-16.92-3.13-24.19,2.32-26.35,17.5-2.07,14.6-4.12,29.21-6.24,44.24-8.71,1.26-17,.55-26.06.54-1.61-21.24,9.57-41.84,3.85-62.45-15.84-2.75-21.83.62-24.57,14-2.56,12.48-4,25.19-5.85,37.81-.49,3.29-.21,6.74-2.65,10.22H262.19c2.28-17.36,4.53-34.45,6.88-52.25-12.12-2.17-23.24.55-35.53,1.89,1.65,17.26,8.11,33.21,10.24,50.46H213.55c-4.58-13.21-5.38-27.34-9.5-41.27-13.32,4.16-24.82,11-36.22,18-11.2,6.92-21.51,15.07-31.63,23.44H104.66L180.4,149h29.2l16,66.2c25.33-7.46,50.17-12.64,76.48-11.65-1,5.94-1.89,11.12-2.85,16.75,16.76-15.83,40.91-14.79,51,1.95,7.25-8,15.62-13.19,26.9-13.14,20.06.09,29.75,10.24,27.88,30.41-.87,9.36-2.12,18.69-3.38,28s-2.75,18.57-4.23,28.49c-8.74,2.55-17.61.65-26.44,1.07C370.94,275.44,379.42,255.18,375.83,234.8ZM189.38,191.53c-10.78,16.47-18.58,33.8-27,52.61l35.35-18.61A121,121,0,0,0,189.38,191.53Z" transform="translate(-104.66 -148.98)"/><path class="cls-1" d="M491.34,282.09c-11.48,11.58-24.58,17.21-39.72,17-32-.38-49.26-26.3-37.9-56.37,8.87-23.49,36-38.44,60.55-33,11.69,2.59,19.85,9.5,23.54,21.18,3.34,10.58,2.49,21-.2,32.13H438.07c-.52,7.48,3.1,11.9,8.75,13.86,10.86,3.78,19.74-.52,27.15-8.73C480.19,272,485.36,276.7,491.34,282.09Zm-18.21-38.71c-1.09-10.44-4.6-14.23-12.64-14.64-9.86-.49-17.32,5.15-19.16,14.64Z" transform="translate(-104.66 -148.98)"/><path class="cls-1" d="M753.1,240.91c-3.4-16.66-16.41-17.79-37.67-3.46l-11.71-14c6.76-7.18,15-10.3,23.86-12.45,10.32-2.5,20.73-2.95,31-.17,12.42,3.34,18.36,11.26,18.94,24.09.74,16.59-3.29,32.67-5,49-.42,3.94-1.19,7.85-1.88,12.29-7.85,1.43-15.46.91-22.56.45-2.75-2.24-.9-4.81-1.77-7.18a8.36,8.36,0,0,0-2.65.9c-9.53,7.63-20.33,10-32.27,8-9.23-1.57-16.61-5.56-19.54-15.13-3-9.85-.61-18.75,6-26.19,10.78-12.07,25.78-13.54,40.69-14.67C743.23,242,748,242.34,753.1,240.91Zm-2.68,19.44c-21.77-1.89-29.86,1.4-33.28,13.39,3.72,8.69,11.48,7,18.09,5.64C744.77,277.39,750.3,271.06,750.42,260.35Z" transform="translate(-104.66 -148.98)"/><path class="cls-1" d="M686.22,286.74C669.55,301.91,641.3,303.42,625,290c-13-10.76-15.49-25.08-11.91-41,6.79-30.17,42.91-48.6,71.61-36.35,4.06,1.73,7.83,3.85,10.57,8a145.6,145.6,0,0,1-19.81,18.1c-9.1-6.77-18.32-7.32-26.06-1.76-8.22,5.91-12.54,18.72-9.39,27.86,2.69,7.77,12.13,12.21,20.76,9.93,3.7-1,6.61-3.22,9.84-5.54C676.88,274,680.41,281,686.22,286.74Z" transform="translate(-104.66 -148.98)"/><path class="cls-1" d="M527.39,296.86c-8.66.37-17,1-26.39-.5,3.93-28.2,7.8-56,11.76-84.46H539.1c2,2-.7,5,1.66,7.73,8.85-8.68,19.37-12.72,32.68-9.53a89.11,89.11,0,0,1-3.13,23.34,25,25,0,0,1-3,.16c-23.94-1.82-29.57,2.65-34,26.41C531,272.16,530.84,284.67,527.39,296.86Z" transform="translate(-104.66 -148.98)"/><path class="cls-1" d="M583.06,211.57H610.2c-4,28.43-7.86,56.49-11.84,85a127.44,127.44,0,0,1-27.19-.06C575.14,268.21,579,240.38,583.06,211.57Z" transform="translate(-104.66 -148.98)"/><path class="cls-1" d="M654.28,323c3.31-.58,5.91-1,9.42.66-2,13.86-4,27.94-5.94,41.89-4.6,1.37-8.55,1.06-13.22.28-4.14-8.3-8.41-16.88-12.68-25.46l-1.83,0c-1.31,8.25-2.61,16.49-3.87,24.41-3.06,2.65-6,1.2-9.71,1.49.77-14.82,3.51-28.77,5.55-42.75,4.31-1.81,8.32-.9,12.72-.85,6,7.49,7.87,17.37,13.88,25.72C652.77,340.19,650.8,331.18,654.28,323Z" transform="translate(-104.66 -148.98)"/><path class="cls-1" d="M505.49,350l6.69,15.44c-3.75,1.6-7.08.84-10.57.68-5.11-4.47-3.93-12.69-10-17.41-4,5-2.53,11.12-4.63,16.42-2.38,2.37-5.51.68-9.51,1.49,1.06-15.14,3.48-29.42,6-44.18,6.35,0,12.06-.12,17.76,0,6,.16,11.72,1.45,13.7,8.05,1.83,6.12-.75,11.14-5.33,15.24C508.43,346.87,506.45,347,505.49,350ZM492,332.34c.05,2.93-1.78,5.35,1.06,8.06,4.55-.51,10.9,1.77,10.93-6.7C500.48,330.67,496.89,331.4,492,332.34Z" transform="translate(-104.66 -148.98)"/><path class="cls-1" d="M564.55,349.81l6.72,15.73c-4.11,1.35-7.43.88-10.76.5-5-4.57-3.34-13-10.07-17.13-3.94,5-1.56,11.37-4.72,16.57-2.39,1.77-5.32.6-9.45.68,2-14.7,4-28.8,6-42.94,6.4-1.51,12.48-.67,18.49-.71,5.64,0,11.11,1.3,13.16,7.32,2.16,6.4-.16,11.84-5.31,16.09C567.31,347,565.37,347.19,564.55,349.81Zm-13.72-9.46c5.53-.38,11.47,1.85,12.79-5.93-3.82-4-7.81-3.71-11.91-2C550.35,334.78,550.28,337,550.83,340.35Z" transform="translate(-104.66 -148.98)"/><path class="cls-1" d="M608.48,340c1.22,2.64.73,5.21-.19,8-5.39,2.21-11.25,0-16.6,1.36-2.65,1.43-2.87,3.66-2.54,6.44,6,2.32,12.55-.06,19.06,1.56,1.42,2.79,1.19,5.49-.88,8.64a238.71,238.71,0,0,1-30.4,0c2.1-14.77,4.08-28.62,6.13-43h29.19c1.32,3.36.63,6.08-.89,8-6.55,3.71-15.8-3.2-20.68,6.19C597,340.83,603.08,337.76,608.48,340Z" transform="translate(-104.66 -148.98)"/><path class="cls-1" d="M691.66,366.77l24.74-43c3-1.85,5.62-1.41,9.38-.58,4,13.71,8.23,27.9,12.4,42-3.84,1.8-6.86,1-10.37,1-1.29-2.79-2.67-5.74-4.13-8.88H710c-3.82,1.74-3.92,5.83-6.59,7.94C700.4,367.34,697,365.89,691.66,366.77ZM722,348.08c-.85-3.39-1.53-6.09-2.5-9.93-3.15,3.24-5,5.94-5.41,9.93Z" transform="translate(-104.66 -148.98)"/><path class="cls-1" d="M426.52,362.66c6.48-4.19,8-11.77,11.88-17.68,4.62-6.94,8.42-14.43,12.35-21.3,3-1.76,5.6-1.31,9.29-.58,4.08,13.75,8.29,27.93,12.45,41.93-3.81,2.21-6.86.89-9.53,1.35-3.25-2.34-2.52-6.5-5.52-9.07H444.29c-3.81,1.68-3.89,5.73-6.93,8.48-3.56.17-8.33,3.25-10.67-3.3Zm21.36-14.85c3.35.68,5.9,1.39,8.18-.71-.7-2.72-1.38-5.39-2.16-8.43C450.22,341,449.42,344.26,447.88,347.81Z" transform="translate(-104.66 -148.98)"/><path class="cls-1" d="M426.69,362.49c-7.18,2.05-13.67,6.44-21.91,4.6-10.1-2.25-16.13-8.61-16-18.85.18-10.49,4.37-19.14,14.15-23.75,8.92-4.2,18.08-4.74,26.48,1.86-.49,4.58-4.31,5.2-6.63,7.22-10.4-3.67-16.11-2.69-20.32,3.9-3.5,5.48-4.25,11.46-.24,16.93,3.49,4.76,7.93,4.48,17.25-.19,3.94,1.47,6.53,4.08,7,8.45Z" transform="translate(-104.66 -148.98)"/><path class="cls-1" d="M602.31,168.9a13.57,13.57,0,0,1,14,12.94c.46,9.35-8.13,18.29-17.7,18.45a13.36,13.36,0,0,1-13.88-13C584.33,177.86,592.64,169.15,602.31,168.9Z" transform="translate(-104.66 -148.98)"/><path class="cls-1" d="M668.68,330.89c-1.15-2.78-.86-5,.44-7.83h33c2,2.7.65,5.35-.77,8.18l-10.65.6c-3.33,10.83-3.17,22.36-5.54,33.13-3.19,2-6.06,1.66-9.52.63-.37-11,3.11-21.62,3.4-32.43C676.12,330.52,672.39,332.19,668.68,330.89Z" transform="translate(-104.66 -148.98)"/><path class="cls-1" d="M771.12,357.37c1.17,3,.65,5.73-.9,8.63H743.15c2-14.56,4-28.58,5.91-42.25,3.32-2,6.23-1,10.26-1.13l-4.28,33C760.33,358.17,765.92,355.59,771.12,357.37Z" transform="translate(-104.66 -148.98)"/><path class="cls-2" d="M189.38,191.53a121,121,0,0,1,8.34,34l-35.35,18.61C170.8,225.33,178.6,208,189.38,191.53Z" transform="translate(-104.66 -148.98)"/><path class="cls-2" d="M473.13,243.38h-31.8c1.84-9.49,9.3-15.13,19.16-14.64C468.53,229.15,472,232.94,473.13,243.38Z" transform="translate(-104.66 -148.98)"/><path class="cls-2" d="M750.42,260.35c-.12,10.71-5.65,17-15.19,19-6.61,1.38-14.37,3.05-18.09-5.64C720.56,261.75,728.65,258.46,750.42,260.35Z" transform="translate(-104.66 -148.98)"/><path class="cls-2" d="M492,332.34c4.93-.94,8.52-1.67,12,1.36,0,8.47-6.38,6.19-10.93,6.7C490.18,337.69,492,335.27,492,332.34Z" transform="translate(-104.66 -148.98)"/><path class="cls-2" d="M550.83,340.35c-.55-3.33-.48-5.57.88-7.9,4.1-1.74,8.09-2.07,11.91,2C562.3,342.2,556.36,340,550.83,340.35Z" transform="translate(-104.66 -148.98)"/><path class="cls-2" d="M722,348.08H714c.42-4,2.26-6.69,5.41-9.93C720.42,342,721.1,344.69,722,348.08Z" transform="translate(-104.66 -148.98)"/><path class="cls-2" d="M447.88,347.81c1.54-3.55,2.34-6.77,6-9.14.78,3,1.46,5.71,2.16,8.43C453.78,349.2,451.23,348.49,447.88,347.81Z" transform="translate(-104.66 -148.98)"/></svg>