<svg id="Capa_5" data-name="Capa 5" xmlns="http://www.w3.org/2000/svg" viewBox="0 0 620.22 500.73"><defs><style>.cls-1{fill:#525353;}</style></defs><path id="Icon_simple-javascript" data-name="Icon simple-javascript" class="cls-1" d="M437.69,372.52h620.22V873.26H437.69Zm569.42,381.31c-4.52-22.85-23-42-77.6-59.94-19-7.2-40.16-12.19-46.44-23.78a20.2,20.2,0,0,1-1.19-14.71c3.88-13.5,23.64-17.53,39.15-13.77,11.34,3.07,20.52,9.9,25.24,18.77C973,646.3,973,646.3,991.63,636.93a91,91,0,0,0-15.15-16.28c-16.29-14.7-38-22.2-73.24-21.57L885,600.93c-17.1,3.07-32.56,10.41-44.19,21-29.47,26.94-21,73.88,14.7,93.29,35.28,21.28,86.83,25.95,93.45,46,6.2,24.41-22.49,32.22-50.81,29.41-21-3.76-32.56-12.22-45.35-27.86l-47.31,21.92c5.43,10,11.63,14.37,20.93,23.14,45,36.63,157.38,34.76,177.57-20.95a57.51,57.51,0,0,0,1.91-34.43l1.19,1.4ZM775,602.67H716.87c0,40.43-.23,80.62-.23,121.12,0,25.69,1.61,49.3-3.57,56.56-8.53,14.37-30.49,12.54-40.45,10-9.3-4-16.81-10.22-21.45-17.85a18.09,18.09,0,0,0-3.28-4.09L600.72,791.9c7.37,13,19.26,24,34.22,31.65,22.11,10.64,51.77,14.08,82.88,8.45,20.08-4,37.1-14.69,46.8-29.44,13.18-19.4,10.39-43.19,10.25-69.81.3-42.85,0-85.73,0-128.92l.1-1.17Z" transform="translate(-437.69 -372.52)"/></svg>