<svg id="Capa_5" data-name="Capa 5" xmlns="http://www.w3.org/2000/svg" viewBox="0 0 1004.95 1029.45"><defs><style>.cls-1{fill:#525253;}</style></defs><path id="Icon_awesome-github" data-name="Icon awesome-github" class="cls-1" d="M336.13,828.9c0,4.27-4.66,7.67-10.54,7.67-6.69.63-11.36-2.77-11.36-7.67,0-4.26,4.66-7.66,10.54-7.66C330.86,820.61,336.13,824,336.13,828.9Zm-63-9.57c-1.41,4.26,2.62,9.15,8.74,10.43a9.3,9.3,0,0,0,12.49-4.11l.08-.16c1.21-4.26-2.62-9.15-8.74-11.07a10.2,10.2,0,0,0-12.59,4.91Zm89.56-3.58c-5.88,1.48-9.93,5.53-9.33,10.42.61,4.27,5.87,7,12,5.54,5.87-1.49,9.92-5.54,9.32-9.8-.61-4.07-6.08-6.84-12-6.2ZM496,0C215,0,0,224.09,0,519.36,0,755.43,141.39,957.44,343.4,1028.54c25.94,4.9,35-11.92,35-25.75,0-13.2-.61-86-.61-130.7,0,0-141.83,31.93-171.61-63.43,0,0-23.09-61.94-56.33-77.88,0,0-46.39-33.42,3.25-32.78a106.55,106.55,0,0,1,78.28,55c44.37,82.17,118.73,58.53,147.68,44.49a120.75,120.75,0,0,1,32.42-71.74C298.21,712.51,184,695.27,184,490.49c0-58.53,15.4-87.91,47.82-125.37-5.24-13.84-22.49-70.89,5.24-144.54,42.35-13.84,139.82,57.47,139.82,57.47a456.53,456.53,0,0,1,254.48,0s97.45-71.52,139.81-57.47c27.76,73.87,10.54,130.7,5.25,144.54,32.42,37.67,52.27,67.05,52.27,125.37,0,205.42-119.33,221.81-232.59,235.22,18.64,16.82,34.44,48.75,34.44,98.77,0,71.74-.61,160.51-.61,178,0,13.84,9.33,30.65,35,25.76,202.63-70.72,340-272.73,340-508.8C1004.93,224.13,777,0,496,0ZM197,734.14c-2.62,2.13-2,7,1.42,11.07,3.24,3.4,7.86,4.9,10.53,2.13,2.63-2.13,2-7-1.41-11.07-3.31-3.31-8-4.86-10.59-2.09ZM175.08,717c-1.41,2.76.62,6.17,4.66,8.3a5.84,5.84,0,0,0,8.23-.8l.12-.14c.14-.18.27-.36.39-.55,1.42-2.77-.61-6.18-4.66-8.3-4.11-1.28-7.35-.64-8.77,1.49Zm65.65,75.78c-3.24,2.77-2,9.16,2.62,13.2,4.66,4.89,10.54,5.53,13.17,2.13,2.62-2.77,1.41-9.16-2.62-13.2-4.5-4.89-10.57-5.54-13.21-2.13Zm-23.1-31.33c-3.24,2.13-3.24,7.66,0,12.53s8.74,7,11.36,4.9a10,10,0,0,0,0-13.19c-2.88-4.84-8.15-7-11.4-4.2Z" transform="translate(0.02 0.04)"/></svg>