<svg id="Capa_5" data-name="Capa 5" xmlns="http://www.w3.org/2000/svg" viewBox="0 0 590.7 693.74"><defs><style>.cls-1{fill:#707070;}</style></defs><path class="cls-1" d="M488.31,789.39c-29.42-4.09-59-7.25-88.23-12.49-53.81-9.63-106.32-23.71-150.65-60.44a138,138,0,0,1-17.94-17.75c-21.15-25.39-24.83-50.82-6.37-78.42,14.32-21.4,32.55-40.29,51-58,42.35-40.6,83.65-81.9,111-136.25,33.15-65.78,26.68-145.71-28-198.3-13.56-13-25.69-27.75-39-41.09-9.78-9.79-9.9-19.41,1.33-26.05q38.88-23,79.05-43.4c16.26-8.3,33.48-14.45,50.27-21.57h2.89c15.46,37.36,30.59,74.89,46.78,111.89,2.25,5.15,9.31,10.08,14.8,11.11,62,11.69,123.67,24.27,181.11,53.28,45.3,22.89,82.41,55.73,107.57,101.31l-227.44,58.2c0,46.14,1.67,88.14-.36,129.93C572.24,640.79,544.44,712.72,511,782.5a69.58,69.58,0,0,0-2.48,6.89ZM710.36,299.21,641.2,398.1c23.82-5,48.93-10.94,74.27-15.38,25.76-4.52,51.75-7.54,77.94-11.26C778.69,347.71,734.27,309.78,710.36,299.21ZM556.07,612.34,434,673.88c-.13,1.66-.26,3.31-.38,5l96.2,30.86C539,675.49,547.2,645.25,556.07,612.34ZM698.65,298.85l-3.13-5L571,341.91l52.58,60.2ZM317.05,544.17c-46.4,17.24-85.92,67.83-82,92.94l92.47-29C323.79,585.26,320.39,564.53,317.05,544.17Zm206.78,169.2L421.22,687.05c-15.76,22.86-32.28,46.81-48.79,70.77l1.79,2.88ZM613,405.16,556.28,358,481,450ZM396.19,673.87l-54.32-47.65L277.05,713l2.75,4.58ZM692.9,286.37,592.75,249.79l-21,76.53ZM331.45,619.59,232,644.78c4.63,29.4,20.86,47.57,40.27,65Zm106.7,38.71,117.12-51-81.33-34.74C462.67,599.51,451.21,627,438.15,658.3Zm20.63-81.45L353.63,615.27l61.5,54Zm-69,187.66c35.9,6.18,69.91,12.22,104,17.61,3.79.6,10.67-1.34,11.74-4.06,7.6-19.44,14.07-39.4,20.64-58.44ZM412,496.41l-45,99.18,90.33-33.72Zm69.26,68.76,77,38.52c2.27-33.33,4.23-61.93,6.28-92.1ZM404.34,685.72,289.4,720l-.88,5.44c22.85,9.89,45.62,20,68.65,29.33,2.32,1,7.61-1.51,9.15-4C378.54,730.65,390.19,710.13,404.34,685.72ZM480.4,552.9l84-48-71.3-42.75C488.85,492.41,484.85,521,480.4,552.9ZM451.33,100.77l-83.28,40.46,1.26,3.63,95.42,17.19C460.29,141.73,456.11,122.61,451.33,100.77ZM551.67,330.29c17-25.41,30.1-60.89,29.38-81.3l-81.67,53.94Zm20.4-85.12-91.18-17.79c4.18,22.89,8,43.85,11.73,64.27ZM424.67,489.79c9.4,25.11,22.87,44.06,44.06,61.77,4.39-29.24,8.29-55.16,12.83-85.38ZM475.1,228.27l-4.88-1.83-55.29,49.41,66.8,20.94C479.33,272.07,477.22,250.17,475.1,228.27ZM393.37,508.36,390.55,505c-15.93,7.94-32,15.53-47.66,24.09-3.17,1.74-6.09,6.89-6.59,10.84-2.43,18.91-1.1,37.36,10.24,56.62Zm60.37-100.22c4.27,17.35,7.82,31.72,12.06,48.93l64-87.66-3.17-3.85ZM367.44,153C378.53,166,392,182.37,406.22,198c2.46,2.72,8.92,4.59,11.77,3.07,16.26-8.63,32-18.41,49-28.49Zm39.91,114,54.73-42.41-74.61-15.42C394.53,229.63,400.92,248.21,407.35,266.91Zm36,157.74-74.9,75.06c23.84-10.64,46.69-20.95,69.63-31,21.6-9.5,22.67-12.62,10.95-35.11C447.44,430.5,445.34,427.73,443.35,424.65ZM414.7,364.44l54.82-53.34L414.7,294.05Zm74.62-44c-7.65,22.48-14.52,42.69-21.81,64.12l67.31-39.7Zm75.07,179c-2.06-22.44-3.73-40.62-5.52-60.21l-55.54,19.18ZM447.83,400.23c9.87-25.36,18.94-48.61,28-71.86l-4.55-2.68L417,375.38ZM383.68,196.45l1.5-2.93-32.49-43.06-27.05,31.89ZM490.13,214.8c-7.29-14.61-12.78-25.64-18.65-37.42L435.2,205.44ZM422.91,436l-3-3.74c-28.12,17.75-54.73,37.36-70,70.9Zm-28-178.63c-15-55-17.26-57.65-48.6-58.19Zm-6.77,188,43.82-35.44L409.76,395.5Z" transform="translate(-213.21 -95.66)"/></svg>