<svg id="Capa_5" data-name="Capa 5" xmlns="http://www.w3.org/2000/svg" viewBox="0 0 968.63 939.31"><path id="Icon_awesome-bootstrap" data-name="Icon awesome-bootstrap" d="M856.33,733.77c0,88.91-85.91,86.86-95,86.86H586.48V649.35H761.37C853.39,649.35,856.33,716.24,856.33,733.77ZM747.9,580.44c1.45,0,83.11,2.1,83.11-76.14,0-32.54-7.58-75.21-83.11-75.21H586.48V580.44Zm445.08-277V929.59c-.26,86.37-72.39,156.32-161.45,156.57H385.8c-89.06-.25-161.2-70.2-161.45-156.57V303.41C224.6,217,296.74,147.09,385.8,146.84h645.73C1120.59,147.09,1192.72,217,1193,303.41ZM955.25,746.2C955.25,701,940.87,624,849.2,605v-1.52c49.53-20.51,80.73-59.24,80.73-116.67,0-14.7,4.32-135.82-167.78-135.82H487.56V898.9c277.25,0,302.38,3.52,353.76-12,30.73-9.27,114-37.69,114-140.72Z" transform="translate(-224.35 -146.84)"/></svg>