<svg id="Capa_5" data-name="Capa 5" xmlns="http://www.w3.org/2000/svg" viewBox="0 0 968.65 939.32"><defs><style>.cls-1{fill:#525253;}</style></defs><path id="Icon_awesome-bootstrap" data-name="Icon awesome-bootstrap" class="cls-1" d="M632,586.93c0,88.91-85.91,86.86-95,86.86H362.13V502.51H537C629,502.51,632,569.4,632,586.93ZM523.55,433.6c1.45,0,83.11,2.1,83.11-76.14,0-32.54-7.58-75.21-83.11-75.21H362.13V433.6Zm445.08-277V782.75c-.26,86.37-72.39,156.32-161.45,156.57H161.45C72.39,939.07.25,869.12,0,782.75V156.57C.25,70.16,72.39.25,161.45,0H807.18c89.06.25,161.19,70.16,161.47,156.57ZM730.9,599.36c0-45.2-14.38-122.2-106-141.2v-1.52c49.53-20.51,80.73-59.24,80.73-116.67,0-14.7,4.32-135.82-167.78-135.82H263.21V752.06c277.25,0,302.38,3.52,353.76-12,30.73-9.27,114-37.69,114-140.72Z" transform="translate(0 0)"/></svg>