<svg id="Capa_5" data-name="Capa 5" xmlns="http://www.w3.org/2000/svg" viewBox="0 0 737.77 687.22"><defs><style>.cls-1{fill:#525353;}</style></defs><path id="Icon_awesome-php" data-name="Icon awesome-php" class="cls-1" d="M751.67,333.71c197.6,0,349.52,147.4,349.52,309.31s-152,309.31-349.52,309.31S402.15,804.92,402.15,643,554.2,333.71,751.67,333.71m0-34.3c-203.73,0-368.88,153.84-368.88,343.61S547.94,986.63,751.67,986.63,1120.56,832.79,1120.56,643h0c0-189.75-165.09-343.59-368.8-343.61ZM634.32,615.46c-9.11,82.68-41.27,74.1-80.83,74.1l15.79-144.15C613.1,545.42,642.85,537.06,634.32,615.46ZM495.06,835.55H537.4l10-91.47c47.38,0,76.78,6.12,104-39,30.08-49,37.92-136.18,16.48-179.87-11.18-22.87-29.16-34.1-53.6-34.1H532.82Zm214.08-436.1h42.08l-10,91.46c36.31,0,70-4.69,86.23,21.85,17.06,27.76,8.88,63.29-9.56,230.91H775.19c17.75-162.1,21.1-175.58,14.64-187.83-6.22-11.84-20.4-9.39-54.64-9.39l-21.67,197.2H671.44l37.7-344.21Zm255.79,216c-9.21,83.91-42.31,74.1-80.83,74.1l15.79-144.15C944,545.42,973.47,537.06,964.93,615.46ZM825.68,835.55H868.1l10-91.47c49.79,0,77.35,5.1,104-39,30.09-49,37.93-136.18,16.49-179.87-11.19-22.87-29.17-34.1-53.6-34.1H863.49Z" transform="translate(-382.79 -299.41)"/></svg>