<svg xmlns="http://www.w3.org/2000/svg" width="29.25" height="29.25" viewBox="0 0 29.25 29.25">
  <g id="Icon_ionic-logo-ionic" data-name="Icon ionic-logo-ionic" transform="translate(-3.375 -3.375)">
    <path id="Trazado_14" data-name="Trazado 14" d="M18,11.334A6.666,6.666,0,1,0,24.666,18,6.671,6.671,0,0,0,18,11.334Z" fill="#707070"/>
    <path id="Trazado_15" data-name="Trazado 15" d="M30.607,8.887A3.037,3.037,0,1,1,27.57,5.85a3.037,3.037,0,0,1,3.037,3.037Z" fill="#707070"/>
    <path id="Trazado_16" data-name="Trazado 16" d="M31.31,11.939l-.127-.281-.2.232a4.6,4.6,0,0,1-1.835,1.259l-.2.07.077.19a11.942,11.942,0,1,1-5.906-6.2l.19.091.084-.19a4.576,4.576,0,0,1,1.35-1.772l.239-.19-.274-.141A14.473,14.473,0,0,0,18,3.375a14.625,14.625,0,1,0,13.31,8.564Z" fill="#707070"/>
  </g>
</svg>
