<svg id="Capa_5" data-name="Capa 5" xmlns="http://www.w3.org/2000/svg" viewBox="0 0 825.19 876.26"><defs><style>.cls-1{fill:#525353;}</style></defs><path id="Icon_awesome-python" data-name="Icon awesome-python" class="cls-1" d="M1106.13,507.92c-14.18-60.44-41.07-106-98.35-106H933.91v92.73c0,72-57.47,132.57-123,132.57H614.16c-54.52,1.17-98.19,48.34-98.35,106.24v199.1c0,56.72,46.42,90,98.35,106.2a312.57,312.57,0,0,0,196.71,0c49.52-15.24,98.36-46,98.36-106.2V852.94H712.7v-26.6h295.07c57.28,0,78.47-42.44,98.36-106,20.63-65.53,19.71-128.5,0-212.4Zm-282.91,398c20.7-.28,37.69,17.32,37.94,39.3s-16.31,40-37,40.3-37.69-17.33-37.95-39.31v-.59C786.1,923.83,802.67,906.06,823.22,905.94ZM605.14,601H801.85c54.77-.47,98.81-48,98.36-106.16V295.53c0-56.72-44.94-99.16-98.36-108.74a572.21,572.21,0,0,0-196.71.2c-83.26,15.64-98.36,48.3-98.36,108.74v79.61h196.9v26.59H432.92c-57.28,0-107.38,36.57-123,106-18.05,79.6-18.78,129.28,0,212.4,14,61.8,47.36,106,104.62,106h67.6V730.9C483.57,659.53,537.91,602.16,605.14,601ZM592.79,322.16c-20.7.27-37.69-17.33-37.95-39.31s16.32-40,37-40.3,37.69,17.33,37.95,39.31v.59C629.91,304.27,613.34,322,592.79,322.16Z" transform="translate(-296.07 -178.37)"/></svg>