<svg id="Capa_5" data-name="Capa 5" xmlns="http://www.w3.org/2000/svg" viewBox="0 0 818.6 886.47"><defs><style>.cls-1{fill:#525353;}</style></defs><path id="Icon_awesome-android" data-name="Icon awesome-android" class="cls-1" d="M422.15,514.86V744.11c0,30.49-25.8,54.83-58.63,54.83-32.61,0-64.16-24.54-64.16-54.83V514.86c0-29.89,31.55-54.43,64.16-54.43C395.71,460.44,422.15,485,422.15,514.86Zm23,310.78c0,32.46,28.14,58.58,63.1,58.58H550.7l.64,120.95c0,73,117.67,72.46,117.67,0V884.23h79.3v120.95c0,72.64,118.31,72.84,118.31,0V884.23h43.06c34.54,0,62.64-26.13,62.64-58.58V470.52H445.17ZM973.85,451.32H442.79c0-84.72,54.58-158.35,135.59-196.76l-40.72-69.87c-6-9.7,9.17-15.84,14.29-7.53l41.35,70.47a308.44,308.44,0,0,1,230.88,0l41.14-70.27c5.33-8.47,20.25-2.17,14.29,7.53l-40.72,69.67c80.37,38.41,134.94,112,134.94,196.76ZM610,341.46c-.92-12.41-10.92-21.7-22.39-20.81-11.29-.68-21,8.6-21.74,20.81,1.7,13.2,12.95,22.41,25.14,20.57C600.83,360.54,608.58,352.14,610,341.46Zm241.74,0c-1.7-13.2-13-22.4-25.14-20.56-9.86,1.49-17.61,9.88-19,20.56,1.7,13.2,13,22.41,25.14,20.57C842.58,360.54,850.33,352.14,851.7,341.46Zm202.1,119c-32.19,0-58.63,23.95-58.63,54.44V744.11c0,30.49,26.44,54.83,58.63,54.83,32.83,0,64.16-24.54,64.16-54.83V514.86C1118,484.38,1086.41,460.44,1053.8,460.44Z" transform="translate(-299.36 -173.27)"/></svg>