<svg id="Capa_5" data-name="Capa 5" xmlns="http://www.w3.org/2000/svg" viewBox="0 0 1058.02 974.07"><defs><style>.cls-1{fill:#525253;}</style></defs><path id="Icon_simple-visualstudiocode" data-name="Icon simple-visualstudiocode" class="cls-1" d="M1020.57,103,802.8,6C777.56-5.24,747.36-.47,727.63,17.86l-417,352.05L129,242.29c-16.89-11.87-40.59-10.89-56.25,2.33l-58.27,49c-18.1,15.29-19.31,41.19-2.71,57.85.86.86,1.77,1.69,2.71,2.49L172,487,14.41,620.05c-18.1,15.28-19.31,41.18-2.7,57.85q1.29,1.29,2.7,2.49l58.32,49c15.66,13.22,39.36,14.2,56.25,2.33L310.66,604.07l417,352.08c19.71,18.33,49.9,23.1,75.12,11.86l217.86-97c22.92-10.27,37.44-31.71,37.38-55.18V158.16c0-23.49-14.53-44.92-37.48-55.17ZM793.72,709.29,477.29,487.07l316.43-222.3Z" transform="translate(0 0.03)"/></svg>