<svg id="Capa_5" data-name="Capa 5" xmlns="http://www.w3.org/2000/svg" viewBox="0 0 1145.9 1049.87"><defs><style>.cls-1{fill:#525253;}</style></defs><path id="Icon_awesome-gitlab" data-name="Icon awesome-gitlab" class="cls-1" d="M235.54,14.8C232.35,4.1,220.3-2.2,208.62.71A21.12,21.12,0,0,0,193.24,14.8L66.82,400.73H362.18C362,400.73,235.54,14.8,235.54,14.8ZM2.11,595c-5.8,17.64.44,36.75,15.85,48.58l554.73,406.24L66.59,400.73Zm359.83-194.3,211,649.14,211-649.14ZM1143.79,595l-64.44-194.3L573,1049.87l554.73-406.25c15.49-11.78,21.83-30.88,16.11-48.57ZM952.72,14.8C949.54,4.1,937.49-2.2,925.81.71A21.08,21.08,0,0,0,910.43,14.8L783.77,400.73h295.34Z" transform="translate(0.03 0)"/></svg>