<svg id="Capa_1" data-name="Capa 1" xmlns="http://www.w3.org/2000/svg" viewBox="0 0 316.88 289.14"><defs><style>.cls-1{fill:#f8d754;}.cls-2{fill:#f28f4e;stroke:#f28f4d;stroke-linecap:round;stroke-linejoin:round;stroke-width:10px;}</style></defs><path class="cls-1" d="M205.36,280.36c0-2.25,0-4.5,0-6.75.06-7,1.51-13.86,3.11-20.72,1.43-6.16,4.66-11.85,7.41-17.66,2.13-4.52,4.52-9,6.89-13.4,3-5.57,4.59-11.43,6.07-17.32,2-7.89,3-15.88,4.2-23.87a101.79,101.79,0,0,1,5.49-20.74,143,143,0,0,1,5.8-14.38,85.5,85.5,0,0,1,16-22.28,81,81,0,0,1,20.46-15.47c8.71-4.45,18.13-7.21,28.72-6.42a46.32,46.32,0,0,1,8.33,1.3A58.08,58.08,0,0,1,339.11,113a69.4,69.4,0,0,1,19.21,22.84,140.78,140.78,0,0,1,9,21.66c4,12.14,7,24.46,9.95,36.78q4.58,18.95,8.06,38c1.08,5.94,2.16,11.87,3.16,17.82.42,2.54.63,5.11.92,7.67a148.37,148.37,0,0,1,.84,27.3c-.54,7.7-1.8,15.37-5.16,22.7a64.48,64.48,0,0,1-3.4,6.54,25.66,25.66,0,0,1-11.55,10.09,22.89,22.89,0,0,1-20.39-.35,26.74,26.74,0,0,1-11.66-11.27,52.83,52.83,0,0,1-6.21-17.59c-.61-3.61-1.44-7.2-1.94-10.82-.55-3.93-.76-7.9-1.27-11.84a29.27,29.27,0,0,0-1.37-6.31c-1.56-4.29-5.42-6.51-11-6.73a92.68,92.68,0,0,0-14.53.92l-20,2.37c-.94.11-1.86.26-2.8.36-6.43.71-10.1,3.87-11.65,8.61-1.15,3.52-1.75,7.15-2.7,10.72-2.26,8.52-5.19,16.87-10.47,24.59a42.93,42.93,0,0,1-10.83,11.54,24,24,0,0,1-15.86,4.67,16.41,16.41,0,0,1-10.22-4.07,31.4,31.4,0,0,1-9.33-15.51C205.63,295.55,205.11,291,205.36,280.36Zm119.32-81.53A72.23,72.23,0,0,0,322.62,181a65.32,65.32,0,0,0-4.13-13.06,25.36,25.36,0,0,0-5.77-8c-4.38-4.1-11.87-5-17.61-2.2a15,15,0,0,0-4.63,3.55,31.25,31.25,0,0,0-5.38,8.95A216.51,216.51,0,0,0,277,195c-1.29,4.59-2,9.27-3.07,13.91a10.71,10.71,0,0,0,1.64,8.1,8.22,8.22,0,0,0,6.06,3.9,37.53,37.53,0,0,0,5.58.63,129.45,129.45,0,0,0,22.45-2.15,23.83,23.83,0,0,0,3.47-.88c5.6-1.84,9.29-5,10.58-9.79A35,35,0,0,0,324.68,198.83Z" transform="translate(-73.67 -37.48)"/><path class="cls-2" d="M229,171.49c-.35,6.11-.54,12.65-1.14,19.16a114.24,114.24,0,0,1-6.1,24.87,138.45,138.45,0,0,1-10.58,22.57c-5.28,9.11-8.46,12.24-9.63,13.35A51.34,51.34,0,0,1,188.91,260a66.22,66.22,0,0,1-12.45,4.77,78.2,78.2,0,0,1-14.07,2.71,66.83,66.83,0,0,1-14.14,0,96.85,96.85,0,0,1-22.5-5.19c-10.55-3.81-19.29-9.41-26.09-16.88A29.06,29.06,0,0,1,96.3,241c-5.15-8.38-10.28-16.78-14.06-25.62a40.15,40.15,0,0,1-2.95-11.61,79.58,79.58,0,0,1-.5-13.79c.31-4.7.41-9.42,1.54-14.07a39.41,39.41,0,0,1,10-17.74,33.73,33.73,0,0,1,6.47-5.3c4.51-2.87,9.81-3.5,15.34-2.34a22,22,0,0,1,10.7,5.53,21.93,21.93,0,0,1,6,9.37A47.2,47.2,0,0,1,131,177.13c.7,8.32,1,12.51,1.43,14.08A27.94,27.94,0,0,0,136.92,202a19.34,19.34,0,0,0,7.12,6.47,16.86,16.86,0,0,0,14.65.49,22.43,22.43,0,0,0,4.38-2.51,23.56,23.56,0,0,0,4.85-5,42.48,42.48,0,0,0,6.4-11.11c2.05-5.38,2.43-9.84,3.05-17,.29-3.42.38-7,.38-7,.09-3.89,0-6.43-.15-9.79-.37-10.16,0-9.28-.41-16.53-.11-2.24-.36-6.58-.95-12-.21-1.86-.44-3.8-.83-6.13a93.38,93.38,0,0,0-3.64-14.27c-1.94-5.83-2.5-6.16-6-15.13-3.37-8.55-5.16-12.93-6.23-18.62a40.67,40.67,0,0,1-.27-15.35A18.07,18.07,0,0,1,168,46.14a22.49,22.49,0,0,1,21.58-1.65,39.05,39.05,0,0,1,13.51,10c4.52,5,7.57,10.62,10.36,16.32.27.56,1.62,3.09,3.24,6.59a117.83,117.83,0,0,1,6.74,17.34,101.9,101.9,0,0,1,2.91,13.71A156.23,156.23,0,0,1,227.85,127c.38,8.42.46,15.35.51,20.25.06,5.47,0,8.35.21,14.22S229.14,168.4,229,171.49Z" transform="translate(-73.67 -37.48)"/></svg>