<svg id="Capa_1" data-name="Capa 1" xmlns="http://www.w3.org/2000/svg" viewBox="0 0 645.58 645.59"><defs><style>.cls-1{fill:#656768;}.cls-2{fill:#fdfdfd;}</style></defs><path class="cls-1" d="M425,724.74q-129.21,0-258.41,0c-17.77,0-33.33-5.87-46-18.47-13-12.87-18.86-28.72-18.86-46.87q0-175.17,0-350.36,0-82.47,0-164.94c0-17.57,5.75-33,18.12-45.67,12.91-13.2,28.88-19.21,47.22-19.21H609.84c24.49,0,49-.09,73.47,0,27.35.13,50.38,16.25,60,41.8a62.1,62.1,0,0,1,3.85,22q.08,258.9,0,517.8c0,35.93-28.23,63.84-64.31,63.87Q553.9,724.83,425,724.74Z" transform="translate(-101.63 -79.17)"/><path class="cls-2" d="M403.58,440.39c3.38-1.79,5.89-2.92,8.86-2.66,7.73.69,11.23,5.4,9.32,12.91-4.83,19-10.69,37.8-13.87,57.23a43.43,43.43,0,0,0,0,13.28c3.54-2.4,4.62-5.59,6.07-8.44,13.87-27.53,25.69-56,38.33-84.09,5.53-12.29,11.3-24.53,14-37.88.61-3.05,2.72-4.54,5.41-5.25,7.79-2.05,15.67-3.18,23.69-1.51,5.88,1.22,7.45,3.85,5.34,9.55-5.08,13.67-7.5,27.51-4.45,42.08,1.42,6.79,4.28,12.82,7.75,19.16,3.74-4.19,5.83-8.91,8.39-13.31,8.35-14.4,16.57-28.88,23.44-44.09,3.25-7.22,4.2-15.05,6.62-22.48,1.18-3.62,3.25-5.73,6.73-6.57A55.91,55.91,0,0,1,571.44,367c6.48,1,8.27,3.93,5.93,10.12-5.23,13.85-7.46,27.88-4.17,42.57,1.93,8.61,6.49,16,10.31,23.73,1.19,2.41,3,1.4,4.66.63a115.26,115.26,0,0,1,58-9.91c23.12,1.95,43.47,10.1,57.93,29.22,9,11.89,13.49,25.35,10.27,40.35-3,13.85-12.18,22.54-25,27.65-1.81.71-4.18,1.39-5.41-.79-1.4-2.47,1-3.44,2.56-4.59,1.87-1.37,3.9-2.58,5.64-4.11,14.17-12.46,15-30.1,2.34-45.3-9.87-11.82-22.93-17.92-37.64-21-20.58-4.32-41-4.05-61.12,2.6-2.2.73-5.21,1-3.74,4.91,10.09,27.05-1.74,42.58-22.58,56.14-6.6,4.29-14,6.95-21.6,9-11.86,3.26-20.59-4.66-18.94-16.89,2.52-18.77,13.48-32.63,26.47-45.21,8-7.73,7.26-4.73,2.81-13.68-5.16-10.41-8.19-21.43-10.65-32.68-.24-1.11-.13-2.33-1.54-3.57-3.87,7.14-7.57,14.11-11.4,21-6.14,11.08-12.72,21.89-19.93,32.3a6.26,6.26,0,0,0-.72,6.83c3.38,8,5.52,16.41,5.1,25.22-.87,18.67-11.82,30.12-27.63,37.82-11.2,5.44-22.95,9.25-35.6,7.83-10.41-1.16-13.64-8.34-7.75-17,6.74-9.93,15-18.67,22.67-27.91,4.88-5.9,9.65-11.88,14.09-18.13,1.66-2.33,1.92-4.26.55-6.83-7.32-13.71-12.75-28.12-15.24-44.72-3.59,5.72-5.27,11.06-7.36,16.16-12.28,29.95-26.92,58.73-42.81,86.89-3.61,6.39-7.95,12.35-14.14,16.61-8.42,5.8-17.24,3.36-21.23-6.09-4.09-9.67-3.38-19.88-2.6-30,.07-1,.23-2,.46-3.86-3.05,4.17-4.08,8.33-5.85,12.11-4.39,9.34-8.84,18.62-13.91,27.64-8.11,14.4-28.82,15.93-37.8-1.2-9.21-17.56-12.62-35.93-9.94-55.53,1.28-9.38,2.94-18.66,5.25-28.46q-14.55,8.43-29.11,16.84c-2.05,1.18-.75,2.54-.25,3.84,18.51,48.35-6.16,110-65.09,125.32a76.44,76.44,0,0,1-38.56-.09c-9.82-2.51-15.39-9.91-18.61-18.76-7.79-21.42-2.52-40.74,11.41-57.84,13.55-16.64,31.29-28.3,49.52-39.14,7.87-4.67,16-8.86,24.13-13.14,3.36-1.78,4.71-3.08.66-5.93-17.43-12.27-34.86-24.54-52-37.24s-32.86-26.65-44.46-44.78c-11.07-17.29-14.7-35.47-7-55.15a135.52,135.52,0,0,1,12.52-25c14.86-22.78,34.13-41.32,56.07-57.06,41.27-29.6,86.33-51.6,135.7-63.86,32.45-8,65.25-8.85,97.67,1.07,13,4,25,10.09,34.92,19.69,12.88,12.4,17.76,27.79,17.12,45.23-1.15,31.59-16.63,56.22-38.19,77.82-24.9,24.95-56,37.14-89.91,43.27-20.29,3.68-40.68,4.84-61,0a60.78,60.78,0,0,1-31-18.25,28.27,28.27,0,0,1-6.92-12.56c-.47-1.87-.25-3.77,1.61-4.84,1.57-.91,2.9,0,4,1.18,17.17,18.13,39.07,19.95,61.89,17.33,28.39-3.26,54.84-12.45,78.56-28.59,20.46-13.91,37.57-30.9,46.7-54.55,3.15-8.16,4.6-16.59,3.28-25.44-1.55-10.42-7.28-17.63-16.19-22.68-10.51-6-22-8.51-33.88-9.5-34.88-2.89-67.88,5.12-99.69,18.38-35.38,14.74-68.6,33.34-97.66,58.68-12.15,10.58-22.8,22.52-29.76,37.21-12.57,26.49-8.6,49.44,11.82,71,13.12,13.88,28.69,24.82,43.6,36.54,8.26,6.49,16.49,13,23.66,20.71,2.4,2.58,4.36,2.68,7.32,1q24.66-13.74,49.5-27.14c2.46-1.33,4.08-3.32,5.79-5.37,10.91-13.11,23.2-24.52,40.08-29.3,15.19-4.31,25.28,3.29,26,19.07A66.49,66.49,0,0,1,403.58,440.39Z" transform="translate(-101.63 -79.17)"/><path class="cls-1" d="M274.57,512c.08,31.27-19.88,59.27-48.44,69.1a35.89,35.89,0,0,1-4.35,1.08c-16.79,3.53-24.48-4.08-20.84-20.82,2.7-12.42,9.18-22.82,18.36-31.44,14.91-14,32-25,49.42-35.47,2.6-1.56,3.36-.7,3.93,1.93C273.85,501.88,274.78,507.44,274.57,512Z" transform="translate(-101.63 -79.17)"/><path class="cls-1" d="M343.22,504.38c.12-25.13,9.21-47,24.42-66.59a32,32,0,0,1,13.41-10.1c2.24-.9,4.58-1.47,6.67,0,2.33,1.66,1.59,4.16,1.16,6.43-3,16.09-8.68,31.38-14.54,46.58-4.79,12.4-9.19,25-15.2,36.88a34.2,34.2,0,0,1-5.64,8.78c-2.93,3-5,2.73-6.94-1C343.12,518.76,343.3,511.55,343.22,504.38Z" transform="translate(-101.63 -79.17)"/><path class="cls-1" d="M569.77,471.29c6,14.84-3.36,34.13-18.16,38.42-2.91.84-3.62-.34-3.41-2.91.37-4.59,2.57-8.56,4.36-12.65A63.84,63.84,0,0,1,569.77,471.29Z" transform="translate(-101.63 -79.17)"/><path class="cls-1" d="M466.64,529.41c9.66-11,19.24-20.95,27.47-32.43C496.65,508.24,480.36,527.86,466.64,529.41Z" transform="translate(-101.63 -79.17)"/></svg>