<svg id="Capa_5" data-name="Capa 5" xmlns="http://www.w3.org/2000/svg" viewBox="0 0 982.47 1037.62"><defs><style>.cls-1{fill:#525253;}</style></defs><path id="Icon_simple-intellijidea" data-name="Icon simple-intellijidea" class="cls-1" d="M0,0V1037.62H982.47V0ZM152.4,134.51H357.1V213.8H300.19V485.17h56.89v79.3H152.4v-79.3h59.11V213.8H152.4Zm452.55,0h91v281a198.89,198.89,0,0,1-9.09,67.27,129.07,129.07,0,0,1-29.59,48,100.48,100.48,0,0,1-45.44,28.88,153.71,153.71,0,0,1-59.16,12,157.4,157.4,0,0,1-79.58-19.23,199.6,199.6,0,0,1-52.36-45.66l56.9-67.23a133.25,133.25,0,0,0,34.09,31.22,73.57,73.57,0,0,0,38.69,12,53.29,53.29,0,0,0,40.94-16.82c9-12,13.67-28.87,13.67-55.25ZM91,843.07H459.38v64.86H91Z" transform="translate(0 0)"/></svg>