<svg id="Capa_5" data-name="Capa 5" xmlns="http://www.w3.org/2000/svg" viewBox="0 0 1172.43 1082.56"><defs><style>.cls-1{fill:#707070;}</style></defs><path id="Icon_simple-adobephotoshop" data-name="Icon simple-adobephotoshop" class="cls-1" d="M0,0V1082.56H1172.43V0ZM48.86,46.27H1123.57v990H48.86ZM283.34,253.53c0-3.1,6.84-5.37,10.94-5.37,31.46-1.52,77.58-2.31,125.94-2.31,135.42,0,188.06,70.32,188.06,160.35,0,117.51-90,167.93-200.38,167.93-18.57,0-24.92-.79-37.87-.79V751.08c0,3.84-1.61,5.37-5.62,5.37H289c-4.08,0-5.62-1.39-5.62-5.23V253.53Zm86.74,245.75c11.22.74,20.13.74,39.57.74,57.15,0,110.89-19.06,110.89-92.34,0-58.75-38.39-88.54-103.66-88.54-19.37,0-37.87.74-46.76,1.53V499.43Zm420.46-55c-38.69,0-51.58,18.32-51.58,33.59,0,16.79,8.8,28.24,60.42,53.43C876,566.46,900.11,600,900.11,649.59c0,74-59.6,113.81-140.2,113.81a223.71,223.71,0,0,1-100.15-19.89c-3.17-1.53-3.9-3.77-3.9-7.64V668c0-4.62,2.34-6.15,5.56-3.88a187.28,187.28,0,0,0,98.29,27.47c38.69,0,54.81-15.27,54.81-35.9,0-16.79-11.21-31.32-60.42-55.75-69.33-31.46-98.38-63.38-98.38-116.9,0-59.54,49.14-109.2,134.57-109.2A239.51,239.51,0,0,1,878,386.83a9.94,9.94,0,0,1,4.88,9.16v63.38c0,3.84-2.45,6.16-7.33,4.63a182.79,182.79,0,0,0-85.15-19.89Z" transform="translate(0 0)"/></svg>