<svg id="Capa_5" data-name="Capa 5" xmlns="http://www.w3.org/2000/svg" viewBox="0 0 858.15 818.97"><defs><style>.cls-1{fill:#707070;}</style></defs><path id="Icon_simple-mysql" data-name="Icon simple-mysql" class="cls-1" d="M586.56,82.93a28.67,28.67,0,0,0-9.8,1.66v.65h.5A116.24,116.24,0,0,0,584.88,99c1.93,5.37,3.57,10.75,5.51,16.08l.5-.76a22.53,22.53,0,0,0,5-16.73c-1.43-2.37-1.64-4.72-2.85-7-1.44-3.37-4.48-5-6.44-7.69Zm-380.25,663H173.16q-1.6-117.73-9.65-221.63h-.29L112.81,745.93H87.61L37.54,524.35h-.35q-5.53,99.71-7,221.61H0q3-148.2,14.67-277.9H55.78L103.54,672.3h.28L152,468.06h39.15Q204.14,620,206.44,746ZM350,540.93q-20.28,154.16-53.35,224.13-25.85,54-56.6,53.92a43,43,0,0,1-20.23-6.93V787.3a65.26,65.26,0,0,0,13.8,1.3,28.15,28.15,0,0,0,23.13-11.15A48.33,48.33,0,0,0,267.27,747a271.46,271.46,0,0,0-8.21-47.43L222.76,541h32.53l26,118.57A218.47,218.47,0,0,1,288.61,716a1031.42,1031.42,0,0,0,29.85-175h31.48Zm440.67,205h-94V468.06h31.65V711.79h62.39Zm-118.7,6.78-36.33-25.12A97.6,97.6,0,0,0,644.73,715Q668,677,667.88,601.87q0-138-77-138-37.75,0-59,35-23.07,38.29-23.14,112.82,0,73.26,20.52,107.53c11.08,19.82,33.08,31.84,56.6,30.91a66.76,66.76,0,0,0,25.92-4.93L659.16,784,672,752.74ZM554.23,690.37c-8-18.09-12.05-47.24-12.05-87.24q0-105,45.41-105c15.84,0,27.53,8.39,34.93,25.12q12,27.29,12,86.58,0,105.84-45.4,105.94-23.86,0-35-25.13ZM495,669A89,89,0,0,1,476.5,727.1,60.49,60.49,0,0,1,427,749.71c-19.4,0-38.06-8.65-56.24-25.88l8.47-23.92a75.76,75.76,0,0,0,42.54,16.48,36.14,36.14,0,0,0,28-11,44.61,44.61,0,0,0,10.73-30.91A53.37,53.37,0,0,0,437.39,632c-13.87-10.68-41.58-33-41.58-33-15.09-15.42-22.6-32-22.6-59.15A83.7,83.7,0,0,1,390,485.3a53.32,53.32,0,0,1,43.53-20.89,72.36,72.36,0,0,1,50,20.61L476,508.94a74.36,74.36,0,0,0-38-11.56,28,28,0,0,0-23.39,10.35,41,41,0,0,0-8.86,26.35,53.76,53.76,0,0,0,23.81,42.73c14,10.8,42.44,33.67,42.44,33.67,15.49,15.33,23.13,31.66,23.13,58.7ZM830.38,374.89A81.47,81.47,0,0,0,784,384.34c-3.57,2-9.3,2-9.8,8.39a68.45,68.45,0,0,1,3.93,10.75,76.34,76.34,0,0,0,12.38,20.46,213.66,213.66,0,0,0,15.26,15.58c9.3,8,19.84,12.82,29,20.91,5.19,4.72,10.45,10.68,15.73,15.73,2.61,2.51,4.29,7,7.65,8.64v-1c-1.64-3-2.14-7.39-3.73-10.75-2.4-3.37-4.79-6.41-7.15-9.7a145.77,145.77,0,0,0-24.85-33.92c-7.65-7.34-24.38-17.59-27.53-29.91l-.46-.71a73.91,73.91,0,0,0,16.41-5.33c8.12-3,15.55-2.37,24-5.33,3.79-1.36,7.61-3,11.43-4.72v-3c-4.29-6-7.5-14.24-11.93-19.85a353.14,353.14,0,0,0-39.48-41.36,287.57,287.57,0,0,0-25-16.8c-2.86-2-7.65-3-9.3-6.41a152.54,152.54,0,0,1-9.83-25.82c-6.87-18.52-13.59-38.95-19.56-58.45-4.29-13.17-6.9-26.29-12.16-38.34-24.66-57.14-51.38-91.76-92.46-125.63A94.49,94.49,0,0,0,596,34c-6-.4-11.94-1-17.91-1.36-3.93-2.36-7.72-8.74-11.08-11.8-13.56-12-48.74-38.2-58.75-3.59-6.43,21.81,9.55,43.32,15.09,54.37a168.55,168.55,0,0,1,12.16,25.12c1.68,5.84,2.14,11.81,3.83,17.89,3.79,14.78,7.4,31.26,12.4,45.08a175.41,175.41,0,0,0,8.84,20.75c1.93,3.67,5.22,5.38,6,11.4A128.48,128.48,0,0,0,561.05,217c-8.58,38-5.22,85.08,6.94,113.07,3.83,8.34,13,26.83,25.14,19.75,10.73-6,8.37-25.13,11.44-42a30.74,30.74,0,0,1,1.72-9.4v.75c3.35,9.45,6.71,18.45,9.79,27.89a176.28,176.28,0,0,0,31,45c5.72,6,10.26,16.48,17.42,20.2v-1h-.62a38.47,38.47,0,0,0-5.51-6.69,168.17,168.17,0,0,1-12.49-20.08,497,497,0,0,1-26.7-61.17c-3.93-10.56-7.22-21.92-10.37-32.31-1.43-4-1.43-10-3.83-12.07a132,132,0,0,0-11.44,22.79,262,262,0,0,0-6.66,50.72c-1,.35-.5,0-1,.71-7.64-2.61-10.26-13.77-13.12-23.12a202.52,202.52,0,0,1-2.16-89.72c1.68-7,8.83-29.25,6-36-1.5-6.4-6.23-10-8.84-15.22a145.07,145.07,0,0,1-8.58-21.46c-5.72-18.79-8.58-39.6-14.8-58.39a192.4,192.4,0,0,0-11.94-25.78A180.4,180.4,0,0,1,519.25,37.3a21.16,21.16,0,0,1-1-13.77A5,5,0,0,1,521.61,19c3.15-3.62,12,1.1,15.09,3.12a114.14,114.14,0,0,1,23.65,16.79c3.36,3.32,7,9.7,11.26,11.36h5C584.26,52.65,592.87,51,600,54a140.14,140.14,0,0,1,34.4,23.11A285.83,285.83,0,0,1,709,191.94c2.86,7.74,4.11,14.83,6.72,22.87,5,16.58,11.19,33.31,16.26,49.35a258.19,258.19,0,0,0,17,45.08c3.58,7,17.95,10.68,24.39,14.37a151,151,0,0,1,16.41,9.45c8.21,7,16.23,15.08,24,22.79,3.93,3.81,15.84,12.21,16.56,19Z" transform="translate(0 -0.01)"/></svg>