<svg id="Capa_2" data-name="Capa 2" xmlns="http://www.w3.org/2000/svg" viewBox="0 0 1337.87 1162.21"><defs><style>.cls-1{fill:#f4f4f4;}</style></defs><path class="cls-1" d="M900.32,945.86c24.18,45.82,45.4,87.14,68.11,127.58,2.66,4.73,13.5,6.39,20.56,6.44,62.69.49,125.38-.09,188.06.58,14.68.15,37.93-7.64,40.75,12.06,2.76,19.33-2.35,45-13.69,60.24-23.66,31.83-58.73,44.92-98.88,44.85q-396.1-.73-792.21-.31c-57.6,0-98.7-27.76-110.86-73.91-8.43-32-.16-43.16,32.15-43.19,65.82-.07,131.65-.36,197.46.25,13.4.13,20.45-3.7,26.71-16.84,18.3-38.38,38.8-75.65,59.94-116.25-10-.6-16.62-1.34-23.19-1.34q-166.91-.06-333.81.07c-30.43,0-58.43-5.9-83.15-26.48C53.73,899.18,40,874,39.92,841.94q-.42-351.72.23-703.42c0-12,4.67-24.41,9-35.9C67.93,52.88,107.73,36.05,155.3,35.81c148.88-.75,297.76-.26,446.65-.26,219.41,0,438.81-.33,658.22.52,19.71.08,40.35,5.17,58.88,12.46,38.88,15.29,57.82,45.49,57.73,89.33q-.67,311.83-.21,623.66c0,23.37-2,46.94.37,70.06,7.74,76.74-54.31,114.43-112.19,114.47q-131.64.08-263.28-.18C970.17,945.84,938.88,945.86,900.32,945.86ZM87.88,768.66H1331.51c.73-3.58,1.33-5.14,1.33-6.7q.18-314.18-.24-628.34c0-9.88-6.39-20.43-11.74-29.46-14.95-25.21-39.32-28.92-65.41-28.91q-490,.19-980.08.09c-39.17,0-78.35-.38-117.52.11C116.47,76,83,99,87.51,148.05c2.08,22.35.37,45.07.37,67.63Zm2.56,43C77.85,875.39,105.26,906,163.19,906q547.53.18,1095.05.44c50.43.1,88.46-36.68,71.57-94.77ZM502.67,1079.2H916c-2.26-6.59-3.42-12-5.86-16.8-18.41-35.77-36.52-71.72-56.2-106.74-3.11-5.53-13.64-9.33-20.78-9.38-81.39-.65-162.8-.83-244.19.17-9.12.11-22.49,5.74-26.48,13.07C541.8,997.46,523.53,1036.79,502.67,1079.2Zm665.63,42.74H247c19.14,26.06,41.76,36,70.28,35.82,86.95-.58,173.91-.24,260.87-.24l524.1,0C1129.22,1157.55,1153.87,1152.74,1168.3,1121.94Z" transform="translate(-39.73 -35.39)"/><path class="cls-1" d="M710.52,327q-237.49,0-475,0c-33,0-36-3.25-36-37.66q.09-61.65,0-123.32c0-29.49,3.86-33.7,32.48-33.71q369.2-.14,738.4-.12,108.18,0,216.35.11c31.84.05,34.59,2.91,34.67,36.38q.13,62.86-.11,125.73c-.07,28.21-3.92,32.44-31.13,32.46q-239.85.13-479.72,0ZM562.59,232.35l-.36-5.76-317.6-50.14V282.69Zm295.73-5.76-.51,5.74,318.81,50.54V176.22Zm66.2-51.52c-.11-.75-.21-1.5-.31-2.26H495.27c42.86,8.95,85.91,15.84,129,22.57,29.34,4.58,59.35,15.16,88,12.14C783.33,200,853.8,186.3,924.52,175.07Zm-.68,111.46-.68-2.62c-27-4.49-53.95-9.21-81-13.41-44.86-7-90.25-21.44-134.54-18.55-71,4.64-141.22,20.87-211.78,32.21l.3,2.37Z" transform="translate(-39.73 -35.39)"/><path class="cls-1" d="M511.16,539.82c0,48.32-.7,96.66.33,145,.42,20.11-8.95,28.55-26.19,28.63-87.71.45-175.43.25-263.15.24-15.69,0-22.49-8.7-22.49-24.33q0-149.79-.16-299.58c0-16.83,7.57-25.51,24.14-25.49q129.23.09,258.45.25c19.24,0,30.07,7.49,29.46,30.37C510.28,443.16,511.17,491.5,511.16,539.82ZM462.28,405.64H245.07V672H462.28Z" transform="translate(-39.73 -35.39)"/><path class="cls-1" d="M552.43,538.22c0-48.31.67-96.63-.32-144.91-.42-20.09,9-28.64,26.21-28.72,87.69-.44,175.38-.18,263.08-.12,15.73,0,22.48,9,22.48,24.43q0,149.75.07,299.5c0,18.67-9.37,25.61-26.49,25.56-84.56-.23-169.12.06-253.68-.38-26.45-.14-31.26-5.82-31.32-32.85C552.34,633.22,552.42,585.72,552.43,538.22Zm50-133.13v267H819v-267Z" transform="translate(-39.73 -35.39)"/><path class="cls-1" d="M1221.37,539.05c0,48.27-.53,96.55.23,144.81.35,21.75-8.27,30.23-29.31,30.09q-126.75-.87-253.5,0c-21.2.15-29.27-8.58-29.15-30.2q.83-144.81,0-289.62C909.49,372.22,918,364,939,364.18q126.75.84,253.5,0c21.22-.16,29.5,8.38,29.14,30.09C1220.81,442.49,1221.37,490.77,1221.37,539.05Zm-44.22-132.73h-222v266h222Z" transform="translate(-39.73 -35.39)"/><path class="cls-1" d="M285.1,480V443.33H420.21V480Z" transform="translate(-39.73 -35.39)"/><path class="cls-1" d="M420.62,521.13V557H285.51V521.13Z" transform="translate(-39.73 -35.39)"/><path class="cls-1" d="M286.05,597.37h134v37.34h-134Z" transform="translate(-39.73 -35.39)"/><path class="cls-1" d="M777.54,480.75h-134V443.41h134Z" transform="translate(-39.73 -35.39)"/><path class="cls-1" d="M642.53,557.46V520.75H777.7v36.71Z" transform="translate(-39.73 -35.39)"/><path class="cls-1" d="M778.07,597.75v37.38h-135V597.75Z" transform="translate(-39.73 -35.39)"/><path class="cls-1" d="M1131.18,443.32V480H1000.85V443.32Z" transform="translate(-39.73 -35.39)"/><path class="cls-1" d="M1130.89,521.05v36.63h-130.3V521.05Z" transform="translate(-39.73 -35.39)"/><path class="cls-1" d="M1131.08,598.21v36.44H1001V598.21Z" transform="translate(-39.73 -35.39)"/></svg>