<svg id="Capa_5" data-name="Capa 5" xmlns="http://www.w3.org/2000/svg" viewBox="0 0 905.14 752.58"><defs><style>.cls-1{fill:#525353;}</style></defs><path id="Icon_awesome-node-js" data-name="Icon awesome-node-js" class="cls-1" d="M758.33,960a102.17,102.17,0,0,1-39.3-7.76l-125-54.5c-18.63-7.77-9.52-10.47-3.44-12a295.24,295.24,0,0,0,56.52-19,12,12,0,0,1,9.32.59l96,42a15.39,15.39,0,0,0,11.55,0l374.17-159.18c3.39-1.45,5.56-4.31,5.67-7.47V424.29c-.1-3.25-2.36-6.18-5.87-7.62l-374-159a15.45,15.45,0,0,0-11.54,0L378.69,416.82c-3.54,1.41-5.82,4.36-5.87,7.62V742.67c.07,3.18,2.36,6,5.87,7.31l102.51,43.6c55.71,20.46,89.73-3.58,89.73-27.92V451.47c.38-4.69,5.26-8.23,10.89-7.91h47.45c5.64-.3,10.51,3.23,10.94,7.91V765.81c0,54.66-40.52,86-110.81,86-21.68,0-38.69,0-86.1-17.33l-98-41.66c-23.48-9.26-38.68-28.73-39.3-50.32V424.29c.67-21.59,15.85-41,39.3-50.32L719,214.78a108.15,108.15,0,0,1,78.61,0l374.17,159.34c23.48,9.25,38.68,28.72,39.3,50.32V742.67c-.73,21.57-15.9,41-39.3,50.32L797.64,952.19a101.22,101.22,0,0,1-39.3,7.77ZM1060.39,646.2c0-59.58-54.7-75.41-169.56-86.61-116.29-11.35-128-17.18-128-37.19,0-16.57,9.93-38.67,96-38.67C935.6,483.73,964,496,975.71,534.2c1.39,3.83,5.71,6.41,10.53,6.27h48.62a12.54,12.54,0,0,0,7.87-2.54,7.09,7.09,0,0,0,2.83-6.12c-7.46-65.84-66.82-96.47-186.74-96.47-106.76,0-170.38,33.15-170.38,88.86,0,60.32,63.41,77,165.72,84.52,122.56,8.81,132.09,22.1,132.09,39.87,0,30.76-33.64,43.9-112.44,43.9-99.06,0-120.74-18.37-128-54.65-1.14-4.12-5.67-7-10.74-6.72H686.62c-5.58-.29-10.39,3.23-10.73,7.87v0c0,46.46,34.24,101.84,198.13,101.84C992.32,740.72,1060.39,706.23,1060.39,646.2Z" transform="translate(-305.97 -207.38)"/></svg>