<svg id="Capa_1" data-name="Capa 1" xmlns="http://www.w3.org/2000/svg" viewBox="0 0 127.26 289.29"><defs><style>.cls-1{fill:#676767;}.cls-2{fill:#fff;}</style></defs><path class="cls-1" d="M89.53,178.14l15.77-7.08c-.55,2.16-1.64,4.78-1.75,7.44-.08,1.84,1.19,3.74,1.86,5.61,1.63-1.14,4.07-1.93,4.72-3.47,1.85-4.43,2.93-9.18,4.38-13.79,2-6.19,4.25-12.3,5.77-18.59.45-1.89-.59-5.49-2-6.19-3.09-1.53-4.91,1.28-5.58,4a33.1,33.1,0,0,1-12.54,18.72c-1.52,1.15-3.85,1.23-5.81,1.81-.46-1.86-1.49-3.77-1.29-5.55a50.88,50.88,0,0,1,15.67-31.56c3.84-3.71,6.49-3.09,9.77,1.34,1.48,2,3.27,4.94,5.78,2.46,1.37-1.35,1.71-5.06.9-7-2.53-6.24-10.14-9-16.39-6.28-8.6,3.7-13.64,10.94-18,18.72-1.28,2.26-2.38,4.62-4.21,8.18-2-21.27-3.88-41.18-5.81-61.67,42.71,10.31,84.33,11,126.64-.85-.27,2.93-.46,5.65-.77,8.36-2.33,20.19-4.79,40.37-7,60.58-.77,7.21-7.27,8.78-11.67,12.53,2.05-2.92,4.31-5.72,6.1-8.79,1.68-2.87,3.37-6.1.34-9.16s-6.64-2.5-10.14-.69c-1.32.68-2.56,1.52-3.8,2.27-4.88-3.47-6.86-3-8.87,3.21-2.25,6.94-7.54,10.42-14,13.36.63-2,1.14-4,1.92-6,3.95-9.73,8-19.43,12-29.13,1-2.51,2.46-5.36-1-6.88s-5.25.92-6.39,3.79c-4.49,11.31-8.82,22.68-13.5,33.9-1,2.35-3.23,4.16-4.89,6.22l-2-1.26c1.42-3.8,2.93-7.57,4.22-11.41,1.06-3.13,4-7.3-.72-9-4.32-1.58-4.64,3.42-6.15,6.17-2.15,3.92-4.32,7.85-6.83,11.54-.9,1.32-2.79,2-4.23,2.9l-1.52-1c1.44-3.72,2.94-7.41,4.3-11.16,1-2.84,4.75-6.31,0-8.46-4.26-1.91-5.67,2.33-6.89,5.33a103.46,103.46,0,0,0-5.28,15c-.55,2.37.08,6.32,1.69,7.53,1.93,1.45,5.56,1.23,8.32.81,2.14-.32,4.08-2,6.46-3.35,1.89,5.19,5.44,5,9.59,2.85,1-.48,2.66-1,3.17-.6,4.14,3.63,8.1,1.55,13.13-.76-.91,2.36-1.42,3.8-2,5.2-1.18,2.75-2.94,5.39-3.44,8.26-.39,2.2,0,5.94,1.42,6.76,3.1,1.81,5.16-1,6.32-3.74,2.77-6.6,5.12-13.4,8.17-19.86A72.58,72.58,0,0,1,180.93,158c1.15-1.57,3.18-2.48,4.82-3.69l1,1c-2.35,3.07-4.76,6.09-7,9.23-2.06,2.84-4.61,6-1.65,9.41s6.74,2.41,10.13.7c3.07-1.55,5.87-3.65,9.52-6-1.15,10.25-2.22,19.89-3.31,29.54-.55,4.8-1.21,9.59-1.65,14.4-.77,8.34-2,10.18-10.2,12.71-15.67,4.84-31.83,5.73-48,4.63a190.22,190.22,0,0,1-31-4.52c-10.5-2.5-10.23-5.59-10.69-12.57C92,200.91,90.6,189,89.53,178.14Z" transform="translate(-80.77 -4.43)"/><path class="cls-1" d="M99,227.91c29.37,7.29,58.09,7.41,86.81-.29.13.38.4.82.3.95-6,7.22-5.6,16.05-6.12,24.62s-.7,17-1.55,25.42a9.35,9.35,0,0,1-3.76,6.23c-21.4,13.05-42.79,10.81-63.88-.86-1.36-.75-2.41-3.08-2.6-4.79-.8-7.44-1.18-14.93-1.8-22.4C105.55,246.79,106.72,236.29,99,227.91Z" transform="translate(-80.77 -4.43)"/><path class="cls-1" d="M81.29,76.34C88,75,94.71,73,101.52,72.43c15.09-1.16,30.23-1.72,45.37-2.2,3.76-.12,5.83-1,6.59-5,.92-4.72,2.89-9.27,3.56-14C158.27,42.5,162.73,36,168.94,30c7-6.68,13.37-13.94,20-20.95,6-6.28,6-6.28,12.49.59C194,17.88,186.76,26.34,179,34.31c-5.61,5.78-9.68,12.07-11.21,20.09-1,5-2.66,9.91-4.22,15.54,15,2.29,30.25,1.08,44.06,7.1l.37,1.7c-2.05,1.09-4,2.74-6.17,3.17-12.21,2.4-24.4,5.28-36.74,6.52a221.6,221.6,0,0,1-68.54-3.8c-5.41-1.15-11-2.19-15.34-5.92Zm82.82,1.91H147.88A13.11,13.11,0,0,0,164.11,78.25Z" transform="translate(-80.77 -4.43)"/><path class="cls-2" d="M164.11,78.25a13.11,13.11,0,0,1-16.23,0Z" transform="translate(-80.77 -4.43)"/></svg>