<svg id="Capa_5" data-name="Capa 5" xmlns="http://www.w3.org/2000/svg" viewBox="0 0 972.27 990.03"><defs><style>.cls-1{fill:#707070;}</style></defs><path id="Icon_simple-firebase" data-name="Icon simple-firebase" class="cls-1" d="M32.21,646.51,164.56,18.83C167.21,6.64,182.77-1.67,199.31.28c9.31,1.1,17.4,5.34,21.89,11.45L363.7,208.57ZM972.27,798.82,846.21,221.14c-2.72-12.22-18.35-20.5-34.93-18.5a35.28,35.28,0,0,0-16.49,6.21L0,798.75l439.75,182.7c27.58,11.43,61.26,11.43,88.84,0l443.62-182.7ZM614.86,294.72,513,151.08c-7.79-10.94-26.12-15.15-41-9.42a27.89,27.89,0,0,0-12.78,9.42l-447,590.73Z" transform="translate(0 0)"/></svg>