<svg id="Capa_5" data-name="Capa 5" xmlns="http://www.w3.org/2000/svg" viewBox="0 0 902.07 886.77"><defs><style>.cls-1{fill:#707070;}</style></defs><path id="Icon_simple-mongodb" data-name="Icon simple-mongodb" class="cls-1" d="M885.41,351.69C779.47,146.25,529.79,78.71,503,52.92A362.62,362.62,0,0,1,441.54,0a14.12,14.12,0,0,0-.42,1.82v.5H441a8.84,8.84,0,0,0-.33,1.44v.53h-.17c0,.37-.16.67-.16,1v1h-.25a3.81,3.81,0,0,1-.27.93V8h-.16a1.28,1.28,0,0,1-.16.77v.77h-.17a5.88,5.88,0,0,1-.16,1.18v.08c-.25.62-.5,1.25-.79,1.85v.29h-.13c-.09.15-.25.29-.25.45V14h-.25v.81h-.44v.67h-.42v.65h-.33v.7h-.34v.63h-.5v.51h-.34v.7h-.34v.51h-.41v.48h-.25v.56h-.34a.14.14,0,0,0-.09.14v.37h-.25a.28.28,0,0,0-.09.23v.22h-.17a1,1,0,0,0-.17.37c-.25.26-.58.52-.83.77v0a1.83,1.83,0,0,0-.42.26v.29h-.34v.3h-.41v.29h-.25v.4h-.51v.52h-.33v.14h-.34v.3h-.34v.4h-.34v.3h-.49v.41h-.34v.29H428v.29h-.25v.37h-.41v.3H427v.23h-.34v.3h-.5v.37h-.34v.2h-.41v.3H425V29h-.41v.14h-.26v.3h-.51v.14h-.37V30h-.34v.14h-.34v.29h-.32v.23h-.25l-.17.14v.15h-.19c-.09.08-.17.08-.17.15h-.08a1,1,0,0,1-.34.26v.11h-.09a9.6,9.6,0,0,0-1,.66h0a3.35,3.35,0,0,0-.79.37v.08h-.08c-.09,0-.25.07-.25.1v.2h-.17l-.25.11h-.17a1.28,1.28,0,0,0-.25.15v.15H418l-.16.07v.08h-.11c0,.08-.17.08-.17.11v.11h-.33a1,1,0,0,1-.17.1v.23h-.25v.15h-.31v.23h-.33v.29h-.42v-.25h-.42v.14H415v.19h-.42V35h-.42v.14h-.34v.26h-.31v.15h-.34v.3h-.5V36h-.34v.26h-.42v.14h-.33v.19h-.42v.37H411v.15h-.48v.15h-.33v.08h-.34v.14h-.42v.37h-.33V38h-.42v.15h-.34v.22h-.41v.15h-.41v.14h-.34v.15h-.33v.37h-.34v.16H406v.15h-.34v.14h-.42v.25h-.33V40h-.43v.26h-.33v.15h-.51v.22h-.16v.15h-.34v.14h-.41v.16h-.34v.22h-.42v.15h-.25a.09.09,0,0,0-.08.08h0v.1h-.14l-.34.15a2.13,2.13,0,0,1-.33.11v.19h-.34v.19h-.34v.11h-.33v.15h-.31l-.25.11v.11h-.14l-.17.07v.11h-.16a7.22,7.22,0,0,1-1.18.59c-.33.14-.66.27-1,.38-1,.29-2.27.77-3.27,1.17-.67.19-1.34.45-1.85.63h-.08c-1.34.48-2.6.92-4.11,1.44h0c-2,.77-3.93,1.44-6.21,2.31h-.16c-4.78,1.74-9.81,3.7-15.6,5.88h-.08c-14.17,5.47-31,12.49-49.89,21l-1.25.56-.36.2c-114,52-293.66,160.32-312.61,335.38a169.39,169.39,0,0,0,.5,42.27v.34c9.14,69,58.26,127.88,119.72,175.72h0A691.72,691.72,0,0,0,199,682.73h0a1144.43,1144.43,0,0,0,210.73,93.36c37,37.78,33.54,102.68,33.54,102.68l54,8s-11-62.85,4.44-93.19a66.5,66.5,0,0,1,29.21-24.49c8.89-2.77,35.2-11.12,66.81-23.83,1.51-.7,2.35-1.34,3.69-2C728.91,690.92,967.08,561.89,885.41,351.69Z" transform="translate(-0.01 0)"/></svg>