<svg id="Capa_1" data-name="Capa 1" xmlns="http://www.w3.org/2000/svg" viewBox="0 0 1152.28 983.26"><defs><style>.cls-1{fill:#fff;stroke:#cfcece;stroke-miterlimit:10;}</style></defs><path class="cls-1" d="M828.53,991.38c11.37,24.85,22,47.68,32.24,70.65a260.64,260.64,0,0,1,9.83,25.54c2.14,6.55,5.87,9.51,13,9a158.64,158.64,0,0,1,17.85,0c13.44.62,20.64,7.17,20.3,18.16-.32,10.42-7.43,16.68-20.43,16.84-25.68.3-51.36.19-77,.18q-142.9,0-285.82-.1a81.77,81.77,0,0,1-10-.17c-9.3-1.16-17.67-9.86-17.47-17.84.18-7.46,8.53-15.63,17.33-16.89a12.14,12.14,0,0,1,4.45-.09c20.61,5.11,29.95-6.08,36.87-23,10.67-26,22.55-51.63,33.86-77.42.55-1.24.58-2.68,1-4.89H502.42c-99.74,0-199.48-.33-299.21.22-25.29.14-54.9-18.07-59.05-39.3a96.2,96.2,0,0,1-1.72-18.4c-.05-183.77.66-367.54-.55-551.31-.23-34.84,29.83-57.69,58.87-57.6,21.12.07,42.24,0,64.52,0v-11.6c0-35.07,1.83-70.26-.51-105.19-2.36-35.16,30.49-58.7,60.22-58.65,87.09.14,174.17,0,261.25,0q259,0,518,.12c34.5,0,52.24,13.59,64.52,42.93,1.33,3.19.76,7.22.76,10.86q.07,54.26,0,108.5V325c20.12,0,39.35.38,58.57-.09,28.08-.69,48.36,11.67,61.22,35.41,3.08,5.68,2.9,13.48,2.91,20.3q.21,249.9.12,499.8c0,15.71-1.37,31.58.37,47.1,4.66,41.56-33.31,64.68-66.24,64.4-127.64-1.11-255.29-.51-382.94-.54ZM306.24,325.46V850.24H1126.6V325.46Zm-.64-36.4h821.57c0-29,.13-57.05-.08-85.13-.07-9.93-5-16.64-15.52-18.22a89.2,89.2,0,0,0-13.27-1q-368.81-.08-737.63,0c-11.16,0-22.33-.15-33.48.24-10.75.38-21.26,8.86-21.42,18.35C305.31,231.69,305.6,260.11,305.6,289.06ZM184.11,886.74c-.56,1.19-1.11,1.82-1.12,2.45-.15,12.79.47,25.62-.51,38.34-1.54,19.89,5.13,28.87,29.68,28.86q504.08-.14,1008.16-.12c5.15,0,11.18.62,15.22-1.7,5.49-3.14,13-8.54,13.43-13.51,1.62-18,.64-36.16.64-54.32Zm80.42-36.13V360.05c-18.93,0-37.1,0-55.27,0-19.43-.05-27,8.54-26.91,26.11.51,150.75.29,301.51.29,452.26v12.2Zm905.89-490.52V850.58H1250V839.43q0-40.51,0-81,0-187.85-.08-375.68c0-15.33-5.87-22-20.87-22.48C1209.72,359.66,1190.41,360.09,1170.42,360.09Zm-339.6,736.28c-5.78-13.07-11.07-24.82-16.18-36.64q-11.19-25.89-22.15-51.86c-5-11.83-12.2-17.47-27-16.87-35.64,1.45-71.39.68-107.09.17-7.73-.11-10.78,2.55-13.59,9.27-9.3,22.24-19.62,44.07-29.24,66.19-4.13,9.49-7.49,19.31-11.49,29.74Z" transform="translate(-141.39 -149.03)"/><path class="cls-1" d="M717.6,745.85q-134.48,0-269,0c-28.23,0-52.24-17.82-58.92-39.51-1.57-5.1-1.55-10.8-1.56-16.22-.1-67.56,1.22-135.16-.63-202.68-.88-32.18,29.85-57.13,58.47-57.22,32.74-.1,65.47,0,98.21,0q218.17,0,436.36-.29c19.24-.05,36.75,4.88,49.55,17.92,7.55,7.71,13.6,20.41,13.77,31,1.17,72.66.9,145.35.48,218-.16,27.1-26.15,48.79-57.81,48.94-61.75.27-123.5.13-185.26.15q-41.85,0-83.7,0Zm-.15-35q130.06,0,260.12,0c20.84,0,26.8-5.82,26.81-25.82q0-97,0-194c0-19.62-6-25.69-25.8-25.69q-261.23,0-522.46.1c-20,0-25.51,5.66-25.51,25.74q0,94.25,0,188.5c0,27.53,3.65,31.17,31.2,31.17Z" transform="translate(-141.39 -149.03)"/><path class="cls-1" d="M1045.65,219.84c7.78,0,15.59-.43,23.33.12,9.44.67,17.84,9.23,18,17.21.22,11.16-8.34,16.2-16.67,17-16.5,1.58-33.33,1.23-49.92.1-9.51-.65-16.29-6.55-16-17.39.27-9.71,6.47-16,17.94-16.91C1030.06,219.36,1037.87,219.85,1045.65,219.84Z" transform="translate(-141.39 -149.03)"/><path class="cls-1" d="M921.85,254.76c-7.44,0-14.91.44-22.31-.11-11.39-.84-17.76-7.21-17.95-17-.2-10.27,6.35-17.25,18.28-17.71,15.22-.58,30.49-.45,45.73,0,9,.25,18.45,9.44,18.63,17,.2,7.95-9.46,17.38-19,17.87-7.78.41-15.61.09-23.42.09Z" transform="translate(-141.39 -149.03)"/><path class="cls-1" d="M799.38,219.83c7.42,0,14.85-.25,22.26.06,10.53.45,17.41,7.48,17.46,17.31s-6.82,17.22-17.28,17.47c-15.2.36-30.43.4-45.63,0-11.15-.33-17.87-7.94-17.43-18.4.42-9.72,7.32-15.94,18.36-16.41,3.7-.15,7.42,0,11.13,0h11.13Z" transform="translate(-141.39 -149.03)"/><path class="cls-1" d="M902.21,588l-60.5-31c-3.6-1.85-7.31-3.54-10.73-5.67-11.77-7.36-14.93-14.3-10.6-22.75,4.88-9.51,19.39-13.87,30-8.51,23.31,11.72,46.45,23.76,69.69,35.61,8.49,4.34,17.37,8.05,25.51,12.94,5.86,3.52,11.75,7.83,15.73,13.15,2.11,2.83,2,10.68-.23,12.6A164.15,164.15,0,0,1,932.57,614c-27.24,14.46-54.89,28.19-82.5,42-9.86,4.92-23.31,1.85-28.64-7-3.92-6.54-5.11-14.43,3-19.11,16.82-9.74,34.05-18.8,51.17-28C883.62,597.51,891.81,593.4,902.21,588Z" transform="translate(-141.39 -149.03)"/><path class="cls-1" d="M532.08,587.85c19,10,35.14,18.56,51.37,27,6.84,3.56,14,6.55,20.75,10.24,8.19,4.47,11.19,11.83,8.74,20.46-2.32,8.2-8.92,14.21-17.34,12.19A166.52,166.52,0,0,1,561,644.63c-26.69-13.27-52.76-27.71-79.44-41-7.37-3.66-12-8.74-10.36-15.91,1.28-5.47,5.52-12,10.38-14.67,31.94-17.42,64.38-34,96.75-50.63a41.88,41.88,0,0,1,12.43-4.29c10.82-1.7,19.63,3.3,22.34,12,2.92,9.36-2,17.76-12.24,22.86C578.8,563.9,556.94,575.21,532.08,587.85Z" transform="translate(-141.39 -149.03)"/><path class="cls-1" d="M741.11,517.19c4,2.75,12.3,5.69,15.4,11.36,2.71,5,.16,13.09-1.17,19.6-.82,4-4.14,7.41-5.63,11.34-8.83,23.33-17.33,46.79-26.23,70.1a159.86,159.86,0,0,1-9.19,19.35c-5,9.18-15.29,11.86-27.2,7.55-8.73-3.15-13.76-11.71-10.19-21.29,8.66-23.21,18.56-46,27.59-69.06,4.25-10.85,7.74-22,11.45-33C719.41,522.81,727.34,518.8,741.11,517.19Z" transform="translate(-141.39 -149.03)"/></svg>