<svg id="Capa_5" data-name="Capa 5" xmlns="http://www.w3.org/2000/svg" viewBox="0 0 992.68 903.12"><path id="Icon_simple-adobexd" data-name="Icon simple-adobexd" d="M1029.2,123.88H388.12c-98.26,1.07-177,74.41-175.79,163.8V863c-1.32,89.4,77.27,162.83,175.53,164H1029.2c98.26-1.07,177-74.4,175.79-163.8V287.91c1.31-89.39-77.28-162.83-175.54-164Zm134,724.07c.26,37-15.38,72.62-43.6,99.25-27.8,26.26-66.11,41.13-106.17,41.23H403.83c-83.91-1.11-151-63.74-150.13-140.09V302.54c-.88-76.33,66.24-139,150.13-140.06h609.25c83.95,1,151.15,63.68,150.13,140.06ZM604.85,546.5,720.66,754.1c2.07,3.09.86,6.18-2.49,6.18h-72a8.18,8.18,0,0,1-8.68-5c-26.48-51-53.36-101.89-81.07-156.7h-.86c-24.82,51.72-52.12,106.14-78.55,157.07a8,8,0,0,1-7.45,4.24H401.37c-4.13,0-4.55-3.08-2.48-5.4L512.2,553.06,402.58,349.28c-2.49-3.09,0-5.4,2.49-5.4h71.14a6.56,6.56,0,0,1,7.45,4.24c26.06,50.95,52.52,103.44,77.34,154.77h.86c24-50.95,50.46-103.82,76.11-154.38,2.07-3.09,3.3-5,7.44-5H712c3.31,0,4.55,2.32,2.49,5.4Zm136.08,62.91c0-89.93,64.1-160.21,165.86-160.21a195.49,195.49,0,0,1,21.51.79V347.73a4,4,0,0,1,4.13-3.85h65.35c3.31,0,4.14,1.15,4.14,3.08v354.3a255.86,255.86,0,0,0,2.07,37.82c0,2.32-.87,3.09-3.31,4.25A261.24,261.24,0,0,1,894.8,765.71c-89.77.39-153.88-51.33-153.88-156.3Zm187.36-98.8a66.53,66.53,0,0,0-24-3.86c-52.11,0-88.51,37.44-88.51,99.57,0,71,37.23,99.57,84,99.57a83.21,83.21,0,0,0,28.54-4.25Z" transform="translate(-212.32 -123.88)"/></svg>