<svg id="Capa_2" data-name="Capa 2" xmlns="http://www.w3.org/2000/svg" viewBox="0 0 531.96 191.11"><defs><style>.cls-1{fill:#69a3c9;}.cls-2{fill:#574838;}.cls-3{fill:#584939;}.cls-4{fill:#5c4d3d;}</style></defs><path class="cls-1" d="M465.09,277.11H444.76c-3.47,0-6.95,0-10.42,0a2,2,0,0,1-1.73-.88c-1.37-1.62-2.48-3.44-4.29-4.75a20.31,20.31,0,0,1-3.7-4.17c-1.35-1.73-1.71-1.86-3.85-1.33a75.24,75.24,0,0,1-7.56,1.6c-1.74.24-3.54.39-5.27.65a25,25,0,0,1-6.5.27,76.23,76.23,0,0,1-9.33-1.17c-2.12-.51-4.26-1-6.38-1.58a58.71,58.71,0,0,1-13.08-5.69c-1.61-.88-3-2.23-4.55-3.09-3.86-2.1-6.08-6-9.55-8.44a11.39,11.39,0,0,1-3-4c-1.27-2.41-3.21-4.47-3.86-7.2-1.61-1.23-1.77-3.17-2.46-4.87a31.23,31.23,0,0,1-1.59-5.18c-.3-1.4-.49-2.87-.74-4.29-.65-3.66-.31-7.32-.38-11-.08-3.86,1-7.54,1.95-11.23a42.45,42.45,0,0,1,1.86-5.32c.23-.55.09-1.45,1.07-1.61.24,0,.42-.59.57-.93a54.31,54.31,0,0,1,5.9-9.49c.09-.13.13-.34.24-.38,1.58-.58,2.13-2.17,3.21-3.23a36.42,36.42,0,0,1,3.2-3.14,82.9,82.9,0,0,1,9-6.33,51.12,51.12,0,0,1,7.59-3.59,49.14,49.14,0,0,1,7.95-2.51c2.4-.41,4.84-.83,7.26-1.19a74,74,0,0,1,12.88-.27A48.65,48.65,0,0,1,420,164.62a57.72,57.72,0,0,1,11.41,4.31,53.77,53.77,0,0,1,8.54,5.25,62.24,62.24,0,0,1,5.55,4.53,50.59,50.59,0,0,1,5.08,6c.76,1,1.54,2,2.38,2.92a17.89,17.89,0,0,1,2.77,4.72,67.21,67.21,0,0,1,3.16,8c.2.72,0,1.54.56,2.21.25.29.13.89.19,1.35s1,.24.9.87c-.22,1.5.38,2.9.57,4.34a63.79,63.79,0,0,1,.4,8.62c0,2.77-.71,5.47-.95,8.23-1.33,1.11-1.1,2.79-1.58,4.22s-1.06,3-1.58,4.47a46.14,46.14,0,0,1-3.45,7.15c-.74,1.35-2,2.21-2.83,3.46a70.65,70.65,0,0,1-5.65,7c-.46.53-1.41.34-1.5,1.29s.93.86,1.34,1.37c2.06,2.6,4.23,5.12,6.3,7.71.51.64,1.32.76,1.83,1.37,1.24,1.5,2.61,2.89,3.76,4.45a18,18,0,0,0,1.17,1.42c1.09,1.17,2.25,2.27,3.41,3.37S463.58,275.82,465.09,277.11ZM403.83,243.6a65.09,65.09,0,0,0-7.56-8.26,4.67,4.67,0,0,1-1-1c-1.12-2-3.21-3.15-4.32-5.14a1.47,1.47,0,0,0-1.1-.8c-.25,0-.5-.37-.68-.61a.45.45,0,0,1,.22-.74,2,2,0,0,1,.7,0H418.5c.38,0,.93-.1,1.12.11.9,1,2.38,1.34,3,2.52a12.57,12.57,0,0,0,2.29,2.62c.55.62,1,.53,1.45-.23.55-1,1-2,1.54-3.05.24-.47.34-1.2.71-1.38.92-.44.91-1.26,1.21-2A23.25,23.25,0,0,0,430.9,221c.65-3.58.23-7.17.24-10.75-.83-.73-.23-1.78-.62-2.66a31.27,31.27,0,0,0-2.32-5.17c-2.34-3.45-4-7.41-8.05-9.39a23.08,23.08,0,0,0-15.25-5.24,28.69,28.69,0,0,0-6.26.36,27,27,0,0,0-3.58.7c-3.86,1.46-7.6,3.19-10.45,6.43-2.05,2.32-4.22,4.49-5.56,7.39a34.81,34.81,0,0,0-2.69,11.68,33.67,33.67,0,0,0,.84,8.46A22.37,22.37,0,0,0,382,233.45c.81,1,1.87,1.77,2.74,2.7a21.57,21.57,0,0,0,6.66,4.84C395.3,242.85,399.36,243.4,403.83,243.6Z" transform="translate(-175.67 -162.63)"/><path class="cls-1" d="M532.59,189.14H508.42V164.68h77.9v24.37c-2.55.24-5.21.07-7.86.1s-5.36,0-8,0h-8.11v77H532.59Z" transform="translate(-175.67 -162.63)"/><path class="cls-1" d="M501.71,266.18H472.17c-.48-.4-.23-1-.23-1.5q0-48.92,0-97.81c0-.23,0-.47,0-.71.05-1.23.31-1.51,1.47-1.57h26.24a5.16,5.16,0,0,1,1.18,0,1.11,1.11,0,0,1,.88,1,13.45,13.45,0,0,1,0,1.42v99.19Z" transform="translate(-175.67 -162.63)"/><path class="cls-1" d="M306.8,266.12V164.59h26.26a11.35,11.35,0,0,1,1.65,0,1.6,1.6,0,0,1,1.35,1.73c0,1.1,0,2.21,0,3.31v96.48Z" transform="translate(-175.67 -162.63)"/><path class="cls-2" d="M255.39,344.84a2.65,2.65,0,0,0,.3-1.94c0-3.55,0-7.09,0-10.63,0-1.41.22-1.62,1.58-1.65.94,0,1.89,0,2.83,0a1,1,0,0,1,1.14,1.16c0,.4,0,.79,0,1.19v17.95c0,.31,0,.63,0,.94-.06,1-.33,1.24-1.24,1.3a15.12,15.12,0,0,0-1.65,0,3.58,3.58,0,0,1-3.78-1.75,34,34,0,0,0-3.79-5c-1.47-1.39-2.59-3-3.89-4.5-.91-1.06-1.64-2.22-2.46-3.35-.46.56-.23,1.22-.24,1.82,0,3.7,0,7.4,0,11.1,0,1.41-.22,1.62-1.58,1.65-.86,0-1.73,0-2.6,0-1.06,0-1.33-.3-1.34-1.4q0-9.81,0-19.61c0-1.22.29-1.48,1.47-1.52,4.09-.15,4.08-.14,6.47,3.18a34,34,0,0,0,3.71,4.35,50.44,50.44,0,0,1,4.47,5.92C255,344.33,255.17,344.57,255.39,344.84Z" transform="translate(-175.67 -162.63)"/><path class="cls-2" d="M431.2,337.87v15.29c-1.31,0-2.48,0-3.64,0s-1.52-.26-1.53-1.46c0-2.13,0-4.25,0-6.38V332.55c0-1.87.09-1.75,2-2,2.66-.3,4.27.77,5.67,3a33.29,33.29,0,0,0,3.94,4.76,35.37,35.37,0,0,1,5.15,6.89c.52-.58.27-1.23.28-1.82,0-3.23,0-6.46,0-9.68s-.36-3.15,3.22-3.1h1.19a1.06,1.06,0,0,1,1.15,1.15c0,.31,0,.63,0,.94v18.43a7.53,7.53,0,0,1,0,.95,1.05,1.05,0,0,1-1.2,1.08h-.24c-1.32,0-2.84.32-3.92-.21s-1.76-1.91-2.56-3c-1.08-1.42-1.89-3.11-3.2-4.26a37.16,37.16,0,0,1-4.19-4.87C432.66,340,432.08,339.11,431.2,337.87Z" transform="translate(-175.67 -162.63)"/><path class="cls-2" d="M392.55,319.06c-1.6,0-3,.14-4.36,0a1.68,1.68,0,0,1-1.49-.93c-.15-.34-.52-.58-.72-.91a1.94,1.94,0,0,0-2.45-.85,10.34,10.34,0,0,1-3.69.42c-4.58-.09-8.28-1.89-10.6-5.93a11.09,11.09,0,0,1-1.08-8.49,12,12,0,0,1,4.13-6.29,10.67,10.67,0,0,1,4.37-1.92c4.78-1.3,8.85,0,12.65,3.18s4.81,9.35,1.61,14.43c-.44.7-1.29.79-1.81,1.39-.73.85-.78,1.14,0,2a3.31,3.31,0,0,0,.87.74A5.7,5.7,0,0,1,392.55,319.06Zm-7.28-8.59a7.92,7.92,0,0,0,0-10.46c-1.76-1.89-6-2.62-8.69-.86-4,2.65-4.21,5.16-3.12,8.84a6.64,6.64,0,0,0,7.7,4.26c-.39-1.39-1.63-2.18-2.55-3.5C381,309.08,383.51,307.81,385.27,310.47Z" transform="translate(-175.67 -162.63)"/><path class="cls-3" d="M437.4,316.3h-5.1V294.15c1.57,0,3.19,0,4.82,0,.67,0,1,.48,1.3.89,1.68,2.14,3.32,4.3,5,6.44,1.3,1.68,2.88,3.13,4.11,4.88.45.65.65,1.59,1.68,2V294.15c1.43,0,2.74,0,4.06,0s1.5.24,1.53,1.47c0,1.41,0,2.83,0,4.25,0,4.8,0,9.6,0,14.41,0,2-.07,1.87-1.89,2.08a5.49,5.49,0,0,1-5.83-2.77c-2.34-3.51-5.59-6.34-8-9.87a26.07,26.07,0,0,0-1.7-2.65Z" transform="translate(-175.67 -162.63)"/><path class="cls-3" d="M515.49,308.28c0-3.86,0-7.72,0-11.57a13.45,13.45,0,0,1,0-1.42c.06-.68.36-1.16,1.16-1.14,1.25,0,2.49,0,3.83,0v22.19c-1.44,0-2.84,0-4.24,0a2.36,2.36,0,0,1-1.85-1.09c-1.9-2.55-4.07-4.92-5.83-7.57-1-1.44-2.59-2.13-3.43-3.67-.34-.61-.56-1.5-1.42-1.79-.41.55-.2,1.2-.2,1.8,0,3.54,0,7.09,0,10.63,0,1.53-.18,1.68-1.77,1.71-.87,0-1.74,0-2.6,0s-1.08-.47-1.16-1.15c0-.23,0-.47,0-.71q0-9.21,0-18.42c0-1.78.11-1.88,1.81-1.91h.47c1.17,0,2.5-.26,3.47.2s1.17,1.81,2,2.51c2,1.82,3.48,4.09,5.18,6.17a44.26,44.26,0,0,1,3.57,4.86c.28.47.59.41.95.46l.23.85c.08-.09.21-.17.24-.28C516,308.6,515.88,308.34,515.49,308.28Z" transform="translate(-175.67 -162.63)"/><path class="cls-2" d="M283.16,345.09v-4.42c0-2.83,0-5.67,0-8.5,0-1.25.27-1.55,1.44-1.54,3.9,0,3.62-.57,3.61,3.39,0,5.75,0,11.49,0,17.24,0,1.76-.12,1.87-1.79,1.9a15.31,15.31,0,0,0-1.66,0,2.2,2.2,0,0,1-1.85-.76,47.85,47.85,0,0,1-5.1-5.91,49.74,49.74,0,0,0-5.59-6.71c-.17-.15-.31-.34-.59-.29s-.44.37-.44.69q0,5.08,0,10.15c0,.56,0,1.11,0,1.66a1,1,0,0,1-1.13,1.16c-.94,0-1.89,0-2.83,0a1.05,1.05,0,0,1-1.12-1.18c0-.4,0-.79,0-1.18V332.85c0-.31,0-.63,0-.94.07-1,.34-1.24,1.25-1.29.47,0,1,0,1.42,0,1.55-.14,3-.06,3.6,1.75,3.17,2.66,5.12,6.31,7.65,9.49a2.24,2.24,0,0,0,.64.69,3.46,3.46,0,0,1,2,2.63ZM271,337.71a1,1,0,0,0-.13.18,1.1,1.1,0,0,0,.08,1,.24.24,0,0,0,.14.06c.37-.28.19-.66.16-1C271.22,337.88,271.07,337.8,271,337.71Z" transform="translate(-175.67 -162.63)"/><path class="cls-3" d="M197.59,294.15c1.3,0,2.48,0,3.65,0a3.7,3.7,0,0,1,3.25,1.83q2.77,3.75,5.65,7.42c.65.83,1.56,1.45,2.22,2.26s1.18,1.79,2,3.11c.18-2,.08-3.53.1-5.05s0-3.15,0-4.72v-4.84c1.56,0,3,0,4.37,0,.79,0,1.1.43,1.19,1.12a5.45,5.45,0,0,1,0,.7q0,9.22,0,18.44a4.22,4.22,0,0,1,0,.94c-.13.55-.38,1-1.08,1a16.1,16.1,0,0,0-2.6,0,3,3,0,0,1-3-1.39c-3.21-4.22-6.92-8.05-9.86-12.49-.3-.44-1-.61-1.3-1.73v15.46h-4.63Zm17.31,15-.21-.38a1,1,0,0,0-.21.38c0,.19,0,.44.28.39C214.83,309.56,214.86,309.32,214.9,309.18Z" transform="translate(-175.67 -162.63)"/><path class="cls-3" d="M640,316.3h-5c-.36-2-.47-15.76-.17-22.15,1.61,0,3.23,0,4.86,0,.68,0,1,.49,1.3.9,1.68,2.13,3.33,4.3,5,6.45,1.31,1.68,2.9,3.11,4.12,4.88.42.62.65,1.44,1.36,1.86.1-.31-.08.18.18,0a.28.28,0,0,0,.13-.19c0-4.55,0-9.11,0-13.77h5.08v22.07c-1.39,0-2.79,0-4.18,0a1.35,1.35,0,0,1-1.22-.55c-.59-.73-1.14-1.48-1.73-2.2-2.25-2.72-4.81-5.19-6.75-8.17-.92-1.4-2.22-2.55-3-4.15Z" transform="translate(-175.67 -162.63)"/><path class="cls-2" d="M574.51,352.64c-.16.09-.23.15-.29.15-1.58,0-3.25.28-4.7-.16s-2-2.23-2.94-3.42c-1.6-2-2.92-4.3-4.77-6a39.76,39.76,0,0,1-4.09-5.07,25.81,25.81,0,0,0-.16,4.8c0,1.57,0,3.15,0,4.72v5.05h-5.06V331.26a34.61,34.61,0,0,1,5-.3c.53.09.79.5,1.08.85a23,23,0,0,0,2.31,2.92c2.85,2.56,4.69,5.9,7.1,8.79.5.59.56,2,1.63,1.6.65-.24.25-1.43.25-2.18,0-3.93,0-7.85,0-11.87h4.62Z" transform="translate(-175.67 -162.63)"/><path class="cls-2" d="M317.17,341.48c0,3.9-1.2,6.87-3.85,9.07a14.53,14.53,0,0,1-5.51,2.68c-3.76,1-7,0-10.36-1.84a10.7,10.7,0,0,1-5.29-10.93c.55-2.9,1.53-5.57,4.39-7.21a22.6,22.6,0,0,1,4.22-2.3,13.56,13.56,0,0,1,8.52.19,11.8,11.8,0,0,1,3.26,1.7A10.26,10.26,0,0,1,317.17,341.48ZM304.64,349a5.92,5.92,0,0,0,5.94-3.13,7.68,7.68,0,0,0,.65-6.3,6.37,6.37,0,0,0-3.9-4.35,6.87,6.87,0,0,0-9.43,4.86C296.81,344.35,299.61,349.46,304.64,349Z" transform="translate(-175.67 -162.63)"/><path class="cls-3" d="M578.83,341.79c.1-4,1.63-7.24,5.08-9.33a15.6,15.6,0,0,1,5.36-2,14.61,14.61,0,0,1,5.6.32c1.94.4,3.39,1.7,5,2.86a9.76,9.76,0,0,1,4,9.26c-.26,3-1.22,5.85-4.18,7.44-.76.41-1.3,1.07-2,1.52a12,12,0,0,1-9.79,1.27c-3-.85-5.71-2.3-7.37-5.19A11.24,11.24,0,0,1,578.83,341.79ZM591.38,349a4.92,4.92,0,0,0,3.38-.63,9,9,0,0,0,3.17-4.2c1.1-3.24-.42-7.83-4.31-9.08a7.41,7.41,0,0,0-5,.14c-1.74.66-2.57,2.37-4,3.34-.64,2.69-1.35,5.31.92,7.75C587.13,348.1,588.91,349.23,591.38,349Z" transform="translate(-175.67 -162.63)"/><path class="cls-2" d="M599.55,316.82c-3.27.36-6.14-1.1-8.62-3.05a10.17,10.17,0,0,1-3.57-6.56,12.35,12.35,0,0,1,.47-5.57,9.77,9.77,0,0,1,4.28-5.66,13.87,13.87,0,0,1,6.19-2.26,12.46,12.46,0,0,1,9.12,2.6,12.93,12.93,0,0,1,3,2.71,11,11,0,0,1-1.14,14C607.53,314.83,603.67,317.32,599.55,316.82Zm-.86-4.28c3.51.11,6.27-1.3,7.49-4.28,1.74-4.28-.36-9.91-6.67-10.29-2.55-.15-5.7,2.32-6.43,4.88-.14.47.12,1-.64,1.31s-.2,1.28-.26,2c1.28.37.89,1.65,1.24,2.48A6.34,6.34,0,0,0,598.69,312.54Z" transform="translate(-175.67 -162.63)"/><path class="cls-2" d="M621.48,341.53c-.19-1.73.58-3.39,1.31-5.12.44-1.06,1.42-1.33,2.07-2a10.6,10.6,0,0,1,7.85-3.87c2.86,0,5,0,7.31,1.07a11.62,11.62,0,0,1,3.91,17.74,10.87,10.87,0,0,1-6.65,3.9c-5.16,1-9.56,0-13-4.3C622,346.08,621.47,345.25,621.48,341.53ZM634.23,349c2.3.61,3.94-1.13,5.57-2.54a5.33,5.33,0,0,0,1.58-4.21,7.31,7.31,0,0,0-7.08-7.48,6.84,6.84,0,0,0-7.23,7C626.94,346.14,629.85,349.34,634.23,349Z" transform="translate(-175.67 -162.63)"/><path class="cls-2" d="M409.47,353.67c-4.52-.43-8.33-2-10.74-6.19a15.77,15.77,0,0,1-1.68-3.54,7.51,7.51,0,0,1,.65-6c1.87-3.22,4.13-6.19,8.25-7a10,10,0,0,0,3.35-.75c.68-.4,1.43.33,2.21.41a11.28,11.28,0,0,1,8.77,5.33c1.51,2.4,2.43,3.71,2.26,5.66-.17,1.76-.07,3.65-1.55,5.25-.9,1-1.53,2.28-2.5,3.3a9.72,9.72,0,0,1-4.72,2.81A11.86,11.86,0,0,1,409.47,353.67Zm.32-4.65a6.21,6.21,0,0,0,4.1-1,7.17,7.17,0,0,0,3.06-6,7.08,7.08,0,0,0-5.66-7.18A7.3,7.3,0,0,0,402.94,345,6.89,6.89,0,0,0,409.79,349Z" transform="translate(-175.67 -162.63)"/><path class="cls-2" d="M342.37,316.8a12,12,0,0,1-7.92-2.29,10.58,10.58,0,0,1-4.58-7.15,12.52,12.52,0,0,1,.48-5.56,9.21,9.21,0,0,1,4.36-5.85,13.44,13.44,0,0,1,8.08-2.27,14.09,14.09,0,0,1,7.59,3,10.7,10.7,0,0,1,3.76,4.79c1.52,3.89.59,8.81-2.17,11.32S346.23,317.32,342.37,316.8Zm-.16-4.23a6.79,6.79,0,0,0,7.05-7.25c-.08-4.68-2.76-7.11-7.23-7.29-3.83-.15-7.37,4.2-7.35,7.41C334.69,308.24,338.35,313,342.21,312.57Z" transform="translate(-175.67 -162.63)"/><path class="cls-2" d="M661.77,345.2c0-1,0-1.75,0-2.52,0-1.41.22-1.65,1.56-1.65,3.15,0,6.29,0,9.59,0,.29,2.92.29,5.67-1.64,8.16a11.65,11.65,0,0,1-11.67,4.16,18.71,18.71,0,0,1-3.51-1.07c-4.17-1.88-6.15-5.19-6.22-9.67a14.91,14.91,0,0,1,.36-4.39,10.47,10.47,0,0,1,4.4-5.85,11.22,11.22,0,0,1,4.66-1.78,19.31,19.31,0,0,1,5.68,0,11.62,11.62,0,0,1,3.37,1.45c1.1.54,1.83,1.62,2.93,2.24.74.41.52,1.12-.4,1.47a3.21,3.21,0,0,0-.82.38c-1.68,1.2-1.74,1.26-3.44-.06-2.47-1.91-5.11-1.71-7.7-.59a5.6,5.6,0,0,0-3.44,5.37c-.05,1.87-.17,3.74,1,5.4a6,6,0,0,0,4.84,2.8,20.56,20.56,0,0,0,2.83,0,4.06,4.06,0,0,0,3.28-2.59c.19-.86,0-1.18-.87-1.19C665,345.18,663.43,345.2,661.77,345.2Z" transform="translate(-175.67 -162.63)"/><path class="cls-2" d="M175.67,352.75V331.11a12.31,12.31,0,0,1,3.21-.13c2.12,0,4.25,0,6.37.06a10.41,10.41,0,0,1,7.21,2.68c.56.54,1,1.16,1.49,1.71s.54,1.55,1.44,1.94a1.37,1.37,0,0,1,.48,1c.15,2.49.51,5-.23,7.44a19.67,19.67,0,0,1-3.59,4.86,9.77,9.77,0,0,1-5.75,2.09C182.84,352.71,179.38,352.75,175.67,352.75Zm5.26-3.88a21.29,21.29,0,0,0,6.2-.74,4,4,0,0,0,3.09-2.81,9.29,9.29,0,0,0,.05-6.59,4.52,4.52,0,0,0-2.93-3c-2.14-.67-4.26-.42-6.41-.5Z" transform="translate(-175.67 -162.63)"/><path class="cls-3" d="M417,294.15c0,5.16,0,10,0,14.91a9.48,9.48,0,0,1-1.71,4.94c-.9,1.45-2.58,1.63-3.93,2.29a5.9,5.9,0,0,1-3.18.54c-1.85-.19-3.69.16-5.58-.34a10.09,10.09,0,0,1-5-3.39c-1.1-1.25-1.29-3.11-1.32-4.78-.09-4.63,0-9.27,0-14.14,1.81-.06,3.58,0,5.32,0,.48.64.26,1.29.27,1.89,0,3.85,0,7.71,0,11.56a5.72,5.72,0,0,0,.78,3.09c1,1.65,3.6,2.24,5.42,1.71a4.09,4.09,0,0,0,3.35-4.13c.05-3.86,0-7.71,0-11.57,0-.47,0-.94,0-1.41.06-.69.36-1.16,1.16-1.14C414,294.17,415.38,294.15,417,294.15Z" transform="translate(-175.67 -162.63)"/><path class="cls-4" d="M548.74,294.18c3.1,0,6.09-.07,9.07,0a11.48,11.48,0,0,1,4.57,1.41,4.62,4.62,0,0,1,2.21,3.4c.71,3.32-.8,5.83-4,7a6.84,6.84,0,0,0-.94.51c.58,1.86,2.3,2.91,3.18,4.6s2.07,3.18,3,5.17c-1.94,0-3.66,0-5.37,0-.56,0-.76-.23-1-.71-1.18-2.15-2.43-4.27-3.67-6.39-.38-.64-.49-1.48-1.4-1.9v8.86h-5.55Zm5.63,3.93v5.5c1.19-.13,2.27.17,3.32-.35s1.88-1.54,1.7-2.45-.54-2.15-1.76-2.4C556.6,298.2,555.59,297.62,554.37,298.11Z" transform="translate(-175.67 -162.63)"/><path class="cls-2" d="M573.67,307v9.34H569.1c-.68,0-.94-.47-1.05-1a5.91,5.91,0,0,1,0-.94v-18.2c0-.24,0-.47,0-.71.06-.95.34-1.29,1.23-1.3,2.92,0,5.84-.08,8.75.08a8.07,8.07,0,0,1,4.21,1.69,4.2,4.2,0,0,1,1.59,2.5c.63,2.62.24,6-3,7.51-1.3.61-1.29.69-.62,1.82,1.41,2.39,2.88,4.74,4.25,7.15.23.41.61.4.84.67s.15.71-.18.72c-1.73.06-3.47,0-5.2,0-.39,0-.48-.26-.63-.56C577.76,312.68,575.17,310.23,573.67,307Zm.07-3.47c1,0,1.9,0,2.75,0a3.17,3.17,0,0,0,2.26-1c1.08-1.15.57-3.9-.87-4.07s-2.65-.91-4.14-.37Z" transform="translate(-175.67 -162.63)"/><path class="cls-3" d="M700.21,348.46c-2.51,0-5,0-7.54,0-.89,0-1.46.2-1.67,1.19-.17.82-.6,1.57-.82,2.38a1.32,1.32,0,0,1-1.48,1.15c-1.17,0-2.36,0-3.54,0-.68,0-.78-.35-.74-.87a28.34,28.34,0,0,1,2.15-4.81,31.83,31.83,0,0,0,1.61-3.8c1.45-3.86,2.87-7.72,4.3-11.59a1.89,1.89,0,0,1,2-1.5,19.1,19.1,0,0,0,2.83,0,2,2,0,0,1,2.16,1.38c.48,1.2,1,2.39,1.39,3.63.53,1.72,1.92,3,2.41,4.73s1.24,3.6,1.91,5.39,1.33,3.42,2.06,5.1a3.62,3.62,0,0,1,.31,1.1c.12,1.08,0,1.21-1.07,1.23-.87,0-1.74-.07-2.6,0a2.39,2.39,0,0,1-2.54-1.66C701,350.54,700.62,349.53,700.21,348.46Zm-7.43-4.27h5.88a5.15,5.15,0,0,0-.09-1.25c-.8-2.39-1.65-4.76-2.63-7.58C695.61,338.8,694.11,341.38,692.78,344.19Z" transform="translate(-175.67 -162.63)"/><path class="cls-3" d="M346.25,348.46a35.82,35.82,0,0,0-1.15,3.46,1.34,1.34,0,0,1-1.61,1.25q-1.65-.07-3.3,0c-.65,0-.87-.28-.83-.82a4.33,4.33,0,0,1,.24-1.36c1.07-2.62,1.91-5.35,3.18-7.87a55.94,55.94,0,0,0,2.46-5.68c.71-1.93,1.61-3.8,2.22-5.78A1.3,1.3,0,0,1,349,330.6a11.8,11.8,0,0,0,2.59,0c1.73-.28,2.49.53,3,2.08,1,2.81,2.26,5.51,3.16,8.34.34,1.05,1.14,1.68,1.51,2.63,1,2.64,2.1,5.26,3.14,7.89a2.72,2.72,0,0,1,.18.9c0,.42-.12.74-.66.73-1.42,0-2.84,0-4.25,0a1.19,1.19,0,0,1-1.22-.88c-.32-.78-.64-1.56-.93-2.34-.54-1.46-.53-1.48-1.86-1.49Zm4.29-12.75c-.85,2.55-1.64,4.87-2.41,7.19-.42,1.26-.35,1.36.87,1.4h1.19c3.88,0,3.81,0,2.43-3.62C352,339,351,337.57,350.54,335.71Z" transform="translate(-175.67 -162.63)"/><path class="cls-2" d="M308.61,294.26c0,5.24.06,10.35,0,15.46,0,3.16-1.75,5.08-4.89,6.27s-6.2,1-9.39.43a6.63,6.63,0,0,1-4.31-2.95,7.57,7.57,0,0,1-1.82-4.91c.19-4.71.06-9.44.06-14.28h5.07c.42.41.16,1.08.17,1.67,0,3.78,0,7.56,0,11.35A6.17,6.17,0,0,0,294,310a3.18,3.18,0,0,0,2.51,2.14c1.22.19,2.36.62,3.64.21,2.29-.71,3-2.46,3.27-4.56a24.27,24.27,0,0,0,0-2.83c0-3.54,0-7.07,0-10.72Z" transform="translate(-175.67 -162.63)"/><path class="cls-2" d="M546.54,316.34c-1.67,0-3.38,0-5.09,0-.56,0-.91-.15-1-.74,0-.07-.08-.13-.11-.2-.53-1.25-1.05-2.51-1.57-3.76l-4.25,0h-4.7c-.41,1.24-.87,2.37-1.15,3.54-.23,1-.77,1.21-1.67,1.18-1.25-.05-2.5,0-4,0a77.25,77.25,0,0,1,2.77-7.51c1-2.49,2.06-5,2.79-7.5s2.75-4.47,3.11-7.18c1.21,0,2.31,0,3.4,0,.81.05,1.93-.47,2.34.53.3.77,1,1.12,1.31,1.95,2,5.51,4.33,10.92,6.42,16.41C545.59,314.13,546.79,314.82,546.54,316.34Zm-9.25-8.58c-.78-2.27-1.46-4.43-2.27-6.54-.18-.45.16-1.32-.56-1.34s-.4.82-.57,1.27a5.67,5.67,0,0,0-.39.83c-.45,2-1.58,3.71-1.84,5.78Z" transform="translate(-175.67 -162.63)"/><path class="cls-2" d="M481.32,294.15c1.68,0,3.49,0,5.29,0,.53,0,.73.18.93.75,1,2.65,2,5.31,3.13,7.88.92,2,1.95,4,2.74,6.06a63.73,63.73,0,0,0,2.52,6.39,2.22,2.22,0,0,1,.08.85c-.54.47-1.11.24-1.63.24-1.41,0-2.81-.05-4.22-.08a15.75,15.75,0,0,1-1.39-3.62,1.35,1.35,0,0,0-1.53-1c-2.51.06-5,0-7.55,0-.41,1.23-.88,2.36-1.15,3.54-.22,1-.77,1.21-1.67,1.18-1.41-.05-2.82,0-4.25,0-.52-.81.65-1.3.29-2,1.09-1.78,1.27-4,2.36-5.71,2.58-4.16,3.43-9,5.57-13.33C481,295,480.81,294.5,481.32,294.15Zm3.17,5.28a6.62,6.62,0,0,0-1.74,3.16c-.46,1.73-1.14,3.41-1.77,5.25,1.77,0,3.41,0,5.06,0,1.09,0,1.19-.18.85-1.24C486.12,304.21,484.94,302,484.49,299.43Z" transform="translate(-175.67 -162.63)"/><path class="cls-3" d="M214,335.24h-8.42v3.89h6.55c1.76,0,1.84.11,1.87,1.84,0,2.73,0,2.73-2.64,2.73h-5.19c-.15,0-.3.05-.65.1-.16,1.49,0,3-.08,4.78h6.67c1.77,0,1.86.11,1.89,1.82,0,2.75,0,2.75-2.61,2.75-3.23,0-6.46,0-9.68,0-1.76,0-1.86-.1-1.87-1.84q0-9.44,0-18.87c0-1.62.17-1.81,1.66-1.82h10.86c1.4,0,1.61.23,1.64,1.6C214,333.15,214,334.08,214,335.24Z" transform="translate(-175.67 -162.63)"/><path class="cls-2" d="M524.86,335.28H516v3.85h6.9c1.78,0,1.93.13,1.93,1.79,0,2.48.51,2.9-2.82,2.79-1.81-.06-3.62,0-5.43,0a5.2,5.2,0,0,0-.57.09v4.79h7c1.62,0,1.79.15,1.78,1.69,0,2.43.65,3-2.73,2.9-3.7-.09-7.4,0-11.1,0-.41-1.72-.56-17.27-.2-22.54h12.43c1.37,0,1.57.23,1.6,1.63C524.88,333.19,524.86,334.12,524.86,335.28Z" transform="translate(-175.67 -162.63)"/><path class="cls-4" d="M629.92,312v4.17h-14V294.26h13.93v4.09h-8.34v4.19h8.23a21.41,21.41,0,0,1,.22,4.27c-2.81.17-5.62,0-8.48.11V312Z" transform="translate(-175.67 -162.63)"/><path class="cls-4" d="M694.33,306.85h-8.91V312c2.85.28,5.82,0,8.83.17V316c-1.56.41-10.34.51-14,.15V294.24h14v4.09h-8.8v4.15c.51.41,1.24.15,1.92.17,2,0,4.09,0,6.14,0,.57,0,.87.14.85.79C694.3,304.54,694.33,305.63,694.33,306.85Z" transform="translate(-175.67 -162.63)"/><path class="cls-2" d="M383.83,336.73a12,12,0,0,1-2.9-1.33,9.06,9.06,0,0,0-7.8-.39,5.88,5.88,0,0,0-4,5.51c0,.94,0,1.89,0,2.83a5.77,5.77,0,0,0,5.78,5.69c.63,0,1.26,0,1.88,0a7.09,7.09,0,0,0,5-1.52c.24-.18.44-.43.81-.41s.8-.13.8.49c0,.39,0,.78,0,1.18,0,3.08,0,3.18-2.94,4.15A12.89,12.89,0,0,1,369,351.68c-1.31-.85-2.78-1.51-3.73-3a14.35,14.35,0,0,1-1.57-3.29,11.85,11.85,0,0,1,.72-8.47,6.68,6.68,0,0,1,2.73-3.29c1.17-.7,2.09-1.83,3.45-2.31a7.08,7.08,0,0,1,3.33-.77c.9.12,1.62-.52,2.49-.42a33.1,33.1,0,0,1,6.69,1.44,1.07,1.07,0,0,1,.74,1.09C383.81,334,383.83,335.29,383.83,336.73Z" transform="translate(-175.67 -162.63)"/><path class="cls-2" d="M548.12,336.79a9.22,9.22,0,0,0-3.39-1.85,9.73,9.73,0,0,0-6.79,0,6.45,6.45,0,0,0-4.06,5.25,19.67,19.67,0,0,0,0,3.07,5.72,5.72,0,0,0,5.69,5.8c2.84.14,5.6,0,8-1.87.46-.38,1,0,1,.74s0,1.26,0,1.89c0,1.7-.26,2.22-1.91,2.75a16.08,16.08,0,0,1-8.34.79,13.53,13.53,0,0,1-7.25-4.07,8.76,8.76,0,0,1-2.51-3.7c-1-3.37-.92-6.89,1.25-9.63s5-5.23,9.19-5.51a30.5,30.5,0,0,1,7.23.57,9.8,9.8,0,0,1,1.29.46,1.34,1.34,0,0,1,1.09,1.54c0,1.16,0,2.33,0,3.5Z" transform="translate(-175.67 -162.63)"/><path class="cls-2" d="M329.21,347.48c.86-4.57,2.52-8.45,3.73-12.48a19.72,19.72,0,0,1,.76-2.64c.67-1.5.78-1.72,2.29-1.74h2.84c1,0,1.25.35,1,1.27-.18.66-.47,1.29-.71,1.93-.86,2.29-1.73,4.57-2.57,6.86a5.18,5.18,0,0,1-1.28,2c-.53.5-.51,1.56-.8,2.34-.86,2.3-1.86,4.54-2.59,6.87a1.51,1.51,0,0,1-1.85,1.26,5.12,5.12,0,0,0-1.41,0c-1.72.31-2.47-.53-3-2.07-1.3-3.75-2.87-7.41-4.11-11.17-.78-2.35-2.41-4.3-2.94-6.74-.07-.36-.39-.63-.45-1.05-.18-1.27,0-1.51,1.26-1.52h2.36c1.72,0,2,.14,2.48,1.79a55.2,55.2,0,0,0,1.63,5.49c.69,1.61.5,3.64,2.14,4.83C328,344.28,328.87,345.6,329.21,347.48Z" transform="translate(-175.67 -162.63)"/><path class="cls-3" d="M238.35,296.84c-.49.38-.94.7-1.36,1.06s-1,1.1-1.59,1.36-.71-.72-1.38-.95a10.4,10.4,0,0,0-3.43-.46,2,2,0,0,0-1.83,1.27,1.81,1.81,0,0,0,.51,2.13,10.14,10.14,0,0,0,2.11,1.42c1.52.9,3.23,1.36,4.76,2.29a6.43,6.43,0,0,1-.12,10.78,7,7,0,0,1-3.28,1,14.25,14.25,0,0,1-6.7-.53,7.38,7.38,0,0,1-3.16-2.72c.77-.82,1.53-1.69,2.36-2.49.51-.49,1-.43,1.53.17,1.57,1.75,3.15,2.17,5.08,1.45a2.23,2.23,0,0,0,.85-3.89,5.09,5.09,0,0,0-1.92-1.29,33.57,33.57,0,0,1-4.65-2.51,5.3,5.3,0,0,1-2.71-5.55,5.4,5.4,0,0,1,3-4.32,10.5,10.5,0,0,1,8.72-.84A5.74,5.74,0,0,1,238.35,296.84Z" transform="translate(-175.67 -162.63)"/><path class="cls-3" d="M675.51,296.5l-3,2.82c-1.12-1.5-2.85-1.62-4.69-1.48a2,2,0,0,0-1.82,1.29,1.74,1.74,0,0,0,.53,2.11,14.55,14.55,0,0,0,4.42,2.38c2.26.92,4.2,2.2,4.94,4.81a6.3,6.3,0,0,1-3,7.45,6.76,6.76,0,0,1-3.53.93,20.64,20.64,0,0,1-4.87-.37,7.45,7.45,0,0,1-4.21-2.83c.34-1.1,1.53-1.65,2.09-2.67A1,1,0,0,1,664,311c.59,1.09,1.62,1.23,2.6,1.69,1.9.88,3-.56,4.39-1.17.55-.25.42-2-.15-2.27-1.09-.59-1.88-1.55-3.1-2a25.43,25.43,0,0,1-5.47-3.39c-1.67-1.16-2.33-4.45-1-6.65,1.2-2,3.24-2.77,5.28-3.26C669.82,293.17,673,293.55,675.51,296.5Z" transform="translate(-175.67 -162.63)"/><path class="cls-4" d="M470.57,338.83c1.36-2.48,2.57-4.62,3.69-6.8a2.25,2.25,0,0,1,2.38-1.43c1.18.09,2.37,0,3.55,0,.65,0,1,.56.57,1.09-2,2.61-3,5.82-5.5,8.11a18.21,18.21,0,0,0-1.67,2.48,2.79,2.79,0,0,0-.3,1.82c0,2.51,0,5,0,7.55,0,1.2-.3,1.46-1.52,1.49a25.05,25.05,0,0,1-2.6,0c-1-.09-1.46-.67-1.46-1.83q0-3.54,0-7.08a4.27,4.27,0,0,0-.79-2.59c-2.1-3.12-4-6.38-6-9.59a2.46,2.46,0,0,1-.36-.59c-.08-.39-.06-.85.48-.86,1.49,0,3,0,4.49,0,.36,0,.5.15.67.47C467.55,333.62,469.79,335.62,470.57,338.83Z" transform="translate(-175.67 -162.63)"/><path class="cls-4" d="M496.54,335.28h-5.49c-.43-1.49-.14-3-.19-4.55h16.93a37.8,37.8,0,0,1,0,4.42h-5.31c-.6.69-.35,1.34-.36,1.94,0,4.72,0,9.45,0,14.17,0,1.78-.11,1.88-1.82,1.9h-3.77c0-3,0-6,0-8.92S496.54,338.42,496.54,335.28Z" transform="translate(-175.67 -162.63)"/><path class="cls-4" d="M317.27,298.44h-5.61a18.48,18.48,0,0,1-.19-4.21H328.4v4.11h-5.52v18c-1.91.1-3.69,0-5.61,0Z" transform="translate(-175.67 -162.63)"/><path class="cls-4" d="M463.06,298.36h-5.72v-4.13h16.38v4.1h-5v18c-1.92.09-3.69,0-5.62,0Z" transform="translate(-175.67 -162.63)"/><path class="cls-4" d="M612.93,330.62v17.61c.49.58,1.08.33,1.59.34,1.65,0,3.31,0,5,0,1.13,0,1.45.27,1.45,1.3,0,3.31.46,3.33-3,3.28-3-.05-6,0-9,0-1.39,0-1.61-.22-1.61-1.61q0-9.68,0-19.34c0-1.37.22-1.56,1.65-1.58C610.21,330.6,611.46,330.62,612.93,330.62Z" transform="translate(-175.67 -162.63)"/><path class="cls-4" d="M279.77,298.37v17.78c-1.66.38-3.29.1-5.12.2-.16-2,0-3.91-.07-5.85s0-3.93,0-5.9v-6c-1.81-.38-3.69,0-5.6-.25v-4.06h16.34v4.12Z" transform="translate(-175.67 -162.63)"/><path class="cls-2" d="M246.61,298.39h-6v-4.12H257v4.07h-5.11v17.9h-5a.9.9,0,0,1-.18-.15.51.51,0,0,1,0-.22C246.61,310.14,246.61,304.4,246.61,298.39Z" transform="translate(-175.67 -162.63)"/><path class="cls-4" d="M387.77,330.61c1.56,0,3,0,4.36,0a1,1,0,0,1,1.17,1.13v.7q0,9.42,0,18.84c0,1.74-.13,1.85-1.84,1.87H388C387.59,351.19,387.47,337,387.77,330.61Z" transform="translate(-175.67 -162.63)"/><path class="cls-4" d="M260.51,294.21h5.41v22h-5.41Z" transform="translate(-175.67 -162.63)"/><path class="cls-2" d="M192.17,294.26v21.92c-1.64.35-3.32.07-5.08.18v-22.1Z" transform="translate(-175.67 -162.63)"/><path class="cls-2" d="M681.94,352.74h-5.05V331.13c1.58-.37,3.27,0,5.05-.2Z" transform="translate(-175.67 -162.63)"/><path class="cls-2" d="M422.33,294.21h4.31c.41,1.58.55,17.18.18,22h-4.49Z" transform="translate(-175.67 -162.63)"/><path class="cls-2" d="M233.34,352.73h-4.58V331.11a31.12,31.12,0,0,1,4.58-.15Z" transform="translate(-175.67 -162.63)"/><path class="cls-4" d="M678.31,329.1h-.87c-.54,0-.72-.32-.57-.74.2-.57.38-1.34.82-1.6a4.58,4.58,0,0,0,1.83-2.49,1.72,1.72,0,0,1,2.17-1.21c.73.13,1.73-.48,2.14.34s-.64,1.29-1.1,1.87c-.77,1-1.59,1.9-2.37,2.86C679.78,328.83,679.16,329.39,678.31,329.1Z" transform="translate(-175.67 -162.63)"/><path class="cls-4" d="M406.91,329a38.77,38.77,0,0,0,2.62-4.77,2,2,0,0,1,2.29-1.18c.88.16,1.88-.33,2.8.62-1.9,1.41-3.26,3.31-4.88,5C408.94,329.44,408.05,329,406.91,329Z" transform="translate(-175.67 -162.63)"/><path class="cls-1" d="M214.9,309.18c0,.14-.07.38-.14.39-.3.05-.31-.2-.28-.39a1,1,0,0,1,.21-.38Z" transform="translate(-175.67 -162.63)"/></svg>