<svg id="Capa_5" data-name="Capa 5" xmlns="http://www.w3.org/2000/svg" viewBox="0 0 1121.34 1027.4"><defs><style>.cls-1{fill:#707070;}</style></defs><path id="Icon_simple-adobeillustrator" data-name="Icon simple-adobeillustrator" class="cls-1" d="M0,0V1027.4H1121.36V0ZM46.75,43.91H1074.64V983.49H46.73ZM389,581.73,352,713.37c-.79,3.65-2.34,4.47-6.91,4.47H276.46c-4.67,0-5.37-1.45-4.67-6.49L404.48,274.72A127.28,127.28,0,0,0,409,238.14c0-2.89,1.54-4.39,3.9-4.39h97.91c3.08,0,4.67.79,5.42,4.39L665.1,712.07c.79,3.64,0,5.8-3.9,5.8H584.13c-3.9,0-6.16-.9-6.91-3.78L538.67,581.71H388.83ZM519.24,510.4C506.15,461.85,475.36,355.51,463.73,304h-.79c-10,51.37-34.67,138.31-54,206.37Zm210.25-244c0-24.17,21.39-43.77,47.78-43.77S825,242.2,825,266.37c2.12,22.85-16.37,42.95-41.3,44.89a49.28,49.28,0,0,1-7.29,0c-28,0-47.19-15.94-47.19-44.92Zm5.24,99.8c0-3.51,1.54-4.84,5.42-4.84H813.5c4.12,0,5.61,1.45,5.61,5.1V713.11c0,3.65-.75,5.1-5.37,5.1H741.32c-4.67,0-6.21-2.2-6.21-5.71V366.2Z" transform="translate(-0.02 0)"/></svg>