<svg id="Capa_5" data-name="Capa 5" xmlns="http://www.w3.org/2000/svg" viewBox="0 0 642.09 192.26"><defs><style>.cls-1{fill:#1e2a43;}.cls-2{fill:#fbfcfc;}.cls-3{fill:#91cadd;}.cls-4{fill:#f5f7f8;}.cls-5{fill:#1e3d54;}.cls-6{fill:#252d3f;}.cls-7{fill:#6ea8d1;}</style></defs><path class="cls-1" d="M733.64,370.67H149.34c-16.05,0-28.89-22-28.89-49.44V227.85c0-27.47,12.84-49.44,28.89-49.44h584.3c16.05,0,28.9,22,28.9,49.44v93.38C762.54,348.69,749.69,370.67,733.64,370.67Z" transform="translate(-120.45 -178.41)"/><path class="cls-2" d="M345.38,281.89c-2.89-4.92-3.55-10.34-1.47-15.44,2.61-6.38,7.59-10.94,13.93-13.84,15-6.85,30-6.61,45-.11,9.52,4.15,15.84,12.75,14.61,22.14-.94,7.19-5.06,12.59-11.35,16.16-13,7.39-26.82,8.09-41.07,4.52-.88-.23-1.79-.37-2.69-.54C355.67,291.77,349.31,288.42,345.38,281.89Zm32,3.61c8.15-.09,11.76-1,15.95-3.74,6-3.88,6.64-11.75,2.42-16.16-6.77-7.05-20.36-8.14-28.83-2.12-5.57,3.95-6.92,10.77-2.05,16.27A17,17,0,0,0,377.37,285.5Z" transform="translate(-120.45 -178.41)"/><path class="cls-2" d="M610.45,247.64l.82-.1,6.49,0a14.15,14.15,0,0,0,4.66.59l3.25.24.18.2.25-.08c.78.9,1.79.68,2.78.61a.51.51,0,0,0,.61.16c1.18,1.11,2.87.8,4.2,1.5.39.61,1,.45,1.62.56l.74.27c.16.35.32.7.81.58.7.34,1.4.7,2.11,1,3.45,1.56,5.82,4.64,9.06,6.5l0,0,1.89,4c0,.41-.08.85.58.55l.75.33,0,0c1.79,6.95,1.72,13.66-2.58,19.83l-.51.89-9.54,7.26,0,0c-2.09.29-3.78,1.54-5.67,2.33l-9.63,2.26-15.16.23-1.54-.26-7.15-1.62c-6.39-2.32-12.66-5-17-10.45-6.31-7.94-6.8-16.56.14-24.7,6.36-7.46,15-10.7,24.5-11.95a25.32,25.32,0,0,0,2.68-.62ZM621,284.47l-.05,0c1.57.43,2.91-.47,4.17-1,9.63-4.24,10.34-14.33,4.63-18.34-6.49-7.05-21.53-7.52-29.11-.69-5.19,4.68-5.3,11.25-.78,15.25C603,285,613.87,287.05,621,284.47Z" transform="translate(-120.45 -178.41)"/><path class="cls-2" d="M681.54,269.19c-1,7.64-.41,15.31-.32,22.95,0,3.51-.85,4.59-4.37,4.33-4.88-.36-9.79-.17-14.69-.21-.06-6.65,0-13.3-.19-19.94-.18-7.28-.21-14.49,4.72-20.58l0,0c2.27-.77,3.73-2.71,5.7-3.91l-.19-.17.17.19c1.25-.38,2.58-.6,3.44-1.74,8.88-2.51,17.83-4.19,27.11-2.55,7.19,1.28,14.13,3,19.41,8.6,2.83,3,5.07,6.23,5.08,10.51,0,9.87,0,19.74,0,29.61l-18.37.13h0c-.79-1.36-.47-2.86-.49-4.3-.07-7.19-.13-14.38-.13-21.58,0-4.58-2.35-7.25-6.58-8.52h0c-5.28-2.82-10.6-1.87-15.58.48C683.69,263.65,681.23,265.69,681.54,269.19Z" transform="translate(-120.45 -178.41)"/><path class="cls-2" d="M270.17,248.65c6.64,0,12.75-.15,18.86.07,3.17.11,3.28,3.65,4,5.49,2.53,6.51,5.71,12.74,8.2,19.26,1.18,3.08,2.85,6,3.6,9.81,2.62-2.58,3.25-5.73,4.17-8.22,2.64-7.17,6.6-13.8,8.54-21.23.95-3.63,2.93-5.63,7.19-5.27,4.87.4,9.81.09,15.15.09-.69,4.31-3.13,7.52-4.71,10.94s-3.23,6.9-5,10.29c-4.2,8.17-8.18,16.47-12.06,24.8-.75,1.61-1.71,1.72-3.1,1.72-6.81,0-13.62,0-20.42,0-1.27,0-2.49.11-3.22-1.58-2.29-5.31-4.61-10.63-7.3-15.74-4-7.58-7-15.63-11.36-23C271.51,254,271.1,251.42,270.17,248.65Z" transform="translate(-120.45 -178.41)"/><path class="cls-2" d="M537.56,248.44l1.66.74-.15,11.16.06-.06c-4.8,0-9.61.17-14.4.06-2,0-2.48.6-2.43,2.48.16,5.86.15,11.73.2,17.6.77,4.45,4.6,4,7.63,4.55a37.07,37.07,0,0,0,7.15.08c1.33,0,2,.38,1.88,1.78a2.54,2.54,0,0,0,0,.39c.73,9.18.73,9.15-8.39,9.16-7.32,0-14.46-.91-21.19-4-5.52-4.55-7-10.52-6.51-17.39.3-4.11,0-8.26.09-12.39.05-1.72-.42-2.38-2.22-2.27-2.48.15-5,0-7.43,0-.13-1.63-.24-2.82-.34-4,.57-2.59-.36-5.3.6-7.87,2.36.06,4.72,0,7.06.21,2.05.18,2.41-.76,2.32-2.52-.14-3-.11-6-.15-9,1.95-1.59,4.23-.61,6.34-.72,4.06-.21,8.13-.14,12.2-.19,1.69,3.21.38,6.65.78,10,.13,1.1-.36,2.58,1.61,2.41,3.13-.28,6.31.63,9.39-.49.61.14.93-.1.93-.73l.11-.07c-.41.42-.38.75.18,1A4.12,4.12,0,0,0,537.56,248.44Z" transform="translate(-120.45 -178.41)"/><path class="cls-2" d="M446,296.32c-5.34,0-10.68-.06-16,.12-2.34.08-3.22-.4-3.21-3q.18-28.81,0-57.64c0-2.38.52-3.39,3.09-3.19,5.43.42,10.92-.56,16.34.58q0,4.8,0,9.6Z" transform="translate(-120.45 -178.41)"/><path class="cls-2" d="M497.06,282.15a1.71,1.71,0,0,1,1.42,1.5c.16,5.13,3.57,8.19,7.14,11.15-13.8,5.43-27.46,4.09-40.77-1.44a14.38,14.38,0,0,1-8.58-10,22.42,22.42,0,0,1-.56-5.11c0-8.78.1-17.55-.08-26.32-.05-2.7.78-3.41,3.37-3.32,4.65.16,9.3,0,14-.06.74,1.22.48,2.58.48,3.89,0,6.63,0,13.27,0,19.9,0,8,3.65,11.77,11.89,12.15a1.74,1.74,0,0,0,1.79.43l1.55-.05,1.08-.34A10.29,10.29,0,0,0,497.06,282.15Z" transform="translate(-120.45 -178.41)"/><path class="cls-3" d="M200.35,236.44l-1.64.27c-3-.36-6-.64-9,.39-11.42.93-20.47,6.27-25.75,16.24-2.79,5.26-2.16,11.57,1.14,17.21,4.38,7.51,11.32,11.26,19.16,13.88.95,1.08,2.2.85,3.41.76l2.1.15a3.26,3.26,0,0,1,.84,2.26l-1.5-.1a2.08,2.08,0,0,0-2.15-.37l-2.59-.37c-1.14-.92-2.25-1.2-3.3.13v1.46l-1.79,1.85c-1,.38-2.67-1.12-3,.65-.31,1.6,1.43,1.55,2.52,1.87l4.57,1.35a3.14,3.14,0,0,0,3,.65l.25,0,0,1.9c-1.43-.13-2.85-.29-4.29-.38-1.14-.07-2.11.15-2,1.65-1.12.58-2.23,1.17-3.34,1.76l-.28,0-.25-.13c-.21-.35-.46-.6-.92-.38-10.94-2.54-19.88-8.38-27.3-16.67a4.79,4.79,0,0,1-1.49-4.34c1.79-.22,2.86.65,3.88,2.08A36.6,36.6,0,0,0,162.8,291c1.11.63,2.33,2,3.45.62s-1.27-1.85-1.52-3c.93-.74,1.72-1.14,2.91-.48.82.47,2.27,1.11,2.79-.11.65-1.49-1-1.81-2-2.46-2.27-1.63-5.39-2.42-5.87-5.85l-.09.07a3.93,3.93,0,0,1,4.28,1.17,27.07,27.07,0,0,0,6.53,4.33c1,.54,2.09,1,2.68-.3s-.76-1.34-1.5-1.83c-4.56-3-9.08-5.89-12-11-3.49-6.05-3.76-15.89-.34-21.78,3-5.24,7.41-8.69,12.44-11.57.84-.48,2-.76,1.46-1.86a1.56,1.56,0,0,0-2.45-.22c-2.09,2-5.57,1.7-7.18,4.51a1.53,1.53,0,0,1-2.46.14,1.14,1.14,0,0,1,.28-2c3-1,4.73-3.76,7.69-4.92,2.51-1,5.38-1.7,7.56-3.8-2.37-1.46-4.18-.13-5.87.62-5.17,2.3-10.24,4.8-14.11,9.16-.73.82-2.05,1.69-3,.49-.81-1,.06-2.08.85-2.77,1.46-1.29,3.12-2.35,4.59-3.63,3.08-2.7,7.32-3.62,10.68-6.56-3-1-4.8.56-6.85,1.38-.82.33-1.94.6-2.43-.52-.4-.89.39-1.44,1-1.91s1.35-.17,1.66-.91c17.83-7.63,35.85-8.25,54.08-1.53,2,.72,3.86,1.69,5.79,2.54a4.91,4.91,0,0,1,.55.57c.58.86,2.86.6,1.9,2.34-.78,1.41-2.07.53-3.12-.06-.35-.2-.76-.26-1.11-.45-11.22-6.2-23.33-7.56-35.87-6.65-1.45.11-3.14-.12-4,1.7,1.48,1.18,3,.7,4.34.5a46.07,46.07,0,0,1,12.74,0c1.46.2,4.18-.5,4.06,1.35-.16,2.42-2.78,1-4.31,1.07-3.45.16-7-1.15-10.65.64,1.28,1.64,2.83,1.06,4.14,1.1a65.07,65.07,0,0,1,16.13,2.4c1.16.34,2.88.39,2.17,2.47l-1.47.15c-.91-.16-1.84-.27-2.73-.51a50.64,50.64,0,0,0-16.14-1.88c-1.24.07-3.05-.32-3.34,2.21h8.44C199.23,234,200.63,234.29,200.35,236.44Z" transform="translate(-120.45 -178.41)"/><path class="cls-4" d="M568.17,272.87c0,6.81-.08,13.61,0,20.41,0,2.3-.38,3.35-3,3.19-4.12-.25-8.27-.15-12.41,0-2.62.07-3.81-.7-3.78-3.62q.19-20.42,0-40.83c0-2.82,1.3-3.38,3.61-3.36,4.27,0,8.55.14,12.81,0,2.48-.11,2.82,1,2.8,3.07C568.11,258.73,568.17,265.8,568.17,272.87Z" transform="translate(-120.45 -178.41)"/><path class="cls-3" d="M220.31,269.12c-14,0-28,.13-42,.08-4.73,0-8.43-2.17-10.14-6.69-1.2-3.18,1-5.42,3.25-7.23,2.68-2.2,6-2.66,9.39-2.65q19.18,0,38.36.05h6.47C220,243,211.69,239,202,237.15c-.66-3.24,1.57-2.38,3.14-2.1,9.75,1.75,16.89,7.55,22.88,15a4.8,4.8,0,0,1,1.07,4.14c-.52,1.65-2.28,1-3.48,1-8.66.08-17.33,0-26,.11-1.26,0-2.95-.73-4.1,1.89,9,.93,17.8-.28,26.42,1.28-1.47,1.78-3.37,1.11-5.07,1.27-2,.17-4-.45-5.86.61-2.05,1.2-.34,1.37.54,1.74.71.75,1.72.47,2.55.75,4.11,1.37,8.59-.34,12.62,1.56-7.46.06-14.92.1-22.38.17-1,0-2.45-.27-2.34,1.32.09,1.28,1.45.88,2.29.89,5.06.07,10.12.08,15.18.11,1.66,1.34,3.82.15,5.67,1.07C223.61,269,221.66,267.81,220.31,269.12Z" transform="translate(-120.45 -178.41)"/><path class="cls-5" d="M211.56,262.09c-.88-.37-2.59-.54-.54-1.74,1.84-1.06,3.9-.44,5.86-.61,1.7-.16,3.6.51,5.07-1.27-8.62-1.56-17.41-.35-26.42-1.28,1.15-2.62,2.84-1.88,4.1-1.89,8.65-.08,17.32,0,26-.11,1.2,0,3,.66,3.48-1a4.8,4.8,0,0,0-1.07-4.14c-6-7.46-13.13-13.26-22.88-15-1.57-.28-3.8-1.14-3.14,2.1a1.86,1.86,0,0,1-1.65-.71c.28-2.15-1.12-2.4-2.73-2.4h-8.44c.29-2.53,2.1-2.14,3.34-2.21a50.64,50.64,0,0,1,16.14,1.88c.89.24,1.82.35,2.73.51,2.24.57,4.12,2.27,6.6,2.08,2.35,2.82,4.5,6,8.85,5.63-.11.93-1.33,2.07,0,2.75,2.19,1.13,2.49,3.57,4,5.12,1.79,1.8,2,4.42,1.82,6.64s-3.06.37-4.24,1.68c-1.27.46-2.22-.75-3.43-.65-.92.07-2.11,0-2.15,1.2,0,1.36,1.27,1.14,2.1,1.06a26,26,0,0,0,3.35-.73c2,1.38,4.32.5,6.48.64.9.06,1.41-.57,1.43-1.52.12-5.65-3.37-14.29-9.46-16.1-1.28-4-4.24-5.74-8.14-6.3-1.28-2.81-3.62-1.88-5.76-1.65.71-2.08-1-2.13-2.17-2.47a65.07,65.07,0,0,0-16.13-2.4c-1.31,0-2.86.54-4.14-1.1,3.65-1.79,7.2-.48,10.65-.64,1.53-.07,4.15,1.35,4.31-1.07.12-1.85-2.6-1.15-4.06-1.35a46.07,46.07,0,0,0-12.74,0c-1.34.2-2.86.68-4.34-.5.85-1.82,2.54-1.59,4-1.7,12.54-.91,24.65.45,35.87,6.65.35.19.76.25,1.11.45,1,.59,2.34,1.47,3.12.06,1-1.74-1.32-1.48-1.9-2.34a4.91,4.91,0,0,0-.55-.57c.93-1.32,1.94-1.15,2.87,0s1.91,2.39,2.85,3.59c-.79.24-2-.33-2.3.84s.54,1.58,1.46,1.92c1.16.44,2.28.88,2.53-1,1.33.12,1.67,1.3,2.32,2.15-1.31,1.41-1.32,1.42-1.14,1.75a2.91,2.91,0,0,0,4.17,1.45l.15,1c-1.22,2.82,1.61,3.7,2.64,5.43.75,1.25,1.19,3.65,3.13,2.64,2.19-1.14-.08-2.84-.33-4.31,0-.13-.06-.26-.09-.38,1.59-.19,2.38,1.48,3.89,1.63.95.1,1.39,1.24.79,1.75-1.76,1.48.3,3.19-.51,4.64-.81-.77-1.77-1.37-2.83-.72s-.53,1.67-.33,2.53a53.08,53.08,0,0,1,1.13,11c0,2.72-.65,3.94-3.78,3.86-7.66-.21-15.34,0-23,0-5.06,0-10.12,0-15.18-.11-.84,0-2.2.39-2.29-.89-.11-1.59,1.36-1.31,2.34-1.32,7.46-.07,14.92-.11,22.38-.17,3,.06,6.09.19,9.13.14,1,0,2.85.54,2.82-1.19s-1.76-1.23-2.87-1.23C227.73,262.08,219.64,262.1,211.56,262.09Zm28-5.8c0,1.57,0,3.14,0,4.71-.05,1.29.49,2,1.79,2s1.45-.87,1.44-1.82c0-2.2.39-4.45-.58-6.57l-.25-1.32a3.38,3.38,0,0,0-.68-2.79,28.71,28.71,0,0,0-6.9-10.53c-1.52-1.54-2.84-4.46-6-3.56,0-.52.18-1.32-.07-1.51a43.89,43.89,0,0,0-17.67-8.19c-.8-.16-2.08-.49-2.16.93-.06,1.17,1.05,1.33,1.95,1.59,4.81,1.39,9.49,3,13.58,6.1a4.56,4.56,0,0,0,4.44,1c-.49,1.52.32,2.57,1.35,3.43A27.42,27.42,0,0,1,239.59,256.29Z" transform="translate(-120.45 -178.41)"/><path class="cls-5" d="M162.6,279.69c.48,3.43,3.6,4.22,5.87,5.85.92.65,2.61,1,2,2.46-.52,1.22-2,.58-2.79.11-1.19-.66-2-.26-2.91.48.25,1.15,2.6,1.61,1.52,3s-2.34,0-3.45-.62a36.6,36.6,0,0,1-12.18-10.76c-1-1.43-2.09-2.3-3.88-2.08l-.07-.94c1.54-2.09.05-3.57-1-5.19-1.19-1.83-2.44-.41-3.67-.17l-.15-2.46c1.39,0,2.77,0,2.45-2-.49-3.11.14-6.31-.76-9.38.48-.1,1.1-.18,1.1-.75,0-.81-.83-.75-1.38-1,1.26-.86,1-2.38,1.54-3.54a78.46,78.46,0,0,1,4.47-8.94c3.15-5,7.53-8.66,12.17-11.95,2.55-1.81.08-1.72-.4-2.44.76-2.44,2.35-3.67,5-3.36-.31.74-1.15.55-1.66.91s-1.45,1-1,1.91c.49,1.12,1.61.85,2.43.52,2.05-.82,3.89-2.37,6.85-1.38-3.36,2.94-7.6,3.86-10.68,6.56-1.47,1.28-3.13,2.34-4.59,3.63-.79.69-1.66,1.81-.85,2.77,1,1.2,2.31.33,3-.49,3.87-4.36,8.94-6.86,14.11-9.16,1.69-.75,3.5-2.08,5.87-.62-2.18,2.1-5,2.82-7.56,3.8-3,1.16-4.71,3.92-7.69,4.92a1.14,1.14,0,0,0-.28,2,1.53,1.53,0,0,0,2.46-.14c1.61-2.81,5.09-2.51,7.18-4.51A1.56,1.56,0,0,1,176,237c.53,1.1-.62,1.38-1.46,1.86-5,2.88-9.4,6.33-12.44,11.57-3.42,5.89-3.15,15.73.34,21.78,2.94,5.08,7.46,7.94,12,11,.74.49,2.05.6,1.5,1.83s-1.65.84-2.68.3a27.07,27.07,0,0,1-6.53-4.33,3.93,3.93,0,0,0-4.28-1.17c1.68-2.69-.11-3.12-2.2-3.36.84-3.46-2.34-5.26-3.35-7.95-.22-.59-1.24-.57-1.81-.28a1.83,1.83,0,0,0-.69,1.28c-.27,2.1,3.7,6.66,5.92,6.88C159,278.84,160.81,279.26,162.6,279.69Zm-16-18.66c.32,2.44.65,5.07,1,7.69.19,1.5,1,2.69,2.55,2.37,1.78-.38.83-1.77.67-2.91-.89-6.52-1.68-13,2.22-19,.57-.88,1.4-2.27-.3-3-1.47-.63-2,.55-2.7,1.58C147.28,251.69,147.23,256.31,146.62,261Zm6.6-.62c0,1.2-.08,2.4,0,3.59s.47,2.14,1.89,2.08c1.63-.06,1.43-1.21,1.33-2.29a23.31,23.31,0,0,1,6.47-19c.67-.7,1.63-1.82.37-2.69-.91-.63-2-.19-2.79.73C156,247.83,152.92,253.42,153.22,260.41Zm-2.36,12.29c-.93.14-1,1.07-.33,2.41,2.44,5.1,6.65,8.62,10.84,12.14a1.7,1.7,0,0,0,2.51-.21c.63-1-.28-1.76-1-2.33-3.83-3-7.27-6.31-9.42-10.78C153.11,273.19,152.62,272.55,150.86,272.7Zm4-30.5a1.46,1.46,0,0,0-1.71,1.17c-.17.95.42,1.49,1.35,1.31.66-.13,1.66,0,1.77-1.09S155.78,242.24,154.88,242.2Z" transform="translate(-120.45 -178.41)"/><path class="cls-4" d="M513.54,328.56l-1.46-.55c-8.41-3.26-10.86-6.17-9.84-14.77a.54.54,0,0,0,.16-.61c1.9-2.75,4.63-4.57,7.29-6.46l0,0c7.6-2.19,15.08-2.49,22.3,1.4l0,0c.47,1.5,2.24,1.46,3,2.56l0,0c.44,2.73,2.39,5,2.45,7.82l0-.05c-1.68,1-3.54.94-5.4.94-6.69,0-13.38,0-20.41,0,2.54,4.14,8.87,6,13.25,3.42,4.09-2.42,7-.94,10.42.94-1,2.39-3.18,2.78-5,3.63C525,329.35,519.24,329,513.54,328.56Zm-1.37-14.88h14.39C522.86,308.68,515.15,308.84,512.17,313.68Z" transform="translate(-120.45 -178.41)"/><path class="cls-4" d="M622.45,325.18c-.57.2-1.35-.06-1.63.76a33.08,33.08,0,0,1-10.44,3l-6.3-.22c-3.45-.16-6.38-2-9.54-3l-.67-.52c-.64-2.24-3.26-3.12-3.55-5.79-.7-6.33,2.07-10.86,8.4-13.2,5.66-2.1,11.38-1.72,17.14-.66l.14-.15-.17.12c.2.17.37.42.6.49,4.85,1.41,7.33,5.07,8.83,9.52.61,1.8.33,3.42-2.3,3.37-4.14-.07-8.27,0-12.41,0H599.61c3.42,4.44,9.94,5.91,14.28,3,3.47-2.31,6-.35,8.71.77C624.34,323.33,622.64,324.32,622.45,325.18Zm-7.79-11.35c-1.27-3.32-4-3.54-6.49-3.75a8.36,8.36,0,0,0-8.26,3.75Z" transform="translate(-120.45 -178.41)"/><path class="cls-4" d="M630.48,305.1h1.6a51.77,51.77,0,0,0,8.55.7c3.47-.18,7-1.12,10.59-1.23l0,0a8.07,8.07,0,0,0,3.92,1.05l0-.06c3.15,1.4,4.64,4.43,6.69,6.9,0,4.21-.18,8.43,0,12.63.11,2.5-.56,3.63-3.22,3.4-2.09-.18-4.2-.05-6.31-.05,0-4.11-.1-8.22-.1-12.33,0-1.5,0-3.11-1.4-3.91a9.23,9.23,0,0,0-9.39-.26c-2.88,1.44-2.31,3.78-2.1,6.12l0,2.43v4a3.26,3.26,0,0,0,0,2.51l-.12,1.06c-2.21.79-4.5.13-6.73.4s-3-.58-2.93-2.85c.1-5.18-.07-10.36-.14-15.54,0-.8,0-1.6,0-2.41C629.73,306.8,629.09,305.49,630.48,305.1Z" transform="translate(-120.45 -178.41)"/><path class="cls-4" d="M695.47,327.38c-1-.65-1.93-1.24-2.84-1.94-1.29-1-2.28-2.37-1.91-4s2.09-.4,3-1a15.25,15.25,0,0,1,7.92,2.41c2.74,1.76,6.13,1.52,9.07-.84a6.23,6.23,0,0,0-4-1.82,71.26,71.26,0,0,1-9.39-1.54c-6.62-1.94-6.66-3.79-6.08-8.67a.7.7,0,0,0,.19-.66c1.18-1.3,3.12-1.65,4.07-3.25l0,0c7.33-1.94,14.54-2,21.48,1.55l0,0c2.62,4.12,2.57,4.44-.89,5.07l-1.33,0c-1.78-.46-4.26.59-5.29-1-1.57-2.43-3.64-1.63-5.61-1.78-1.18-.08-2.64-.12-2.83,1.44s1.2,1.7,2.42,1.9c4.54.74,9.08,1.54,13.61,2.32l.58.51c5.76,4.12,2.94,8.62-1.75,10.8-3.26,1.51-6.67,1.37-10.05,1.79l-4.81-.19Z" transform="translate(-120.45 -178.41)"/><path class="cls-4" d="M561.87,321.94l-.47-1.49L554.46,305c3.91,1.09,7.73-1.26,11,1.56q3,7.13,6,14.3c1.58-2,3-4,3-6.62,4.68-9.49,4.68-9.49,13.13-8.85a5.83,5.83,0,0,1,.83.38c-3.31,7.7-6.9,15.28-10.87,22.69l0,0c-3.43,0-6.85,0-10.28,0-1,0-2.19.23-2.52-1.23C564.34,325.14,562.71,323.76,561.87,321.94Z" transform="translate(-120.45 -178.41)"/><path class="cls-4" d="M678.89,313.17c-.06.92-.16,1.85-.16,2.77,0,6.38,0,6.42,6.48,6.87,1.36.09,2.48.16,2.11,1.89-.26,1.25,1,3.39-1.07,3.61-4.62.47-9.36.43-13.52-1.92a6.5,6.5,0,0,1-3.59-6.43,58.32,58.32,0,0,0-.16-6.73c.49-1.57.21-2.64-1.73-2.38s-2.56-.63-2.34-2.45c.12-1,.09-2.09.13-3.13,3,.41,4.86-.24,4.18-3.86-.24-1.28.17-2.45,1.85-2.3,2.58.23,5.25-.68,7.76.54a16.33,16.33,0,0,1-.14,2c-.52,3,.65,4.17,3.64,3.62a13.85,13.85,0,0,1,1.58,0c2.18-.2,3.61-.1,3.57,3s-1.62,2.69-3.48,2.64c-1.19,0-2.38,0-3.57,0C678.59,310.77,678.57,311.85,678.89,313.17Z" transform="translate(-120.45 -178.41)"/><path class="cls-5" d="M181.11,288.35v-1.46l3.3-.13,2.59.37a2.43,2.43,0,0,0,2.15.37l1.5.1c6.85,1.25,13.38-.1,19.86-2.25,1.24-.42,1.78-1,1.66-2.22,1.66-.08,4.16-1.31,1.94,2.39-.67,1.12,1,4.24,3.85,4.53a7.72,7.72,0,0,1-1,.59,57,57,0,0,1-15.67,4c-.9.11-2,.11-1.83,1.44.16.93,1.13,1,1.94,1,.66,0,1.31-.21,2-.26,5-.4,9.75-2.17,14.58-3.43-.42,1.87-2.2,2.07-3.54,2.71-1.17.56-2.5.79-3,2.2-4.59.46-9.19.94-13.79,1.38-1,.1-1.29.76-1.5,1.56l-2.35-.06c-.45-1.42-1.57-1.51-2.85-1.58a50.75,50.75,0,0,1-10.6-1.72c-.12-1.5.85-1.72,2-1.65,1.44.09,2.86.25,4.29.38,2.64,1,5.43.61,8.15.73.91.05,2.39.36,2.29-1.3-.08-1.22-1.27-1.12-2.16-1.14-2.75-.09-5.5-.13-8.25-.19l-.25,0c-.84-.94-1.95-.62-3-.65l-4.57-1.35c-1.09-.32-2.83-.27-2.52-1.87.35-1.77,2-.27,3-.65,3.15,1.2,6.31,2.49,9.73.83C186.65,289.23,183.77,289.12,181.11,288.35Zm15.38,4.21a42.24,42.24,0,0,0,10.27-1.09c.78-.16,1.69-.37,1.57-1.41s-1.22-1-1.88-.88a78.41,78.41,0,0,1-14.68.95c-.83,0-1.71.22-1.76,1.21s.91,1.18,1.69,1.2C193.3,292.59,194.89,292.56,196.49,292.56Zm13.92-2.14c.89-.11,1.87-.24,2-1.44.06-.81-.59-1.13-1.29-1.17-1-.06-1.87.2-2,1.41C209,290.06,209.65,290.31,210.41,290.42Z" transform="translate(-120.45 -178.41)"/><path class="cls-4" d="M558.75,244.93h-1.19c-10.15-.15-8.31,1.27-8.54-9.16,0-2.24.86-3.13,3-3.12,4.66,0,9.32,0,14,0,1.45,0,2.32.38,2.18,2a2.67,2.67,0,0,0,0,.4C569,245,569,245,558.75,244.93Z" transform="translate(-120.45 -178.41)"/><path class="cls-6" d="M629.32,310c.07,5.18.24,10.36.14,15.54,0,2.27.69,3.13,2.93,2.85s4.52.39,6.73-.4l1.83,1.49c-3.81,1.56-7.42,1-11,.2l.15-.14.16.14c-1.68-.87-3.85-1.12-4.54-3.26-.6-1.86-2.57.16-3.24-1.28.19-.86,1.89-1.85.15-2.55-2.75-1.12-5.24-3.08-8.71-.77-4.34,2.89-10.86,1.42-14.28-3h10.94c4.14,0,8.27-.06,12.41,0,2.63,0,2.91-1.57,2.3-3.37-1.5-4.45-4-8.11-8.83-9.52-.23-.07-.4-.32-.6-.49,5.12-.7,9.25,1.83,10.42,6.49C627.52,311.7,627.68,309.58,629.32,310Z" transform="translate(-120.45 -178.41)"/><path class="cls-6" d="M577.58,328.43c4-7.41,7.56-15,10.87-22.69a5.83,5.83,0,0,0-.83-.38c-8.45-.64-8.45-.64-13.13,8.85-1.53-3.52,2.67-6.06,1.74-9.55a10.42,10.42,0,0,1,2.85-1c2.73-.34,5.49-.42,8.21-.75,3.23-.4,1.78,2.64,2.88,3.78,4.73-1.7,9.63-2.91,14.43-4.17,3.23-.85,7.16.88,10.76,1.55.25.05.34.9.5,1.38-5.76-1.06-11.48-1.44-17.14.66-6.33,2.34-9.1,6.87-8.4,13.2.29,2.67,2.91,3.55,3.55,5.79-4.19-.82-5-2-5.84-8.06-.1-.76-.27-1.52-.42-2.28,0-.06-.21-.09-1.07-.43,1,4.19-2.06,7-2.57,10.75C583.53,328.38,580.26,328.34,577.58,328.43Z" transform="translate(-120.45 -178.41)"/><path class="cls-4" d="M260.91,268.45a9.5,9.5,0,0,1,4.63.68c5.06,2.12,5.9,5.8,2.08,9.56-3.32,3.28-11,2.67-13.49-1.07a5.47,5.47,0,0,1,2.18-8.14C257.82,268.77,259.43,267.84,260.91,268.45Z" transform="translate(-120.45 -178.41)"/><path class="cls-6" d="M678.89,313.17c-.32-1.32-.3-2.4,1.54-2.34,1.19,0,2.38,0,3.57,0,1.86.05,3.45.37,3.48-2.64s-1.39-3.16-3.57-3a13.85,13.85,0,0,0-1.58,0c-3,.55-4.16-.66-3.64-3.62a16.33,16.33,0,0,0,.14-2c1.94.11,3.89.27,5.85-1.49.52,4.4-3.75,2-4.34,4.67.69,1.51,2.16,2.11,4.12,1a3.07,3.07,0,0,1,4.23.65c1.88,1.89,4.43,1.52,6.81,1.66-1,1.6-2.89,1.95-4.07,3.25-.22-1.18-.83-1.84-2.13-1.59-.59.11-1,.56-.89,1.06.36,1.64,1.78,1,2.83,1.19-.58,4.88-.54,6.73,6.08,8.67a71.26,71.26,0,0,0,9.39,1.54,6.23,6.23,0,0,1,4,1.82c-2.94,2.36-6.33,2.6-9.07.84a15.25,15.25,0,0,0-7.92-2.41c-2.11-1.54-3.54-3.3-3.3-6.23.16-2,0-3.91-3.11-1.81C685,314.06,681.69,312.2,678.89,313.17Z" transform="translate(-120.45 -178.41)"/><path class="cls-7" d="M219.48,266.89c7.68,0,15.36-.25,23,0,3.13.08,3.82-1.14,3.78-3.86a53.08,53.08,0,0,0-1.13-11c-.2-.86-.66-1.93.33-2.53s2-.05,2.83.72c.22,1,0,2.21.8,3.11.46,2.17-.76,4.76,1.61,6.45.42,2.84-1.45,5.23-1.53,8-.05,1.72-1.51,1.53-2.68,1.53l-26.2-.11c1.35-1.31,3.3-.16,4.84-1.16C223.3,267,221.14,268.23,219.48,266.89Z" transform="translate(-120.45 -178.41)"/><path class="cls-6" d="M513.54,328.56c5.7.43,11.41.79,16.79-1.72,1.83-.85,4-1.24,5-3.63-3.39-1.88-6.33-3.36-10.42-.94-4.38,2.59-10.71.72-13.25-3.42,7,0,13.72,0,20.41,0,1.86,0,3.72.08,5.4-.94.27,2.17-2.54,4.2-.18,6.54.58.58-.4,1.37-1,1.88-2.28,1.8-4.65,3.24-7.75,3.21a26.29,26.29,0,0,0-7.4,1C518.29,331.33,515.55,331.18,513.54,328.56Z" transform="translate(-120.45 -178.41)"/><path class="cls-6" d="M505.62,294.8c-3.57-3-7-6-7.14-11.15,1.75.43,3.46,1.1,3.32-2-.23-4.93-.21-9.86-.27-14.79-.06-4.28-2.12-6.23-6.19-5.28-2.11.5-3.38.05-4.27-1.72-1.09-2.19,1-2.6,2.11-3.51.1,1.19.21,2.38.34,4,2.45,0,5,.11,7.43,0,1.8-.11,2.27.55,2.22,2.27-.12,4.13.21,8.28-.09,12.39-.51,6.87,1,12.84,6.51,17.39C507.55,292,506.4,293.1,505.62,294.8Z" transform="translate(-120.45 -178.41)"/><path class="cls-3" d="M161,229.39c.48.72,3,.63.4,2.44-4.64,3.29-9,7-12.17,11.95a78.46,78.46,0,0,0-4.47,8.94c-.54,1.16-.28,2.68-1.54,3.54-2.43-1.16-2.66-3.79-1-7.07a53.11,53.11,0,0,1,15.61-18.67,3.52,3.52,0,0,0,2.61-1.26A2.15,2.15,0,0,0,161,229.39Z" transform="translate(-120.45 -178.41)"/><path class="cls-6" d="M666.69,255.74c-4.93,6.09-4.9,13.3-4.72,20.58.17,6.64.13,13.29.19,19.94-2.28,0-2-1.63-2-3.07,0-4.37,0-8.75,0-13.12,0-1.26.43-2.63-.47-3.78-1.64-.4-1,3.29-2.58,1.75-1.87-1.78-.94-4.48-.63-6.79s2.1-1.06,3.41-1c-.38-5.93,2.1-10.78,5.1-15.45h0Z" transform="translate(-120.45 -178.41)"/><path class="cls-4" d="M544.45,312.6c3.17-1.79,6.13-.67,9.07.67a8.16,8.16,0,0,1,1,4c-2.72,5-7.37,5.28-12.48.64C541.25,315.39,542.91,314,544.45,312.6Z" transform="translate(-120.45 -178.41)"/><path class="cls-6" d="M485.34,284.48c-8.24-.38-11.89-4.12-11.89-12.15,0-6.63,0-13.27,0-19.9,0-1.31.26-2.67-.48-3.89,2.37.84,3,2.62,3,5-.09,6.62.24,13.26-.13,19.87a8.88,8.88,0,0,0,7,9.18c1.54.33,3.17.44,4.31,1.77Z" transform="translate(-120.45 -178.41)"/><path class="cls-6" d="M716,312.76c3.46-.63,3.51-.95.89-5.07,1.88-.13,3.25-.18,3.08,2.64-.15,2.66,0,5.72,3.41,6.91h0c.11,1.13-.35,2.5,1.17,3.07.84.31,2,.35,1.79,1.65a2.54,2.54,0,0,1-2.4,2.3c-2.34,0-3.65,1.34-4.88,2.91-2,2.6-5.12,1.57-7.63,1.85-1.71.19-4,2.45-5.68-.24,3.38-.42,6.79-.28,10.05-1.79,4.69-2.18,7.51-6.68,1.75-10.8C718.63,314.33,718.13,313.18,716,312.76Z" transform="translate(-120.45 -178.41)"/><path class="cls-6" d="M554.51,317.23a8.16,8.16,0,0,0-1-4c3.13-1.46,1.56-3.44.05-4.52a3.1,3.1,0,0,1-1.31-4.09c.71-1.74,2.26-.52,3.49-.55,2.37,0,4.74-.3,7.11-.47,2.11-.16,2.93.85,2.61,2.89-3.28-2.82-7.1-.47-11-1.56l6.94,15.48c-1.11-.1-2.56.27-2.88-1.28C558,316.66,556.08,317.38,554.51,317.23Z" transform="translate(-120.45 -178.41)"/><path class="cls-6" d="M701.76,262c4.23,1.27,6.59,3.94,6.58,8.52,0,7.2.06,14.39.13,21.58,0,1.44-.3,2.94.49,4.3-2.1-.49-1.55-2.2-1.56-3.56,0-6.63-.19-13.27.05-19.9a8.12,8.12,0,0,0-3.63-7.42C702.51,264.6,701.61,263.69,701.76,262Z" transform="translate(-120.45 -178.41)"/><path class="cls-7" d="M218,293.38c-4.83,1.26-9.54,3-14.58,3.43-.65.05-1.3.23-2,.26-.81.05-1.78,0-1.94-1-.22-1.33.93-1.33,1.83-1.44a57,57,0,0,0,15.67-4,7.72,7.72,0,0,0,1-.59c1.2-.14,3-1.3,3.39.44C221.94,292.9,218.79,292,218,293.38Z" transform="translate(-120.45 -178.41)"/><path class="cls-7" d="M212.18,283.13c.12,1.25-.42,1.8-1.66,2.22-6.48,2.15-13,3.5-19.86,2.25a3.26,3.26,0,0,0-.84-2.26c6.57.07,13.17.38,19.34-2.53l3,.25Z" transform="translate(-120.45 -178.41)"/><path class="cls-6" d="M610.38,328.93a33.08,33.08,0,0,0,10.44-3c.22,3-.52,4.53-4.1,3.77-2.86-.61-5.78.38-8.45,1.57-2,.87-3.7,1.13-5.46-.37a2.66,2.66,0,0,0-1.77-.76c-3.72.69-5.15-1.81-6.5-4.48,3.16,1.07,6.09,2.88,9.54,3A8.33,8.33,0,0,0,610.38,328.93Z" transform="translate(-120.45 -178.41)"/><path class="cls-6" d="M446,296.32l.18-53.54q0-4.8,0-9.6c.91.82.79,1.92.79,3q0,28.47,0,56.94C447,294.26,447.34,295.55,446,296.32Z" transform="translate(-120.45 -178.41)"/><path class="cls-6" d="M665,305.27c0,1,0,2.1-.13,3.13-.22,1.82.37,2.71,2.34,2.45s2.22.81,1.73,2.38c-2.3-1.25-4.8-.65-7.23-.81-2-2.47-3.54-5.5-6.69-6.9C658.38,305.51,661.73,306,665,305.27Z" transform="translate(-120.45 -178.41)"/><path class="cls-6" d="M502.24,313.24c-1,8.6,1.43,11.51,9.84,14.77-2.82,2-5.08-.35-7.13-1.37a10.4,10.4,0,0,1-5.14-12.39C500.38,312.53,501.3,313.23,502.24,313.24Z" transform="translate(-120.45 -178.41)"/><path class="cls-6" d="M639.23,318c-.21-2.34-.78-4.68,2.1-6.12a9.23,9.23,0,0,1,9.39.26c1.35.8,1.4,2.41,1.4,3.91,0,4.11.06,8.22.1,12.33-1.86-2.93-.91-6.2-.81-9.25a6.58,6.58,0,0,0-3.32-6.22c-2.73-1.84-4.94-1.11-5.51,2.14C642.21,317.21,641.34,318.15,639.23,318Z" transform="translate(-120.45 -178.41)"/><path class="cls-6" d="M716.94,307.72c-6.94-3.57-14.15-3.49-21.48-1.55,0-1.73,1.38-2.37,2.57-2.59,6-1.1,11.87-.9,17.56,1.59A2.22,2.22,0,0,1,716.94,307.72Z" transform="translate(-120.45 -178.41)"/><path class="cls-6" d="M681.54,269.19c-.31-3.5,2.15-5.54,4.62-6.7,5-2.35,10.3-3.3,15.58-.48-2.51,0-5-.07-7.55,0s-5,0-6.53,3.15C686.68,267.12,683.22,267.2,681.54,269.19Z" transform="translate(-120.45 -178.41)"/><path class="cls-3" d="M143.54,258c.9,3.07.27,6.27.76,9.38.32,2-1.06,2-2.45,2a17.48,17.48,0,0,1-.76-11.5l2.4.06Z" transform="translate(-120.45 -178.41)"/><path class="cls-7" d="M180.32,297.87a50.75,50.75,0,0,0,10.6,1.72c1.28.07,2.4.16,2.85,1.58-4.14,2.07-8.25.05-12.35-.23-1.43-.1-3.2-.1-4.44-1.31C178.09,299,179.2,298.45,180.32,297.87Z" transform="translate(-120.45 -178.41)"/><path class="cls-6" d="M345.38,281.89c3.93,6.53,10.29,9.88,16.92,12.89a18.33,18.33,0,0,1-14.83-6.66A7.69,7.69,0,0,1,345.38,281.89Z" transform="translate(-120.45 -178.41)"/><path class="cls-7" d="M196.12,301.23c.21-.8.51-1.46,1.5-1.56,4.6-.44,9.2-.92,13.79-1.38.2.64.47,1.6-.23,1.76C206.23,301.19,201.32,303.17,196.12,301.23Z" transform="translate(-120.45 -178.41)"/><path class="cls-6" d="M648.61,284.3c4.3-6.17,4.37-12.88,2.58-19.83,2.2,1.54,4.1,2.85,2.73,6.32-1,2.58-.68,5.67-1,8.53C652.58,281.89,651.89,284.23,648.61,284.3Z" transform="translate(-120.45 -178.41)"/><path class="cls-6" d="M544.45,312.6c-1.54,1.42-3.2,2.79-2.42,5.27l-4.57.1c-.06-2.84-2-5.09-2.45-7.82,2.85-.67,3.33,1.92,4.81,3.72C541,311.85,542.72,312.31,544.45,312.6Z" transform="translate(-120.45 -178.41)"/><path class="cls-6" d="M533.33,248.16c-3.08,1.12-6.26.21-9.39.49-2,.17-1.48-1.31-1.61-2.41-.4-3.32.91-6.76-.78-10,1.29-.73,3.73,1.13,3.63,2.94a16.28,16.28,0,0,1-.82,3.82c-.81,2.67.3,4.34,3.14,4.55C529.45,247.72,531.46,247.22,533.33,248.16Z" transform="translate(-120.45 -178.41)"/><path class="cls-6" d="M630.48,305.1c-1.39.39-.75,1.7-1.15,2.53-2.5-1.87-5.65-2.8-7.84-5.29C626.47,300.17,627.74,300.58,630.48,305.1Z" transform="translate(-120.45 -178.41)"/><path class="cls-6" d="M651.22,304.56c-3.58.11-7.12,1.05-10.59,1.23a51.77,51.77,0,0,1-8.55-.7c1.87-3.25,5-1.38,7.53-1.61,3.23-.29,6.56.54,9.83-.39C650.64,302.75,651.15,303.44,651.22,304.56Z" transform="translate(-120.45 -178.41)"/><path class="cls-6" d="M561.87,321.94c.84,1.82,2.47,3.2,2.93,5.24.33,1.46,1.5,1.23,2.52,1.23,3.43,0,6.85,0,10.28,0-2.76,1.38-5.78,1-8.71,1.24-.62.05-1.28-.31-1.92-.3-1.56,0-3.51,1.74-4.57-.45S560.69,324.36,561.87,321.94Z" transform="translate(-120.45 -178.41)"/><path class="cls-6" d="M638.56,292.45l9.54-7.26c.85,2.2-2.66,3.92-.61,6.46.49.61-1.3,1.49-2.31,1.19C643,292.2,640.77,292.52,638.56,292.45Z" transform="translate(-120.45 -178.41)"/><path class="cls-6" d="M532,307.61c-7.22-3.89-14.7-3.59-22.3-1.4.15-2.56,2.38-1.55,3.67-2.07,4.62-1.87,9.4-.61,14.08-.31A4.72,4.72,0,0,1,532,307.61Z" transform="translate(-120.45 -178.41)"/><path class="cls-6" d="M648,259.71c-3.24-1.86-5.61-4.94-9.06-6.5-.71-.32-1.41-.68-2.11-1l-.81-.58-.74-.27C641.49,250.24,647.6,254.26,648,259.71Z" transform="translate(-120.45 -178.41)"/><path class="cls-6" d="M503,237.18c0,3,0,6,.15,9,.09,1.76-.27,2.7-2.32,2.52-2.34-.2-4.7-.15-7.06-.21-1.91-.59-.86-1.1.09-1.41,2-.65,4.2-.13,6.22-1,1.42-.61,2.24-1.2,1.71-2.92C501.11,241,501.88,239,503,237.18Z" transform="translate(-120.45 -178.41)"/><path class="cls-6" d="M522.5,280.42c0-5.87,0-11.74-.2-17.6,0-1.88.46-2.52,2.43-2.48,4.79.11,9.6,0,14.4-.06-1,1.42-2.21,1.39-3.82,1.17-12.15-1.64-12.09-1.6-12.2,10.35C523.09,274.67,523.86,277.63,522.5,280.42Z" transform="translate(-120.45 -178.41)"/><path class="cls-3" d="M244.14,242.13c0,.12.07.25.09.38.25,1.47,2.52,3.17.33,4.31-1.94,1-2.38-1.39-3.13-2.64-1-1.73-3.86-2.61-2.64-5.43C241.92,237.75,241.81,241.86,244.14,242.13Z" transform="translate(-120.45 -178.41)"/><path class="cls-6" d="M509.69,306.17c-2.66,1.89-5.39,3.71-7.29,6.46a11.63,11.63,0,0,1,0-1.18c.32-4.21.32-4.21-3.66-2.81-.65-2,.42-3,2.08-2.51C503.81,307,506.73,306,509.69,306.17Z" transform="translate(-120.45 -178.41)"/><path class="cls-3" d="M142,271.83c1.23-.24,2.48-1.66,3.67.17,1.05,1.62,2.54,3.1,1,5.19C143,277.28,144,273.22,142,271.83Z" transform="translate(-120.45 -178.41)"/><path class="cls-6" d="M617.76,247.56l-6.49,0c5-2.7,9.76-2.2,14.4.85l-3.25-.24C621,247.12,619.34,247.56,617.76,247.56Z" transform="translate(-120.45 -178.41)"/><path class="cls-6" d="M539.07,260.34l.15-11.16C541.55,251.61,541.46,258.27,539.07,260.34Z" transform="translate(-120.45 -178.41)"/><path class="cls-6" d="M608.05,297.3l15.16-.23C618.21,300.3,613.12,298.17,608.05,297.3Z" transform="translate(-120.45 -178.41)"/><path class="cls-6" d="M709,296.43l18.37-.13c-1.36,1.55-3.21,1-4.81.88C718,296.9,713.42,298.16,709,296.43Z" transform="translate(-120.45 -178.41)"/><path class="cls-6" d="M599.36,295.42l7.15,1.62A4.37,4.37,0,0,1,599.36,295.42Z" transform="translate(-120.45 -178.41)"/><path class="cls-3" d="M238.64,237.71a2.91,2.91,0,0,1-4.17-1.45c-.18-.33-.17-.34,1.14-1.75C237,235.22,238.76,235.58,238.64,237.71Z" transform="translate(-120.45 -178.41)"/><path class="cls-6" d="M497.06,282.15a10.29,10.29,0,0,1-7.3,2.37l-1-.18A10.77,10.77,0,0,1,497.06,282.15Z" transform="translate(-120.45 -178.41)"/><path class="cls-6" d="M651.22,264.52l-.75-.33-.58-.55-1.89-4C652.32,259.12,651.18,262.22,651.22,264.52Z" transform="translate(-120.45 -178.41)"/><path class="cls-5" d="M250.72,259.71c-2.37-1.69-1.15-4.28-1.61-6.45C252.38,254.73,250.28,257.54,250.72,259.71Z" transform="translate(-120.45 -178.41)"/><path class="cls-6" d="M672.37,251.85c-2,1.2-3.43,3.14-5.7,3.91C666.85,252,669.4,251.59,672.37,251.85Z" transform="translate(-120.45 -178.41)"/><path class="cls-3" d="M233.29,232.36c-.25,1.86-1.37,1.42-2.53,1-.92-.34-1.73-.89-1.46-1.92s1.51-.6,2.3-.84Z" transform="translate(-120.45 -178.41)"/><path class="cls-6" d="M639.24,327a3.26,3.26,0,0,1,0-2.51c1.76,0,2.85.71,2.24,2.53S640,327.67,639.24,327Z" transform="translate(-120.45 -178.41)"/><path class="cls-5" d="M189.76,237.1c2.94-1,5.94-.75,9-.39C195.76,237.62,192.75,237.11,189.76,237.1Z" transform="translate(-120.45 -178.41)"/><path class="cls-6" d="M632.84,294.81c1.89-.79,3.58-2,5.67-2.33C637.47,295.32,635,294.73,632.84,294.81Z" transform="translate(-120.45 -178.41)"/><path class="cls-6" d="M633.69,250.78c-1.33-.7-3-.39-4.2-1.5C631.54,248,632.91,248.55,633.69,250.78Z" transform="translate(-120.45 -178.41)"/><path class="cls-6" d="M695.47,327.38l5.49,1.21C698.66,330.32,697,329.08,695.47,327.38Z" transform="translate(-120.45 -178.41)"/><path class="cls-6" d="M535,310.19c-.81-1.1-2.58-1.06-3-2.56C533.75,307.58,535.44,307.64,535,310.19Z" transform="translate(-120.45 -178.41)"/><path class="cls-6" d="M675.79,250.13c-.86,1.14-2.19,1.36-3.44,1.74C672.76,249.83,674.29,250,675.79,250.13Z" transform="translate(-120.45 -178.41)"/><path class="cls-6" d="M655.1,305.58a8.07,8.07,0,0,1-3.92-1.05C652.55,304.65,654.2,303.72,655.1,305.58Z" transform="translate(-120.45 -178.41)"/><path class="cls-5" d="M160.47,229.26a3.52,3.52,0,0,1-2.61,1.26C158.23,229.06,159.35,229.16,160.47,229.26Z" transform="translate(-120.45 -178.41)"/><path class="cls-7" d="M187.72,285.19c-1.21.09-2.46.32-3.41-.76A4.49,4.49,0,0,1,187.72,285.19Z" transform="translate(-120.45 -178.41)"/><path class="cls-5" d="M212.19,283.06l-3-.25C210.26,281.89,211.3,281.52,212.19,283.06Z" transform="translate(-120.45 -178.41)"/><path class="cls-6" d="M628.88,249.12c-1,.07-2,.29-2.78-.61C627.1,248.41,628.09,248.28,628.88,249.12Z" transform="translate(-120.45 -178.41)"/><path class="cls-6" d="M537.56,248.44a4.12,4.12,0,0,1-3-.1A2,2,0,0,1,537.56,248.44Z" transform="translate(-120.45 -178.41)"/><path class="cls-5" d="M143.49,257.93l-2.4-.06A1.4,1.4,0,0,1,143.49,257.93Z" transform="translate(-120.45 -178.41)"/><path class="cls-6" d="M639.25,322.84v-2.39C640.25,321.25,640.25,322,639.25,322.84Z" transform="translate(-120.45 -178.41)"/><path class="cls-6" d="M534.37,247.36l-.11.07-.55-.91Z" transform="translate(-120.45 -178.41)"/><path class="cls-5" d="M485.34,284.48l1.75-.13a1.52,1.52,0,0,1,0,.56A1.74,1.74,0,0,1,485.34,284.48Z" transform="translate(-120.45 -178.41)"/><path class="cls-6" d="M610.45,247.64l-.78.06C609.9,247.27,610.15,247.22,610.45,247.64Z" transform="translate(-120.45 -178.41)"/><path class="cls-5" d="M488.74,284.34l1,.18-1.08.34A.93.93,0,0,1,488.74,284.34Z" transform="translate(-120.45 -178.41)"/><path class="cls-7" d="M175.53,299.14c.46-.22.71,0,.92.38Z" transform="translate(-120.45 -178.41)"/><path class="cls-6" d="M664.92,254.79l.16-.27-.16.27Z" transform="translate(-120.45 -178.41)"/><polygon class="cls-4" points="509.78 151.31 509.63 151.17 509.47 151.31 509.63 151.49 509.78 151.31"/><path class="cls-6" d="M723.4,317.24l.15-.27-.15.27Z" transform="translate(-120.45 -178.41)"/><path class="cls-1" d="M377.37,285.5a17,17,0,0,1-12.51-5.75c-4.87-5.5-3.52-12.32,2.05-16.27,8.47-6,22.06-4.93,28.83,2.12,4.22,4.41,3.57,12.28-2.42,16.16C389.13,284.47,385.52,285.41,377.37,285.5Z" transform="translate(-120.45 -178.41)"/><path class="cls-1" d="M599.81,279.69c-4.52-4-4.41-10.57.78-15.25,7.58-6.83,22.62-6.36,29.11.69a23.4,23.4,0,0,1,.55,3.08c.21,4,1.7,7.81-2.88,11.27-2.06,1.55-5,2.56-6.47,5l.05,0c-5.16-.3-10.35.54-15.34-2.21C603.9,281.31,602.43,278.84,599.81,279.69Z" transform="translate(-120.45 -178.41)"/><path class="cls-6" d="M620.9,284.49c1.5-2.45,4.41-3.46,6.47-5,4.58-3.46,3.09-7.28,2.88-11.27a23.4,23.4,0,0,0-.55-3.08c5.71,4,5,14.1-4.63,18.34C623.81,284,622.47,284.92,620.9,284.49Z" transform="translate(-120.45 -178.41)"/><path class="cls-6" d="M599.81,279.69c2.62-.85,4.09,1.62,5.8,2.57,5,2.75,10.18,1.91,15.34,2.21C613.87,287.05,603,285,599.81,279.69Z" transform="translate(-120.45 -178.41)"/><path class="cls-5" d="M617.76,247.56c1.58,0,3.22-.44,4.66.59A14.15,14.15,0,0,1,617.76,247.56Z" transform="translate(-120.45 -178.41)"/><path class="cls-1" d="M636.05,251.61l.81.58C636.37,252.31,636.21,252,636.05,251.61Z" transform="translate(-120.45 -178.41)"/><path class="cls-1" d="M649.89,263.64l.58.55C649.81,264.49,649.87,264.05,649.89,263.64Z" transform="translate(-120.45 -178.41)"/><path class="cls-7" d="M186.63,294.7c2.75.06,5.5.1,8.25.19.89,0,2.08-.08,2.16,1.14.1,1.66-1.38,1.35-2.29,1.3-2.72-.12-5.51.31-8.15-.73Z" transform="translate(-120.45 -178.41)"/><path class="cls-7" d="M181.11,288.35c2.66.77,5.54.88,7.94,2.68-3.42,1.66-6.58.37-9.73-.83Z" transform="translate(-120.45 -178.41)"/><path class="cls-7" d="M218,236.3c-2.48.19-4.36-1.51-6.6-2.08l1.47-.15c2.14-.23,4.48-1.16,5.76,1.65Z" transform="translate(-120.45 -178.41)"/><path class="cls-7" d="M184.42,286.76l-3.3.13C182.17,285.56,183.28,285.84,184.42,286.76Z" transform="translate(-120.45 -178.41)"/><path class="cls-7" d="M183.39,294.07c1,0,2.15-.29,3,.65A3.14,3.14,0,0,1,183.39,294.07Z" transform="translate(-120.45 -178.41)"/><path class="cls-7" d="M189.16,287.5a2.43,2.43,0,0,1-2.15-.37A2.08,2.08,0,0,1,189.16,287.5Z" transform="translate(-120.45 -178.41)"/><path class="cls-7" d="M211.56,262.09c8.08,0,16.17,0,24.25,0,1.11,0,2.85-.4,2.87,1.23s-1.78,1.18-2.82,1.19c-3,0-6.09-.08-9.13-.14-4-1.9-8.51-.19-12.62-1.56C213.28,262.56,212.27,262.84,211.56,262.09Z" transform="translate(-120.45 -178.41)"/><path class="cls-3" d="M226.76,242c6.09,1.81,9.58,10.45,9.46,16.1,0,.95-.53,1.58-1.43,1.52-2.16-.14-4.44.74-6.48-.64l.13-.88c1.18-1.31,4.05.5,4.24-1.68s0-4.84-1.82-6.64c-1.55-1.55-1.85-4-4-5.12-1.31-.68-.09-1.82,0-2.75Z" transform="translate(-120.45 -178.41)"/><path class="cls-3" d="M228.34,236.41c3.2-.9,4.52,2,6,3.56a28.71,28.71,0,0,1,6.9,10.53,3.12,3.12,0,0,0,.68,2.79l.25,1.32c-.87.56-1.27,1.85-2.62,1.68a27.42,27.42,0,0,0-9.83-16.53c-1-.86-1.84-1.91-1.35-3.43Z" transform="translate(-120.45 -178.41)"/><path class="cls-3" d="M228.41,236.33a4.56,4.56,0,0,1-4.44-1c-4.09-3.07-8.77-4.71-13.58-6.1-.9-.26-2-.42-1.95-1.59.08-1.42,1.36-1.09,2.16-.93a43.89,43.89,0,0,1,17.67,8.19c.25.19.06,1,.07,1.51Z" transform="translate(-120.45 -178.41)"/><path class="cls-3" d="M218,236.3l.63-.58c3.9.56,6.86,2.34,8.14,6.3l.08-.09C222.49,242.26,220.34,239.12,218,236.3Z" transform="translate(-120.45 -178.41)"/><path class="cls-7" d="M239.59,256.29c1.35.17,1.75-1.12,2.62-1.68,1,2.12.54,4.37.58,6.57,0,.95-.14,1.87-1.44,1.82s-1.84-.71-1.79-2C239.62,259.43,239.59,257.86,239.59,256.29Z" transform="translate(-120.45 -178.41)"/><path class="cls-7" d="M228.44,258.12l-.13.88a26,26,0,0,1-3.35.73c-.83.08-2.14.3-2.1-1.06,0-1.19,1.23-1.13,2.15-1.2C226.22,257.37,227.17,258.58,228.44,258.12Z" transform="translate(-120.45 -178.41)"/><path class="cls-7" d="M242,253.29a3.12,3.12,0,0,1-.68-2.79A3.38,3.38,0,0,1,242,253.29Z" transform="translate(-120.45 -178.41)"/><path class="cls-3" d="M146.62,261c.61-4.72.66-9.34,3.43-13.31.72-1,1.23-2.21,2.7-1.58,1.7.73.87,2.12.3,3-3.9,6-3.11,12.52-2.22,19,.16,1.14,1.11,2.53-.67,2.91-1.55.32-2.36-.87-2.55-2.37C147.27,266.1,146.94,263.47,146.62,261Z" transform="translate(-120.45 -178.41)"/><path class="cls-3" d="M153.22,260.41c-.3-7,2.79-12.58,7.29-17.6.83-.92,1.88-1.36,2.79-.73,1.26.87.3,2-.37,2.69a23.31,23.31,0,0,0-6.47,19c.1,1.08.3,2.23-1.33,2.29-1.42.06-1.79-1-1.89-2.08S153.22,261.61,153.22,260.41Z" transform="translate(-120.45 -178.41)"/><path class="cls-3" d="M150.86,272.7c1.76-.15,2.25.49,2.6,1.23,2.15,4.47,5.59,7.78,9.42,10.78.72.57,1.63,1.35,1,2.33a1.7,1.7,0,0,1-2.51.21c-4.19-3.52-8.4-7-10.84-12.14C149.88,273.77,149.93,272.84,150.86,272.7Z" transform="translate(-120.45 -178.41)"/><path class="cls-3" d="M160.38,276.33c-2.22-.22-6.19-4.78-5.92-6.88a1.83,1.83,0,0,1,.69-1.28c.57-.29,1.59-.31,1.81.28,1,2.69,4.19,4.49,3.35,7.95Z" transform="translate(-120.45 -178.41)"/><path class="cls-3" d="M162.6,279.69c-1.79-.43-3.58-.85-2.22-3.36l-.07.07c2.09.24,3.88.67,2.2,3.36Z" transform="translate(-120.45 -178.41)"/><path class="cls-3" d="M154.88,242.2c.9,0,1.51.36,1.41,1.39s-1.11,1-1.77,1.09c-.93.18-1.52-.36-1.35-1.31A1.46,1.46,0,0,1,154.88,242.2Z" transform="translate(-120.45 -178.41)"/><path class="cls-6" d="M512.17,313.68c3-4.84,10.69-5,14.39,0Z" transform="translate(-120.45 -178.41)"/><path class="cls-6" d="M614.66,313.83H599.91a8.36,8.36,0,0,1,8.26-3.75C610.7,310.29,613.39,310.51,614.66,313.83Z" transform="translate(-120.45 -178.41)"/><path class="cls-5" d="M610.38,328.93a8.33,8.33,0,0,1-6.3-.22Z" transform="translate(-120.45 -178.41)"/><path class="cls-6" d="M717,315.68c-4.53-.78-9.07-1.58-13.61-2.32-1.22-.2-2.62-.26-2.42-1.9s1.65-1.52,2.83-1.44c2,.15,4-.65,5.61,1.78,1,1.58,3.51.53,5.29,1C714.74,314.32,716.3,314.66,717,315.68Z" transform="translate(-120.45 -178.41)"/><path class="cls-1" d="M691.24,310c-1-.17-2.47.45-2.83-1.19-.11-.5.3-1,.89-1.06,1.3-.25,1.91.41,2.13,1.59A.7.7,0,0,1,691.24,310Z" transform="translate(-120.45 -178.41)"/><path class="cls-1" d="M717,315.68c-.69-1-2.25-1.36-2.3-2.89l1.33,0c2.11.42,2.61,1.57,1.55,3.43Z" transform="translate(-120.45 -178.41)"/><path class="cls-7" d="M196.49,292.56c-1.6,0-3.19,0-4.79,0-.78,0-1.74-.12-1.69-1.2s.93-1.22,1.76-1.21a78.41,78.41,0,0,0,14.68-.95c.66-.11,1.75-.24,1.88.88s-.79,1.25-1.57,1.41A42.24,42.24,0,0,1,196.49,292.56Z" transform="translate(-120.45 -178.41)"/><path class="cls-7" d="M210.41,290.42c-.76-.11-1.37-.36-1.31-1.2.1-1.21,1-1.47,2-1.41.7,0,1.35.36,1.29,1.17C212.28,290.18,211.3,290.31,210.41,290.42Z" transform="translate(-120.45 -178.41)"/><path class="cls-1" d="M241.47,454.85" transform="translate(-120.45 -178.41)"/><path class="cls-1" d="M177.89,84.13" transform="translate(-120.45 -178.41)"/></svg>