<svg id="Capa_5" data-name="Capa 5" xmlns="http://www.w3.org/2000/svg" viewBox="0 0 764.21 907.09"><defs><style>.cls-1{fill:#525353;}</style></defs><path id="Icon_awesome-java" data-name="Icon awesome-java" class="cls-1" d="M871.32,632.65a347.13,347.13,0,0,1,47.37-22.15s-78.35,12.4-156.29,18.07c-95.35,6.91-197.79,8.33-249.2,2.3C391.53,616.68,580,577.55,580,577.55a404.66,404.66,0,0,0-163.18,33.66C310.54,656.22,680,676.76,871.32,632.65ZM698.41,575.78c-38.47-75.65-168.24-142.08,0-258.31C908.29,172.56,800.66,78.31,800.66,78.31c43.53,149.7-153,195.05-224.11,288.07C528.17,430,600.24,498.19,698.43,575.78Zm232-312.16c.2,0-354.68,77.6-185.23,248.39,50,50.31-13.16,95.67-13.16,95.67S859,550.28,800.67,478.52c-54.49-67-96.16-100.27,129.77-214.9ZM918.09,742.85a22.16,22.16,0,0,1-4.05,4.6c259.74-59.7,164.19-210.64,40.08-172.37a34.82,34.82,0,0,0-16.61,11.16,158.45,158.45,0,0,1,22.27-5.32C1022.55,569.41,1112.64,654.44,918.09,742.85Zm95.47,110.37s29.35,21.08-32.19,37.56c-117.22,31-487.49,40.4-590.33,1.24-37.05-14,32.38-33.66,54.25-37.73a167.73,167.73,0,0,1,35.84-3.55C440,825.41,215.31,900.52,367,922,780.42,980.78,1120.86,895.56,1013.56,853.22ZM561,779.86c-159.33,39,97,119.41,299.82,43.39A402.2,402.2,0,0,1,803.7,798.8c-90.49,15.05-132.4,16.12-214.6,8C521.28,800,561,779.84,561,779.84ZM925,952.07c-159.33,26.22-355.9,23.21-472.31,6.38,0-.17,23.89,17.19,146.58,24.1,186.66,10.45,473.32-5.85,480-83.09,0,0-13,29.23-154.26,52.62ZM836.7,703.69c-119.85,20.2-189.29,19.67-277,11.69-67.82-6.2-23.48-34.9-23.48-34.9-175.72,51,97.58,108.79,343.15,45.89A126.5,126.5,0,0,1,836.7,703.69Z" transform="translate(-315.03 -78.31)"/></svg>