<svg id="Capa_3" data-name="Capa 3" xmlns="http://www.w3.org/2000/svg" viewBox="0 0 543.75 141.46"><defs><style>.cls-1{fill:#1e112e;}.cls-2{fill:#ffe896;}.cls-3{fill:#feca19;}.cls-4{fill:#fff;}</style></defs><path class="cls-1" d="M724,383.3H229.16c-13.59,0-24.47-16.17-24.47-36.38V278.21c0-20.21,10.88-36.38,24.47-36.38H724c13.6,0,24.47,16.17,24.47,36.38v68.71C748.44,367.13,737.57,383.3,724,383.3Z" transform="translate(-204.69 -241.83)"/><ellipse class="cls-2" cx="147.9" cy="70.73" rx="24.47" ry="36.38"/><ellipse class="cls-3" cx="106.58" cy="70.73" rx="24.47" ry="36.38"/><g id="cA4xf6"><path class="cls-1" d="M348.78,329.94v-2.42c0-.41.28-.81.55-.81,1.09-.81,2.17-1.21,3.26-2,.54-.4.82,0,.82.81v1.21c0,.81.27,1.21.81,1.21s.82-.4.82-1.21v-2.83a2.41,2.41,0,0,1,.54-1.21c3-1.62,6-3.64,8.7-5.26.54-.4.82,0,.82.41.27.4,0,1.21-.28,1.21-1.63.81-3.26,2-4.89,2.83-1.09.81-2.17,1.21-3.26,2-.27,0-.27.41-.27.81v2c0,1.62-.82,2.83-1.91,2.83s-1.9-.81-2.17-2.43c0-.4-.27-.4-.55-.4a3.91,3.91,0,0,1-1.35.81c-.28,0-.28.4-.28.81v4a2.9,2.9,0,0,1-1.63,2.83c-.81.4-1.9-.81-2.17-2a7.34,7.34,0,0,1,0-2.43c0-.81,0-.81-.55-.4a29.79,29.79,0,0,0-3,2,1.66,1.66,0,0,1-2.44-.81,4.17,4.17,0,0,1-.28-3.64c1.36-4.44,2.45-9.29,3.81-13.74,1.9-6.47,3.81-13.34,5.44-19.8a26,26,0,0,0,.81-2.83v-1.22a3.6,3.6,0,0,1,1.09-4,1.26,1.26,0,0,1,1.63,0,25,25,0,0,1,4.08,2.83,42.37,42.37,0,0,1,9.24,12.13,51,51,0,0,1,3.81,9.29l.82,2.43c.27,1.62-.28,3.23-1.36,3.64s-2.18,0-2.45-1.62c-.54-1.62-.82-3.23-1.36-4.45C362.38,302.06,358,296,351.77,292c-.27-.4-.54,0-.54.41a25.12,25.12,0,0,0-.81,2.82.49.49,0,0,0,.27.81c3.26,1.62,4.62,7.28,2.44,11.32-1.08,2-2.44,3.23-4.07,3.23a.81.81,0,1,1,0-1.61c1.9,0,3.53-2,3.8-4.85a7.17,7.17,0,0,0-2.44-6.47c-.55-.4-.55-.4-.82.4-1.09,3.64-1.9,7.28-3,10.51-1.9,6.47-3.54,12.94-5.44,19.4-.27.81-.27,1.22,0,1.62a.65.65,0,0,0,1.09,0l4.08-2.43c.81-.4,1.08,0,1.08,1.22v2.83c0,.8.28,1.21.82,1.21s.82-.41.82-1.21c-.28.4-.28-.41-.28-1.22ZM369.17,315v-.81c-.54-1.62-1.08-3.23-1.63-4.85q-5.3-13.95-15.49-20.61c-.28,0-.28-.41-.55,0-.27,0-.54.4-.81,1.21,0,.4.27,1.21.54,1.21l4.89,3.64a42.81,42.81,0,0,1,9.25,14.15,40.43,40.43,0,0,1,1.9,5.25c0,.41.27.81.27,1.21.28.41.55.81,1.09.41C368.9,316.2,369.17,315.39,369.17,315Z" transform="translate(-204.69 -241.83)"/><path class="cls-1" d="M348,336c-.82,0-1.63-.81-1.9-2a5.1,5.1,0,0,1-.28-2v-.8h-.27l-3,2c-1.09.81-1.9.4-2.72-.81a4.42,4.42,0,0,1-.54-3.64l9.51-34.35c.28-.81.28-1.22.55-2v-.81c-.55-2,0-3.64,1.09-4.45a1.64,1.64,0,0,1,1.9,0,46.84,46.84,0,0,1,4.08,2.83,48.62,48.62,0,0,1,9.51,12.13,51.41,51.41,0,0,1,3.81,9.29c0,.41.27.41.27.81a5.63,5.63,0,0,1,.54,2c.28,1.62-.27,3.64-1.36,4-1.08.81-2.44,0-2.71-2h0c-.55-1.61-.82-2.83-1.36-4.44-3.27-8.49-7.89-14.55-13.6-18.19h-.27v.4a26,26,0,0,0-.81,2.83v.41h.27q2.44,1.2,3.26,4.85a9.89,9.89,0,0,1-.82,6.87c-1.08,2-2.44,3.23-4.35,3.23A1.1,1.1,0,0,1,347.7,311c0-.41,0-.81.27-.81a.81.81,0,0,1,.81-.4c1.91,0,3.27-2,3.54-4.45.27-2.83-.82-5.26-2.45-6.06h-.27v.4L345.79,313c-1.63,5.66-3,10.91-4.62,16.57-.27.81-.27,1.21,0,1.21.27.41.55.41.82,0,.81-.4,1.9-1.21,2.72-1.61l1.36-.81c.54-.41.81-.41,1.08,0a2,2,0,0,1,.27,1.21v2.83c0,.4.28,1.21.55,1.21s.27,0,.27-.4a1.74,1.74,0,0,0,.27-.81v-4.85c0-.81.27-1.21.55-1.21a3,3,0,0,1,1.63-.81l1.63-1.21h.81a1.92,1.92,0,0,1,.28,1.21v.81c0,.4.27.8.54.8h0c.27,0,.54-.4.54-.8v-2.83a2.55,2.55,0,0,1,.55-1.62l5.71-3.64,3-2c.81-.4,1.08,0,1.08.41s.28.8,0,.8c0,.41-.27.81-.54.81-1.36.81-2.45,1.62-3.81,2.43l-1.9,1.21c-.81.4-1.63,1.21-2.45,1.62-.27,0-.27,0-.27.4v2c0,1.62-.81,3.24-1.9,3.24s-2.18-.81-2.45-2.83h0a3.78,3.78,0,0,1-1.36.8c-.27,0-.27,0-.27.41v4a3.27,3.27,0,0,1-1.9,3.23Zm-2.18-5.66h0a1,1,0,0,1,.28.81v2.42c.27,1.21,1.08,2,1.9,1.62.81,0,1.63-.81,1.63-2.43v-4a1.26,1.26,0,0,1,.54-1.21c.55-.41.82-.41,1.36-.81.27,0,.27-.4.55,0,.27,0,.27.4.27.81.27,1.21,1.09,2.42,1.9,2,.82,0,1.63-1.21,1.63-2.83v-2a1.25,1.25,0,0,1,.55-1.21c.81-.41,1.63-1.22,2.44-1.62l1.91-1.21c1.36-.81,2.44-1.62,3.8-2.43.27,0,.27-.4.27-.4v-.41a.3.3,0,0,0-.54,0l-3,2-5.71,3.63c-.27,0-.27.41-.27.81v2.83c0,.81-.54,1.62-1.09,1.62h0c-.54,0-1.09-.81-1.09-1.62v-.81a1,1,0,0,0-.27-.81h-.54l-1.63,1.22a3.15,3.15,0,0,1-1.63.8c-.28,0-.28.41-.28.81v2h0v2.83a2,2,0,0,1-.27,1.22.81.81,0,0,1-.81.4c-.55,0-1.09-.81-1.09-1.62v-2.83c0-.4,0-.8-.27-.8h-.55l-1.36.8c-.81.41-1.9,1.22-2.71,1.62-.28.4-.82.4-1.36-.4a2.85,2.85,0,0,1-.28-2c1.64-5.66,3-10.92,4.63-16.58l3.8-13.33c.27-.81.27-.81,1.09-.81,1.9.81,3,3.64,2.72,6.87-.27,2.83-1.9,4.85-4.08,4.85-.27,0-.54,0-.54.4V311s0,.4.54.4a4.54,4.54,0,0,0,3.81-2.83,10.41,10.41,0,0,0,.54-6.46c-.54-2-1.63-4.05-3-4.45-.27,0-.27-.4-.54-.4v-.81l.81-2.43c0-.4.27-.4.27-.81h.55c6,3.64,10.6,10.11,13.86,18.6a26.89,26.89,0,0,1,1.36,4.44h0c.27,1.21,1.36,2,2.18,1.62a3.22,3.22,0,0,0,1.08-3.23,5.68,5.68,0,0,0-.54-2c0-.4-.27-.4-.27-.8a51.51,51.51,0,0,0-3.81-9.3,48.08,48.08,0,0,0-9.24-12.13,24.34,24.34,0,0,0-4.08-2.82c-.54-.41-1.09-.41-1.36,0-1.09.8-1.36,2-1.09,3.63,0,.41.28.81,0,1.22-.27.8-.27,1.21-.54,2l-9.52,34.35A4.44,4.44,0,0,0,339,332c.54.81,1.36,1.22,2.17.41l3-2Zm22.57-13.74a1,1,0,0,1-.82-.81,2,2,0,0,1-.27-1.21c-.54-1.62-1.09-3.24-1.9-5.26a40.51,40.51,0,0,0-9-13.74,12.88,12.88,0,0,0-4.9-3.64,1.76,1.76,0,0,1-.81-1.62,1.12,1.12,0,0,1,.81-1.21h.82c6.8,4,12,11.32,15.5,20.62a18.52,18.52,0,0,1,1.08,3.63c0,.41.27.81.27,1.22v.8h0a1.76,1.76,0,0,1-.81,1.62C368.63,316.61,368.36,316.61,368.36,316.61ZM351.5,289.12h0c-.27,0-.54.41-.54.81s0,.81.54.81a36.92,36.92,0,0,1,4.9,3.64,42.79,42.79,0,0,1,9.24,14.14c.82,2,1.36,3.64,1.9,5.26,0,.4.28.81.28,1.21s.54.4.81.4.54-.4.54-.8v-.41c0-.4-.27-.81-.27-1.21-.27-1.21-.81-2.43-1.08-3.64-3.54-9.3-8.7-16.17-15.5-20.21Z" transform="translate(-204.69 -241.83)"/><path class="cls-1" d="M359.12,317c-1.64,0-3.27-2-3.27-4.85,0-2.42,1.36-4.85,3.27-4.85,1.63,0,3.26,2,3.26,4.85C362.11,315,360.75,317,359.12,317Z" transform="translate(-204.69 -241.83)"/><path class="cls-1" d="M359.12,317.41h0c-1.91,0-3.27-2.42-3.27-4.85a6.23,6.23,0,0,1,1.09-3.63,3.12,3.12,0,0,1,2.45-1.62,2.93,2.93,0,0,1,2.44,1.62,6.38,6.38,0,0,1,1.09,3.63C362.38,315,361,317.41,359.12,317.41Zm0-.8h0c1.63,0,3-2,3-4.45a6.05,6.05,0,0,0-.82-3.23,2.55,2.55,0,0,0-4.35,0,6.05,6.05,0,0,0-.82,3.23C356.12,314.59,357.48,316.61,359.12,316.61Z" transform="translate(-204.69 -241.83)"/><path class="cls-1" d="M350.42,320.65c0,2-1.09,3.64-2.45,3.64s-2.45-1.62-2.45-3.64S346.61,317,348,317,350.42,318.63,350.42,320.65Z" transform="translate(-204.69 -241.83)"/><path class="cls-1" d="M348,324.29h0a2.19,2.19,0,0,1-1.9-1.22,4.61,4.61,0,0,1-.82-2.83c0-2,1.09-3.63,2.72-3.63,1.36,0,2.45,1.61,2.45,4C350.69,322.67,349.33,324.29,348,324.29Zm0-6.88c-1.09,0-2.18,1.22-2.18,3.24a7.84,7.84,0,0,0,.55,2.42c.27.81.81.81,1.63.81h0c1.09,0,2.17-1.21,2.17-3.23h0c0-2-.81-3.24-2.17-3.24Z" transform="translate(-204.69 -241.83)"/><path class="cls-1" d="M354,315.39c0,.41-.27,1.22-.54,1.22a1.12,1.12,0,0,1-.82-1.22c0-.4.27-.8.54-.8A.78.78,0,0,1,354,315.39Z" transform="translate(-204.69 -241.83)"/><path class="cls-1" d="M353.41,317c-.28,0-.55,0-.55-.4a1,1,0,0,1-.27-.81c0-.81.27-1.21.82-1.21.27,0,.54,0,.54.4.27-.4.27,0,.27.4h0c0,.41,0,.81-.27.81-.27.41-.27.81-.54.81Zm0-2h0c-.28,0-.55.4-.55.81v.4l.27.41h0s.28,0,.28-.41v-.81C353.68,315,353.41,315,353.41,315Z" transform="translate(-204.69 -241.83)"/><path class="cls-1" d="M357.48,303.27c0,.4-.27,1.21-.81.81-.27,0-.55-.41-.55-1.22a.78.78,0,0,1,.82-.8A2.37,2.37,0,0,1,357.48,303.27Z" transform="translate(-204.69 -241.83)"/><path class="cls-1" d="M356.94,304.88h0c-.27,0-.54,0-.54-.4a1.55,1.55,0,0,1-.28-.81,1.12,1.12,0,0,1,.82-1.21h0c.27,0,.54,0,.54.4.28.41.28.41.28.81h0c0,.41,0,.81-.28.81S357.21,304.88,356.94,304.88Zm0-2c-.27,0-.54.41-.54.81v.41l.27.4h.27l.27-.4v-.41c0-.81-.27-.81-.27-.81Z" transform="translate(-204.69 -241.83)"/></g><g id="_3kxP7I" data-name="3kxP7I"><path class="cls-1" d="M311.54,332.37h-8.43c-3.54,0-6.25-3.64-6.8-8.89,0-.81-.27-1.62.27-2.43.28,0,0-.4,0-.4a6.75,6.75,0,0,1,.55-6.06s.27-.41,0-.41a5.52,5.52,0,0,1-.27-3.64c0-.4,0-.4-.28-.8-.54-.41-.54-.81-.54-1.62.82-4,1.9-7.68,4.08-10.51,3-4.45,6.52-6.47,10.6-6.87a12.27,12.27,0,0,1,9.79,4,24.48,24.48,0,0,1,6,12.93c.27,1.22,0,1.22-.54,2-.28,0-.28.4-.28.4,0,1.21.28,2.42-.54,3.64v.4a6.73,6.73,0,0,1,.54,6.06v.41a1.93,1.93,0,0,1,.28,1.21c0,5.25-3,9.7-6.53,9.7-2.17.81-5.16.81-7.88.81Zm0-24.25h13c.54,0,.54,0,.27-.81a20,20,0,0,0-6-10.91,12,12,0,0,0-9.52-2.83q-8.57,1.81-11.42,13.34c-.27.8-.27.8.28.8C302.84,308.12,307.19,308.12,311.54,308.12Zm-4.08,15.36h-9.24c-.55,0-.55,0-.55.81.55,3.23,2.72,5.65,5.17,5.65h18.21c2.18-.8,3.54-2.83,4.08-5.65,0-.41,0-.81-.27-.81H323a.82.82,0,0,0-.82.4c-.54.81-.82,1.62-1.36,2.43s-.81.8-1.09,0c-.54-.81-1.08-1.22-1.63-2a1.78,1.78,0,0,0-1.36-.81Zm4.08-13.34H299.3a.81.81,0,0,0-.81.4,3.75,3.75,0,0,0,0,2.43c0,.81.54.81,1.08.81h.55c1.09,0,1.9.4,2.17,2,.55,1.61,2.45,2,3.27.4.54-.81.81-.81,1.36,0,.81,1.21,1.9.81,2.71-.81.55-1.21,1.09-1.61,1.91-1.61h12.23a.82.82,0,0,0,.82-.41,3.72,3.72,0,0,0,0-2.42c-.27-.81-.55-.81-1.09-.81Z" transform="translate(-204.69 -241.83)"/><path class="cls-1" d="M303.11,303.67c0,.41-.27,1.21-.82,1.21s-.81-.4-.81-1.21c0-.4.27-1.21.81-1.21S303.11,302.86,303.11,303.67Z" transform="translate(-204.69 -241.83)"/><path class="cls-1" d="M320.51,302.46a1.12,1.12,0,0,1,.81,1.21c0,.41-.27,1.21-.81,1.21s-.82-.4-.82-1.21S320,302.46,320.51,302.46Z" transform="translate(-204.69 -241.83)"/><path class="cls-1" d="M309.09,303.67c0,.41-.27,1.21-.82,1.21s-.81-.4-.81-1.21.27-1.21.81-1.21S309.09,302.86,309.09,303.67Z" transform="translate(-204.69 -241.83)"/><path class="cls-1" d="M315.07,303.67c0,.81-.27,1.21-.81,1.21a1.11,1.11,0,0,1-.82-1.21c0-.4.27-1.21.82-1.21S315.07,302.86,315.07,303.67Z" transform="translate(-204.69 -241.83)"/><path class="cls-1" d="M306.92,298c0,.81-.28,1.22-.82,1.22a1.13,1.13,0,0,1-.82-1.22c0-.8.28-1.21.82-1.21S306.92,297.21,306.92,298Z" transform="translate(-204.69 -241.83)"/><path class="cls-1" d="M311.54,299.23c-.55,0-.82-.41-.82-1.22,0-.4.27-1.21.82-1.21s.81.41.81,1.21C312.08,298.42,311.81,299.23,311.54,299.23Z" transform="translate(-204.69 -241.83)"/><path class="cls-1" d="M317.52,298c0,.81-.27,1.22-.82,1.22a1.13,1.13,0,0,1-.81-1.22c0-.8.27-1.21.81-1.21A1.13,1.13,0,0,1,317.52,298Z" transform="translate(-204.69 -241.83)"/></g><path class="cls-4" d="M267.77,276.19c-6.8,0-12.78,4-17.13,10.51H240.31c-1.36,0-2.45,1.61-2.45,3.63S239,294,240.31,294h6.52a74.39,74.39,0,0,0-2.17,7.28h-16c-1.36,0-2.45,1.61-2.45,3.63s1.09,3.64,2.45,3.64H243.3v7.28H232.69c-1.36,0-2.44,1.61-2.44,3.64s1.08,3.63,2.44,3.63h11.69a74.47,74.47,0,0,0,2.18,7.28h-22c-1.36,0-2.45,1.61-2.45,3.64s1.09,3.63,2.45,3.63h26.37c4.35,6.47,10.33,10.51,17.13,10.51,13.59,0,24.47-16.17,24.47-36.37C292.23,292.36,281.36,276.19,267.77,276.19Z" transform="translate(-204.69 -241.83)"/><path class="cls-4" d="M227.26,294h5.16c1.36,0,2.45-1.61,2.45-3.64s-1.09-3.63-2.45-3.63h-5.16c-1.36,0-2.45,1.61-2.45,3.63S225.9,294,227.26,294Z" transform="translate(-204.69 -241.83)"/><path class="cls-4" d="M225.62,323.88h0c1.64,0,2.72-1.62,2.72-3.64s-1.08-3.63-2.44-3.63h-.28c-1.35,0-2.44,1.61-2.44,3.63S224.27,323.88,225.62,323.88Z" transform="translate(-204.69 -241.83)"/><path class="cls-4" d="M219.1,316.2h0c-1.63,0-2.72,1.62-2.72,3.64s1.09,3.64,2.45,3.64h.27c1.36,0,2.45-1.62,2.45-3.64S220.46,316.2,219.1,316.2Z" transform="translate(-204.69 -241.83)"/><path class="cls-4" d="M217.2,331.16h-2.72c-1.36,0-2.45,1.61-2.45,3.63s1.09,3.64,2.45,3.64h3c1.36,0,2.45-1.61,2.45-3.64S218.56,331.16,217.2,331.16Z" transform="translate(-204.69 -241.83)"/><g id="rzxxSn"><path class="cls-1" d="M277,313.78c-.54,5.66-1.09,11.72-1.63,17.38-.27,3.63-2.18,6.06-4.62,6.06H260.7c-2.45,0-3.81-2-3.27-6.06,1.09-11.72,2.45-23.45,3.54-34.76.27-3.64,2.17-6.07,4.62-6.07h10.06c2.45,0,3.81,2,3.26,6.07C278.1,302.06,277.55,307.71,277,313.78ZM265.59,335.6h4.62c2.45,0,3.54-1.21,3.81-5.25v-1.21c.27-1.22,0-1.22-.82-1.22H260.42c-2.17,0-2.17,0-2.44,3.24-.27,2.83.54,4,2.44,4A23.78,23.78,0,0,0,265.59,335.6Zm11.15-38c.27,0,.81,0,.81-.81.55-3.23-.27-5.25-2.44-5.25H265.05c-1.91,0-3,1.61-3.54,4.44-.27,1.22,0,1.62.82,1.62Z" transform="translate(-204.69 -241.83)"/><path class="cls-1" d="M265.59,337.62H260.7a3.68,3.68,0,0,1-3-1.61,11.93,11.93,0,0,1-.82-4.85c1.09-11.72,2.45-23.45,3.53-34.76.55-4,2.18-6.47,4.9-6.47h10.06a3.7,3.7,0,0,1,3,1.62,12.09,12.09,0,0,1,.81,4.85c-.54,4-.81,8.08-1.36,12.53l-1.08,10.51c-.27,4-.82,8.08-1.09,11.72-.54,4-2.18,6.46-4.89,6.46Zm4.62-46.88h-4.89c-2.18,0-3.81,2-4.08,5.25-1.09,11.72-2.45,23.45-3.53,34.76a6.53,6.53,0,0,0,.54,4A2.75,2.75,0,0,0,260.7,336h10.06c2.17,0,3.8-2,4.07-5.26.55-4,.82-8.08,1.09-11.72L277,308.52c.54-4,.81-8.08,1.36-12.53a6.54,6.54,0,0,0-.55-4,2.73,2.73,0,0,0-2.44-1.21ZM262.6,336h-1.9a2.75,2.75,0,0,1-2.45-1.22,4.91,4.91,0,0,1-.54-3.63c.27-3.64.54-4.05,3-4.05h13.05c.54,0,.81,0,1.08.41a1.67,1.67,0,0,1,0,1.62v1.21c-.54,4-1.63,5.66-4.35,5.66H262.6Zm-2.18-7.28c-1.63,0-1.63,0-1.9,2.83a5.35,5.35,0,0,0,.27,2.43,1.94,1.94,0,0,0,1.63.8h9.52c2.45,0,3-1.21,3.53-4.44v-1.62H260.42Zm1.91-30.31a1.24,1.24,0,0,1-1.09-.41,3.38,3.38,0,0,1-.27-1.61c.27-3.24,1.63-5.26,3.8-5.26h10.06a2.43,2.43,0,0,1,2.45,1.62,6,6,0,0,1,.27,4.45c.27,1.21-.27,1.21-.81,1.21v0H262.33Zm4.35-1.21h10.06c.27,0,.27,0,.27-.41a4.3,4.3,0,0,0-.27-3.23,1.92,1.92,0,0,0-1.91-1.21H264.77c-1.9,0-2.71,1.21-3,4v.81h4.9Z" transform="translate(-204.69 -241.83)"/><path class="cls-1" d="M267.49,332c-.27,1.22-.81,2-1.63,2s-1.36-.81-1.09-2a1.86,1.86,0,0,1,1.64-2C267.22,329.54,267.77,330.75,267.49,332Z" transform="translate(-204.69 -241.83)"/><path class="cls-1" d="M265.86,334.39h0a1.79,1.79,0,0,1-1.36-.81,2.43,2.43,0,0,1-.27-2c.27-1.62,1.09-2.83,2.18-2.83a1.84,1.84,0,0,1,1.36.81,2.43,2.43,0,0,1,.27,2C267.77,333.18,267,334.39,265.86,334.39Zm.55-4c-.55,0-1.09.81-1.36,1.61,0,.41,0,.81.27.81.27.41.27.41.54.41.55,0,1.09-.81,1.36-1.62h0a2,2,0,0,0-.27-1.21Z" transform="translate(-204.69 -241.83)"/><path class="cls-1" d="M269.67,294.78h-1.36c-.27,0-.54-.4-.54-.81s.27-.81.54-.81H271c.27,0,.54.41.54.81s-.27.81-.54.81Z" transform="translate(-204.69 -241.83)"/><path class="cls-1" d="M270.48,295.59h-1.9c-.27,0-.54-.41-.81-.41,0-.4-.28-.4,0-1.21a1.1,1.1,0,0,1,1.08-1.21h2.72c.27,0,.55.4.82.4a2.35,2.35,0,0,1,.27,1.22,1.11,1.11,0,0,1-1.09,1.21Zm-.27-1.21h0Z" transform="translate(-204.69 -241.83)"/></g><path class="cls-4" d="M390.38,327.92a35.5,35.5,0,0,1-1.9-4.85,34.75,34.75,0,0,1-1.09-5.25,51.27,51.27,0,0,1,0-10.51,34.75,34.75,0,0,1,1.09-5.25,35.5,35.5,0,0,1,1.9-4.85,22.08,22.08,0,0,1,4.08-6.47,33.91,33.91,0,0,1,5.44-4.45,15.11,15.11,0,0,1,6-1.61,18.66,18.66,0,0,1,4.62.8,11.94,11.94,0,0,1,4.35,2.43,21.6,21.6,0,0,1,3.81,4,28.53,28.53,0,0,1,3,5.26A38.14,38.14,0,0,1,424.91,313a37.43,37.43,0,0,1-.82,8.08,34,34,0,0,1-2.44,7.68,28.86,28.86,0,0,1-3,5.26,21.91,21.91,0,0,1-3.81,4,10,10,0,0,1-4.35,2.42,18.23,18.23,0,0,1-4.62.81,10.46,10.46,0,0,1-6-1.62,14.81,14.81,0,0,1-5.44-4.44A35,35,0,0,1,390.38,327.92Zm7.89-15.36a16.7,16.7,0,0,0,1.08,6.47c.82,2,1.63,3.64,2.72,4.45a4.9,4.9,0,0,0,3.81,1.61c.54,0,1.09,0,1.36-.4a8.41,8.41,0,0,0,2.44-1.62,8.65,8.65,0,0,0,1.91-2.83,20.61,20.61,0,0,0,1.36-3.63,21.16,21.16,0,0,0,.54-4.45,7.39,7.39,0,0,0-.27-2.42,31.32,31.32,0,0,0-1.36-5.66,9.89,9.89,0,0,0-2.72-3.64,5.6,5.6,0,0,0-3.53-1.21,4.9,4.9,0,0,0-3.81,1.61,10.36,10.36,0,0,0-2.72,4.45A33.33,33.33,0,0,0,398.27,312.56Z" transform="translate(-204.69 -241.83)"/><path class="cls-4" d="M432.79,340.45c-1.63,0-3-.81-4.07-2.83a10.58,10.58,0,0,1-1.64-6.06V294.38a12.07,12.07,0,0,1,.82-4.85,10.74,10.74,0,0,1,1.9-3.24,4.25,4.25,0,0,1,3-1.21h10.88a9.94,9.94,0,0,1,6,1.62,13.69,13.69,0,0,1,4.35,4.44,19,19,0,0,1,2.17,7.28,28.14,28.14,0,0,1,.28,4.85,21.19,21.19,0,0,1-3.27,12.12l-.27.41L451.82,317l-.81.81,4.08,8.49a12.79,12.79,0,0,1,1.08,5.65,20.84,20.84,0,0,1-.54,4.05,7.13,7.13,0,0,1-1.9,3.23,4.25,4.25,0,0,1-3.26,1.62c-2.18,0-3.81-1.62-5.17-4.85l-6.8-17V332a11.36,11.36,0,0,1-.81,4.45,10.7,10.7,0,0,1-1.91,3.23A8.1,8.1,0,0,1,432.79,340.45Zm5.71-33.54h4.62a1.81,1.81,0,0,0,1.36-.81,7.63,7.63,0,0,0,.55-2.43,3.92,3.92,0,0,0-.55-2,1.81,1.81,0,0,0-1.36-.81H438.5Z" transform="translate(-204.69 -241.83)"/><path class="cls-4" d="M458.89,330.75V294a11.34,11.34,0,0,1,.82-4.44,7.62,7.62,0,0,1,2.17-3.24,4.25,4.25,0,0,1,3-1.21h7.89a20.93,20.93,0,0,1,7.34,1.21,17.08,17.08,0,0,1,5.71,4,22.21,22.21,0,0,1,4.08,6.47,38.21,38.21,0,0,1,2.44,8.89,50.88,50.88,0,0,1,.55,6.87,36,36,0,0,1-2.45,13.75,25.66,25.66,0,0,1-6.52,9.7,14,14,0,0,1-9.52,3.63h-9.52a4.77,4.77,0,0,1-4.07-2.42A11,11,0,0,1,458.89,330.75ZM470,324.69h2.72a5.64,5.64,0,0,0,4.35-1.62,12.55,12.55,0,0,0,3-4,13.42,13.42,0,0,0,1.09-6.06,14.76,14.76,0,0,0-.27-3.23,11.14,11.14,0,0,0-3-6.88,8,8,0,0,0-6-2.42h-2.17v24.25Z" transform="translate(-204.69 -241.83)"/><path class="cls-4" d="M495.6,334a13.66,13.66,0,0,1-.55-3.24V294a11.34,11.34,0,0,1,.82-4.44,7.62,7.62,0,0,1,2.17-3.24,4.25,4.25,0,0,1,3-1.21h13.6a5.81,5.81,0,0,1,2.45.81,8.89,8.89,0,0,1,1.9,2.83,9.47,9.47,0,0,1,.54,4,20.74,20.74,0,0,1-.54,4,8.89,8.89,0,0,1-1.9,2.83,3.55,3.55,0,0,1-2.45,1.21h-8.16v4.45H513a4.72,4.72,0,0,1,2.17.81c.55.4,1.36.81,1.63,1.61a5.69,5.69,0,0,1,1.09,2.43,8.76,8.76,0,0,1,.27,2.83,8.88,8.88,0,0,1-1.63,5.25,4.24,4.24,0,0,1-3.8,2h-6.26v4.85h7.34a4.74,4.74,0,0,1,3.81,2.43,8.42,8.42,0,0,1,1.36,5.25,11.28,11.28,0,0,1-1.36,5.26,4.75,4.75,0,0,1-3.81,2.42H500.49a3.43,3.43,0,0,1-3-1.61A22.29,22.29,0,0,1,495.6,334Z" transform="translate(-204.69 -241.83)"/><path class="cls-4" d="M526.86,340.45c-1.63,0-3-.81-4.08-2.83a10.65,10.65,0,0,1-1.63-6.06V294.38a12.07,12.07,0,0,1,.82-4.85,10.74,10.74,0,0,1,1.9-3.24,4.25,4.25,0,0,1,3-1.21h10.88a9.94,9.94,0,0,1,6,1.62,13.69,13.69,0,0,1,4.35,4.44,19,19,0,0,1,2.17,7.28,28.14,28.14,0,0,1,.28,4.85,21.19,21.19,0,0,1-3.27,12.12l-.27.41L545.89,317l-.81.81,4.08,8.49a12.9,12.9,0,0,1,1.36,5.65A20.86,20.86,0,0,1,550,336a10.81,10.81,0,0,1-1.9,3.23,4.25,4.25,0,0,1-3.26,1.62c-2.18,0-3.81-1.62-5.17-4.85l-7.34-16.57v12.93a11.22,11.22,0,0,1-.82,4.45,10.61,10.61,0,0,1-1.9,3.23C528.77,340.05,528,340.45,526.86,340.45Zm5.71-33.54h4.62a1.81,1.81,0,0,0,1.36-.81,7.63,7.63,0,0,0,.55-2.43,3.92,3.92,0,0,0-.55-2,1.81,1.81,0,0,0-1.36-.81H532.3v6.07Z" transform="translate(-204.69 -241.83)"/><path class="cls-3" d="M567.92,331.56l1.08,1.62v-2.43a1.93,1.93,0,0,1,.28-1.21c.27-.4.27-.81.54-.81a1,1,0,0,1,1.63,0c.27.41.54.41.54.81a1.93,1.93,0,0,1,.28,1.21v8.49a2.62,2.62,0,0,1-.28,1.62,1.93,1.93,0,0,1-1.08.81c-.55,0-.82-.41-1.36-.81L567.64,338l-1.08-1.62-1.09-1.62-.27-.4-.27-.4h-.55c-.27,0-.27,0-.54.4v1.21a1.74,1.74,0,0,1,.27.81h0l.54.81a4.79,4.79,0,0,1,1.09,2.42,4.34,4.34,0,0,1-.27,1.62c-.27.81-.82.81-1.36.81a2.16,2.16,0,0,1-1.36-.4,2.91,2.91,0,0,1-1.09-1.62,10.2,10.2,0,0,0-.81-2,11,11,0,0,1,0-4.85,10.2,10.2,0,0,1,.81-2c.27-.41.82-1.22,1.09-1.22a1.81,1.81,0,0,1,1.36-.4,2.59,2.59,0,0,1,2.17,1.21C566.83,329.94,567.37,330.75,567.92,331.56Z" transform="translate(-204.69 -241.83)"/><path class="cls-3" d="M569,309.33a2.57,2.57,0,0,0-.54-1.62v1.22a2.52,2.52,0,0,1-.54,1.61,1.93,1.93,0,0,1-1.09.81.83.83,0,0,1-.82-.4c-.27-.41-.54-.41-.54-.81a2,2,0,0,1-.27-1.21v-4.45c0-1.62.54-2.42,1.9-2.42h1.09a3.11,3.11,0,0,1,1.63.8,7.45,7.45,0,0,1,1.36,1.62,4.35,4.35,0,0,1,.81,2.43,11.12,11.12,0,0,1,.28,3.23v2a8.12,8.12,0,0,1-.55,2.83c-.27.81-.81,1.62-1.09,2.42A5.92,5.92,0,0,1,569,319a6.13,6.13,0,0,1-2.17.81,3.63,3.63,0,0,1-2.72-1.21,7.57,7.57,0,0,1-2.18-3.24,15.18,15.18,0,0,1-.81-4.85v-1.21c0-.81.27-1.62.27-2.42a14.05,14.05,0,0,1,.54-2c.55-1.21,1.36-2,1.91-2s.81.41,1.09.81a2.87,2.87,0,0,1,0,2.43h0l-.28.81c0,.4-.27.4-.27.4a10.48,10.48,0,0,0-.54,2.83,2.7,2.7,0,0,0,.27,1.62l.82,1.21c.27.4.81.4,1.08.81h1.09c.54,0,.82-.41,1.09-.81l.81-1.21a3.33,3.33,0,0,0,.28-1.62C569,310.14,569,309.74,569,309.33Z" transform="translate(-204.69 -241.83)"/><path class="cls-3" d="M569.55,299.63a1.94,1.94,0,0,1-1.09.81,1.26,1.26,0,0,1-1.09.4H565.2c-.27,0-.82-.4-1.09-.4-.27-.41-.82-.41-1.09-.81a4.43,4.43,0,0,1-1.36-2,8.58,8.58,0,0,1-.81-2.43,10,10,0,0,1-.27-2.82,4.35,4.35,0,0,1,.27-2,5.69,5.69,0,0,1,.54-2,5.63,5.63,0,0,1,.82-1.61c.27-.41.81-.81,1.08-1.22a4.24,4.24,0,0,1,3.27-1.61,2.5,2.5,0,0,1,1.63.4l1.63,1.21a5.85,5.85,0,0,1,1.09,1.62c.27.41.54,1.21.81,1.62.27.81.27,1.21.55,2,0,.81.27,1.62.27,2a10.07,10.07,0,0,1-.27,2.83c-.28.81-.55,1.62-.82,2.42A11.92,11.92,0,0,0,569.55,299.63ZM566.28,296c.55,0,1.09,0,1.36-.4a4.39,4.39,0,0,0,1.09-1.21,3.44,3.44,0,0,0,.27-1.62V292c0-.4-.27-.81-.27-1.21-.27-.41-.27-.81-.54-.81-.27-.4-.55-.4-.82-.81-.27,0-.54-.4-1.09-.4h-.54c-.54,0-.81.4-1.09.81l-.81,1.21a3.4,3.4,0,0,0-.27,1.62,2.67,2.67,0,0,0,.27,1.61,4.13,4.13,0,0,0,1.09,1.21C565.47,296,565.74,296,566.28,296Z" transform="translate(-204.69 -241.83)"/><path class="cls-3" d="M581.78,341.67a16.77,16.77,0,0,1-2.17-8.09V289.12a16,16,0,0,1,1.08-6.06c.82-1.62,1.91-3.23,3-3.64a6,6,0,0,1,2.45-.81q3.27,0,5.71,4.85l14.95,27.08v-21a12.68,12.68,0,0,1,1.91-7.28,5.54,5.54,0,0,1,4.62-2.83,7.12,7.12,0,0,1,2.72.81,4.83,4.83,0,0,1,2.17,2.43,9.86,9.86,0,0,1,1.36,3.23,20.76,20.76,0,0,1,.55,4v47.69a11.62,11.62,0,0,1-1.36,4.45,5.17,5.17,0,0,1-2.45,2.83,4.23,4.23,0,0,1-3,1.21,4.35,4.35,0,0,1-3.54-1.62,6.42,6.42,0,0,1-1.63-2.42l-15.49-28.7V335.6a14,14,0,0,1-1.91,7.68c-1.36,2-2.72,2.83-4.62,2.83A22.72,22.72,0,0,1,581.78,341.67Z" transform="translate(-204.69 -241.83)"/><path class="cls-3" d="M627.46,329.94a35.23,35.23,0,0,1-2.18-6.06,41.8,41.8,0,0,1-1.36-6.47,46.29,46.29,0,0,1-.54-6.46,59.7,59.7,0,0,1,.54-6.47c.27-2,.82-4,1.36-6.47a54.46,54.46,0,0,1,2.18-6.06,33.86,33.86,0,0,1,4.89-8.08,24.39,24.39,0,0,1,6.53-5.26,15,15,0,0,1,7.06-1.61,25.45,25.45,0,0,1,5.44.8,24.19,24.19,0,0,1,5.17,2.83,27.39,27.39,0,0,1,4.35,4.45,37.78,37.78,0,0,1,3.53,6.06,43,43,0,0,1,3.81,18.6,39.18,39.18,0,0,1-1.09,9.7,32.58,32.58,0,0,1-3,8.89,26.16,26.16,0,0,1-3.53,6.06c-1.36,2-3,3.23-4.35,4.85a24.43,24.43,0,0,1-5.17,2.83,13.2,13.2,0,0,1-5.44,1.21,14.39,14.39,0,0,1-7.07-1.61,21.21,21.21,0,0,1-6.52-5.26C630.45,336,628.82,333.18,627.46,329.94ZM637,311.35a21.75,21.75,0,0,0,1.09,7.68,16.43,16.43,0,0,0,3.26,5.66,6.55,6.55,0,0,0,4.35,2,3.77,3.77,0,0,0,1.91-.4,5.51,5.51,0,0,0,3-2,22.75,22.75,0,0,0,2.44-3.24c.55-1.21,1.09-2.83,1.63-4.44a29.11,29.11,0,0,0,.55-5.26,10.07,10.07,0,0,0-.27-2.83,20.51,20.51,0,0,0-1.64-6.46,11.08,11.08,0,0,0-3.26-4.45,5.89,5.89,0,0,0-4.08-1.62,7.18,7.18,0,0,0-4.62,2,13.43,13.43,0,0,0-3.26,5.66A23.25,23.25,0,0,0,637,311.35Z" transform="translate(-204.69 -241.83)"/><path class="cls-3" d="M674.76,333.18l-7.61-42.85c0-.8-.27-1.21-.27-2a11.35,11.35,0,0,1,.81-4.44,9.3,9.3,0,0,1,2.18-3.64,8.83,8.83,0,0,1,3-2c3.81,0,6.52,2.83,7.61,8.89l4.9,26.27,4.89-27.08c.82-4,1.9-6.46,3.81-7.68a4.83,4.83,0,0,1,2.17-.81c1.36,0,2.45.81,3.54,2a11.87,11.87,0,0,1,2.17,6.06L706.84,313l4.9-26.27c1.09-5.66,3.53-8.9,7.61-8.9a3.92,3.92,0,0,1,3,2,11.22,11.22,0,0,1,2.18,4,14.77,14.77,0,0,1,.81,4.44,2.69,2.69,0,0,1-.27,1.62l-7.61,42.44a25.31,25.31,0,0,1-3.27,8.49,6.63,6.63,0,0,1-5.7,2.83,6,6,0,0,1-5.17-2.83,13,13,0,0,1-3.26-7.28L695.7,313l-4.35,20.61a16.09,16.09,0,0,1-1.91,5.26,10.17,10.17,0,0,1-3,3.63,6.18,6.18,0,0,1-3.53,1.22,6.41,6.41,0,0,1-3.81-1.22,10.38,10.38,0,0,1-3-3.63A52.74,52.74,0,0,1,674.76,333.18Z" transform="translate(-204.69 -241.83)"/></svg>