<svg id="Capa_1" data-name="Capa 1" xmlns="http://www.w3.org/2000/svg" viewBox="0 0 511.13 511"><defs><style>.cls-1{fill:#707070;}</style></defs><path class="cls-1" d="M763.06,1020h-16a4.9,4.9,0,0,0-1.26-.73c-21.94-4.86-35.6-18.12-41-40a8.58,8.58,0,0,0-3.74-4.74c-37.4-22-74.9-43.74-112.29-65.72-3.58-2.1-5.94-2.26-9.57.24-24.74,17-59,8.8-73.29-17.21-14.66-26.67-3.81-59.57,23.84-71.81,2.92-1.29,3.8-2.79,3.79-5.89q-.17-49.64,0-99.27c0-3.1-.89-4.59-3.8-5.88-27.67-12.3-38.49-45.11-23.82-71.81,14.28-26,48.52-34.18,73.29-17.19,3.64,2.5,6,2.33,9.57.23,37.39-22,74.89-43.76,112.28-65.73a9.25,9.25,0,0,0,3.85-5.22c5.87-24.23,25.57-40.27,49.76-40.25,24.73,0,44.67,16,50.36,40.15a8.49,8.49,0,0,0,3.35,5c38.11,22.38,76.33,44.58,114.45,66.95,2.83,1.66,4.5,1.16,7-.55,22.21-15.42,50.67-11.85,68.46,8.35,6.57,7.45,9.88,16.39,12.23,25.81v15a9.84,9.84,0,0,0-.77,1.81C1006.25,689.4,996,702,979.34,709.36c-2.62,1.16-2.77,2.75-2.77,5,0,33.38.07,66.77-.05,100.15,0,3,1.38,4,3.68,5.47,6.21,4,12.54,8.11,17.84,13.2,7.25,7,10.25,16.46,12.53,26.07v15a26.07,26.07,0,0,0-.93,2.79c-7.68,35.72-48.07,52.41-78.44,32.12-4.05-2.71-6.6-2.37-10.43-.12-37.23,21.9-74.58,43.57-111.8,65.48a9.84,9.84,0,0,0-3.89,5.7,52.94,52.94,0,0,1-14.2,25.29C783.14,1013.32,773.4,1017.2,763.06,1020Zm-8-170.6c48.55,0,97.11-.11,145.66.13,6.77,0,11.43-.56,14.51-8,1.94-4.68,2-7.44-.67-11.41Q872.65,767.58,831,704.88,800.42,659,769.91,613.16c-1.49-2.23-2.81-3.15-5.95-2.78a76.33,76.33,0,0,1-17.81,0c-3.15-.38-4.46.57-5.94,2.8Q669.32,719.65,598.25,826c-4.44,6.62-7.06,11.88-1.34,19.13,2.14,2.69,3.33,4.37,7,4.36Q679.51,849.25,755.09,849.36ZM567.81,807.83l1,.44c.91-1.33,1.84-2.65,2.73-4l97.9-146.81Q690.6,625.75,711.67,594c.84-1.26.69-3.17,1-4.78-1.33.27-2.85.22-4,.86q-51.91,30.19-103.79,60.47c-2.53,1.47-3.76,2.87-3.4,6.2A50.5,50.5,0,0,1,571.32,709c-2.78,1.24-3.59,2.73-3.57,5.59.11,17.29.06,34.58.06,51.87Zm373.82,1a10.24,10.24,0,0,0,.66-1.82c0-31.1.08-62.2-.1-93.29,0-1.51-1.86-3.71-3.39-4.41-20.52-9.38-32.6-30-30.21-52.52.31-2.88-.28-4.49-2.86-6Q853.35,620.38,801,589.83c-1-.59-2.58-.27-3.89-.38a22.53,22.53,0,0,0,.68,3.59,13,13,0,0,0,1.61,2.51q56,84,112,168C921.34,778.48,931.31,793.36,941.63,808.81Zm-48,76.29-.19-.88H616.64l-.28.81L712,940.81c10.68-15,25-23.21,43.19-23.19s32.42,8.38,43.06,23.16ZM755.28,576.79a16.73,16.73,0,0,0,16.62-17,16.84,16.84,0,1,0-33.67.43A16.74,16.74,0,0,0,755.28,576.79ZM550.86,679.09A16.72,16.72,0,0,0,567.4,662a16.48,16.48,0,0,0-17-16.51,16.86,16.86,0,0,0-16.69,17A17.13,17.13,0,0,0,550.86,679.09Zm391.88-16.56a16.63,16.63,0,0,0,17,16.51,17,17,0,0,0,16.65-17,16.83,16.83,0,0,0-17.19-16.47A16.49,16.49,0,0,0,942.74,662.53ZM567.4,866.88a16.76,16.76,0,0,0-16.53-17.08,17.19,17.19,0,0,0-17.15,16.61,16.89,16.89,0,0,0,16.69,17A16.5,16.5,0,0,0,567.4,866.88Zm392.18,16.51a16.87,16.87,0,0,0,16.84-16.83,17.19,17.19,0,0,0-17-16.75,16.68,16.68,0,0,0-16.67,16.92A16.5,16.5,0,0,0,959.58,883.39ZM755,952.12a16.68,16.68,0,0,0-16.78,16.81,16.83,16.83,0,1,0,33.66-.1A16.71,16.71,0,0,0,755,952.12Z" transform="translate(-499.44 -508.96)"/></svg>