<svg id="Capa_5" data-name="Capa 5" xmlns="http://www.w3.org/2000/svg" viewBox="0 0 852.3 704.89"><path id="Icon_simple-postgresql" data-name="Icon simple-postgresql" d="M863.35,305.8A456.77,456.77,0,0,0,762.5,317.64l-2.29.61a497.11,497.11,0,0,0-62.6-4.85c-38.47-1-76.54,6.55-110,21.79a521.28,521.28,0,0,0-154.91-19.52c-44.81,2-93.72,12.87-130,43.59s-55.23,78.18-51.21,142.79a474.22,474.22,0,0,0,17.94,84.58,850.31,850.31,0,0,0,43.68,122c18.41,40.23,38.58,76.35,70.1,100.91,16.33,13.93,39.13,21.82,63,21.79,17.83-1,34.76-6.69,48.13-16.22a57.3,57.3,0,0,0,20.72,13.25A116.57,116.57,0,0,0,540,836.16a214.69,214.69,0,0,0,71.31,2.89,160,160,0,0,0,32-8c.4,9.69.88,19.18,1.35,28.81,1.53,30.42,2.45,58.53,13.84,83.17,4.74,15.78,13.83,30.51,26.61,43.09,19.78,18.33,58.5,29.75,102.61,22.18,31.12-5.35,70.69-15,97-45,26-29.66,37.7-72.22,40-141.24.58-3.73,1.28-6.9,2-9.86l6.19.44h.76A265.61,265.61,0,0,0,1033,798.86c26.65-9.89,46.83-19.91,61.5-37.68a33.58,33.58,0,0,0,8.79-18.88c.45-11.49-5.54-22.54-16.33-30.11-21.78-13.28-35.47-8.22-50.15-5.79a283.42,283.42,0,0,1-44,4.3c39.73-53.62,70-111.39,90-171.67a306.28,306.28,0,0,0,16.47-86.55c.48-25.59-2.12-48.23-21.23-67.82-59.73-61.23-143.67-78.15-208.61-78.74-2,0-4-.06-6,0Zm-1.72,18.8c61.42-.47,139.91,13.36,196.25,71.14,12.67,13,16.43,31.95,16,55.33A295.84,295.84,0,0,1,1058.17,533c-22.5,67.64-58.3,132-106.05,190.54a29.77,29.77,0,0,0,5.79,2.53c10.62,3.52,34.81,6.55,83.09-1.41,12.16-2,21-3.44,30.28,2.2,4.54,3.09,7,7.71,6.7,12.48a18.48,18.48,0,0,1-4.76,9.87c-9.36,11.25-27.75,21.92-51.38,30.7a246,246,0,0,1-77.46,12.13,146.94,146.94,0,0,1-36.06-3.32l-.65-.21c-4,31.13-13.29,92.61-19.33,120.65-4.84,22.62-13.29,40.59-29.44,54S820,984.77,789.31,990.06c-38,6.55-65.7-.5-83.57-12.57-14.07-10.33-24.69-23.33-30.9-37.8a91.63,91.63,0,0,1-6.8-27.2c-1.68-11.68-2.93-26-3.78-42.11q-1.68-37-1.1-74.1c-15.87,11.66-35.6,19.41-56.82,22.32A185.76,185.76,0,0,1,545.17,816a97.49,97.49,0,0,1-19-5.9A33.69,33.69,0,0,1,510,798.41a13.68,13.68,0,0,1-2.09-11.19,18.17,18.17,0,0,1,8-9.72,81.61,81.61,0,0,1,31.32-9.81c26.32-4.34,35.51-7.31,41.11-10.87A200.16,200.16,0,0,0,608,738.56c0-.41-.08-.82-.11-1.23a129.54,129.54,0,0,1-48.69-10.51c-5.49,4.64-33.53,28.43-67.72,61.44-14.39,13.8-30.28,21.74-47,22.29-17.1-.17-33.33-6-44.81-16.21-25.74-20.06-46.27-54.55-64.17-93.57a834,834,0,0,1-42.73-119.42,482.94,482.94,0,0,1-17.36-81.25c-3.82-61.14,14-102.36,44.55-128.35S392.52,335.92,433.39,334c73.4-3.38,143.11,17.16,157.2,21.56C622,339.08,659,330.88,696.46,332.16a333.45,333.45,0,0,1,61.53,6.4l.77-.26q13.28-3.74,27-6.27a435.19,435.19,0,0,1,75.82-7.35Zm5.56,19.68h-5.35a394.84,394.84,0,0,0-62.38,5.64c41,14.83,76.84,37.52,104.34,66.08a243.17,243.17,0,0,1,41.44,56.38,118.57,118.57,0,0,1,8.27,19.39A33.31,33.31,0,0,1,955,498.7a10.31,10.31,0,0,1-.44,4.23c0,.09-.18.3-.22.38,1.1,25.75-6.87,43.18-7.8,67.73-.76,17.78,5,38.71,6.34,61.53,2.41,23.75-4.31,47.52-19.26,68.11,1.47,1.41,2.78,2.82,4.17,4.23,43.16-54.71,75.74-114.35,96.65-176.89a283.62,283.62,0,0,0,14.9-77.3c.36-21.15-4.54-36.48-10.81-42.91-49.12-50.37-115.6-63.21-171.32-63.56ZM691.8,351.77c-43.27.09-74.31,10.58-97.85,26.29-23.36,16.54-41,37.63-51.25,61.24A216.22,216.22,0,0,0,524,510.21l.47-.23A220.48,220.48,0,0,1,573,494.82,119,119,0,0,1,629.16,496c20.13,6.78,34.52,21.35,38.15,38.61,25.77,95.66-8,131.22-20.47,158.07a245.23,245.23,0,0,0-12.11,29.76,43.57,43.57,0,0,1,4.73-.77,48.56,48.56,0,0,1,19.77,3.18c12.18,4.43,21.52,12.73,25.77,22.9a34.11,34.11,0,0,1,2.59,8.34,8,8,0,0,1,.77,3.74q-2.08,54.87.47,109.78c.84,15.8,2.09,29.72,3.66,40.7a93.18,93.18,0,0,0,5.23,22.12c4.82,11.43,13,21.75,23.91,30.07,12.38,8.34,30.13,13.92,62.56,8.34,28.12-4.84,45.47-11.57,57.07-21.23s18.49-23.11,22.92-43.7c6.62-30.83,20-120.27,21.56-137.1a46.72,46.72,0,0,1,6.66-29.87c4.56-6.56,11.65-11.77,20.21-14.83a81.49,81.49,0,0,1,9.38-2.71q-4.25-4.9-8.89-9.55a129.27,129.27,0,0,1-24.38-32.27q-4.4-7.21-9.41-14.2c-4.87-7.05-11-15.87-17.47-25.75a288.14,288.14,0,0,1-34.19-67.25c-7.25-23.38-8.31-47.59,10.29-64.65,16.47-15.16,45.39-21.45,88.81-17.91a95.29,95.29,0,0,0-4.21-9.76,225.34,225.34,0,0,0-38.11-51.81c-44.38-47.75-114.13-76-188.38-76.37H691.8ZM448.65,353.3c-4.65,0-9.3.12-13.91.32-37,1.71-71.94,10.31-96.93,31.58s-41.48,56.15-37.93,113.85a508.42,508.42,0,0,0,16.81,77.89,826,826,0,0,0,41.8,117c17.32,37.79,38.29,70.69,58.21,86.25,6.67,6.36,16.31,10.22,26.65,10.66,7.94-.29,17.49-4,29.18-15.21q31.94-30.92,66.26-60.15c-33-23-49.09-57.85-42.73-92.51a292.62,292.62,0,0,0,3.82-58c-.44-15.63-1.83-26-1.83-32.49v-.88h0a239.87,239.87,0,0,1,21.67-99.16c10.32-23.25,26.84-44.42,48.4-62a505.47,505.47,0,0,0-105.56-16.75q-6.94-.28-13.91-.29ZM902.52,508.43c-24.86.26-38.81,5.41-46.13,12.13-10.36,9.54-11.35,26.29-4.91,46.9a276.19,276.19,0,0,0,32.09,62.91c6.23,9.61,12.26,18.24,17.14,25.26a169,169,0,0,1,10.69,16.3,87.61,87.61,0,0,0,6.52,10.63,81.79,81.79,0,0,0,10.36-49c-1.28-20.65-7.25-41.76-6.37-63.13,1-25,7.13-41.26,7.68-60.59a266,266,0,0,0-27.09-1.41Zm-301.43,3.38A127.54,127.54,0,0,0,578.54,514a197.47,197.47,0,0,0-42.21,13.19,92.15,92.15,0,0,0-12.78,6.7l-.8.61c.22,4.29,1.28,14.71,1.72,30a310.28,310.28,0,0,1-4.1,61.21c-8.75,50.22,36.67,91.81,90,91.87a250.22,250.22,0,0,1,13.39-31.78c14.86-32.13,44.11-55.57,19.47-147-4-15-12-21-23-24.43a65.85,65.85,0,0,0-19.18-2.46Zm289.82,6h1.84a39.24,39.24,0,0,1,6.59.65,17.15,17.15,0,0,1,5,1.61,4.94,4.94,0,0,1,2.74,3.23v.24h0a6,6,0,0,1-1.28,4,20.66,20.66,0,0,1-4,4.41,27,27,0,0,1-14.13,6.23,25.81,25.81,0,0,1-15-3,21.23,21.23,0,0,1-4.76-3.46,7.22,7.22,0,0,1-2.3-3.74,4.42,4.42,0,0,1,1.53-3.75,14,14,0,0,1,4.29-2.65,48.31,48.31,0,0,1,13.65-3.4,57.26,57.26,0,0,1,5.86-.38Zm-286.2,5a54,54,0,0,1,6.11.38,47.44,47.44,0,0,1,14.39,3.58,16.22,16.22,0,0,1,4.86,3.12,5.73,5.73,0,0,1,2,5,8.33,8.33,0,0,1-2.74,4.53,23.09,23.09,0,0,1-5.23,3.82,28,28,0,0,1-16.41,3.31,29.06,29.06,0,0,1-15.38-6.7A21.51,21.51,0,0,1,588,535a7,7,0,0,1-1.53-5.19c.76-2.83,3.48-5.06,7-5.73a38.84,38.84,0,0,1,11.24-1.17ZM936.35,738.42h-.11c-5.35,1.55-9.81,2.2-13.55,3.52a15.87,15.87,0,0,0-8.74,6.28,31.1,31.1,0,0,0-3.7,19.56,20.76,20.76,0,0,0,5.42,2.06,126.06,126.06,0,0,0,28.48,2.37,232.66,232.66,0,0,0,67.36-10.27A151.89,151.89,0,0,0,1046,743.87h0c-51,8.46-79.8,6.2-97.48.36a52.22,52.22,0,0,1-12.16-5.87Zm-294,2.76h-.76c-1.94.14-4.76.67-10.22,5.51-12.74,11.46-17.2,18.65-27.71,25.38s-24.16,10.28-51.43,14.77a82.71,82.71,0,0,0-16.87,4.23,9.63,9.63,0,0,0,2.55,1.56,71.53,71.53,0,0,0,13.26,4.16,158.18,158.18,0,0,0,51.06,2.35c24.06-3.15,45.39-14.23,58.83-30.54a12.57,12.57,0,0,0,.88-14.1A23.9,23.9,0,0,0,649.78,743a28.2,28.2,0,0,0-7.47-1.77Z" transform="translate(-250.99 -305.8)"/></svg>