<svg id="Capa_5" data-name="Capa 5" xmlns="http://www.w3.org/2000/svg" viewBox="0 0 992.69 903.12"><defs><style>.cls-1{fill:#525253;}</style></defs><path id="Icon_simple-adobexd" data-name="Icon simple-adobexd" class="cls-1" d="M816.88,0H175.8C77.54,1.07-1.2,74.41,0,163.8V739.12c-1.32,89.4,77.27,162.83,175.53,164H816.88c98.26-1.07,177-74.4,175.79-163.8V164C994,74.64,915.39,1.2,817.13,0Zm134,724.07c.26,37-15.38,72.62-43.6,99.25-27.8,26.26-66.11,41.13-106.17,41.23H191.51c-83.91-1.11-151-63.74-150.13-140.09V178.66c-.88-76.33,66.24-139,150.13-140.06H800.76c84,1,151.15,63.68,150.13,140.06ZM392.53,422.62l115.81,207.6c2.07,3.09.86,6.18-2.49,6.18h-72a8.18,8.18,0,0,1-8.68-5c-26.48-51-53.36-101.89-81.07-156.7h-.86c-24.82,51.72-52.12,106.14-78.55,157.07a8,8,0,0,1-7.45,4.24H189.05c-4.13,0-4.55-3.08-2.48-5.4L299.88,429.18,190.26,225.4c-2.49-3.09,0-5.4,2.49-5.4h71.14a6.57,6.57,0,0,1,7.45,4.24C297.4,275.19,323.86,327.68,348.68,379h.86c24-50.95,50.46-103.82,76.11-154.38,2.07-3.09,3.3-5,7.44-5h66.59c3.31,0,4.55,2.32,2.49,5.4Zm136.08,62.91c0-89.93,64.1-160.21,165.86-160.21a195.49,195.49,0,0,1,21.51.79V223.85a4,4,0,0,1,4.13-3.85h65.35c3.31,0,4.14,1.15,4.14,3.08v354.3a255.72,255.72,0,0,0,2.07,37.82c0,2.32-.87,3.09-3.31,4.25a261.23,261.23,0,0,1-105.88,22.38c-89.77.39-153.88-51.33-153.88-156.3ZM716,386.73a66.5,66.5,0,0,0-24-3.86c-52.11,0-88.51,37.44-88.51,99.57,0,71,37.23,99.57,84,99.57A83.05,83.05,0,0,0,716,577.76Z" transform="translate(0.01 0)"/></svg>