<svg id="Capa_1" data-name="Capa 1" xmlns="http://www.w3.org/2000/svg" viewBox="0 0 300 300"><defs><style>.cls-1{fill:#fff;}.cls-2{fill:#676767;}</style></defs><path class="cls-1" d="M328,333H28V33H328ZM117.53,211.14c1.07,10.88,2.51,22.77,3.28,34.7.46,7,.19,10.07,10.69,12.57a189.75,189.75,0,0,0,31.05,4.52c16.18,1.1,32.34.21,48-4.63,8.17-2.53,9.43-4.37,10.2-12.71.44-4.81,1.1-9.6,1.65-14.4,1.09-9.65,2.16-19.29,3.31-29.54-3.65,2.32-6.45,4.42-9.52,6-3.39,1.71-7.27,2.64-10.13-.7s-.41-6.57,1.65-9.41c2.27-3.14,4.68-6.16,7-9.23l-1-1c-1.64,1.21-3.67,2.12-4.82,3.69a72.34,72.34,0,0,0-7.47,11.74c-3.05,6.46-5.4,13.26-8.17,19.86-1.16,2.77-3.22,5.55-6.32,3.74-1.38-.82-1.81-4.56-1.42-6.76.5-2.87,2.26-5.51,3.44-8.26.6-1.4,1.11-2.84,2-5.2-5,2.31-9,4.39-13.13.76-.51-.44-2.21.12-3.17.6-4.15,2.13-7.7,2.34-9.59-2.85-2.38,1.3-4.32,3-6.46,3.35-2.76.42-6.39.64-8.32-.81-1.61-1.21-2.24-5.16-1.69-7.53a102.77,102.77,0,0,1,5.28-15c1.22-3,2.63-7.24,6.89-5.33,4.78,2.15,1.07,5.62,0,8.46-1.36,3.75-2.86,7.44-4.3,11.16l1.52,1c1.44-1,3.33-1.58,4.23-2.9,2.51-3.69,4.68-7.62,6.83-11.54,1.51-2.75,1.83-7.75,6.15-6.17,4.72,1.73,1.78,5.9.72,9-1.29,3.84-2.8,7.61-4.22,11.41l2,1.26c1.66-2.06,3.91-3.87,4.89-6.22,4.68-11.22,9-22.59,13.5-33.9,1.14-2.87,3-5.3,6.39-3.79s2,4.37,1,6.88c-4,9.7-8,19.4-12,29.13-.78,1.93-1.29,4-1.92,6,6.42-2.94,11.71-6.42,14-13.36,2-6.21,4-6.68,8.87-3.21,1.24-.75,2.48-1.59,3.8-2.27,3.5-1.81,7-2.44,10.14.69s1.34,6.29-.34,9.16c-1.79,3.07-4,5.87-6.1,8.79,4.4-3.75,10.9-5.32,11.67-12.53,2.17-20.21,4.63-40.39,7-60.58.31-2.71.5-5.43.77-8.36-42.31,11.81-83.93,11.16-126.64.85,1.93,20.49,3.81,40.4,5.81,61.67,1.83-3.56,2.93-5.92,4.21-8.18,4.4-7.78,9.44-15,18-18.72,6.25-2.69,13.86,0,16.39,6.28.81,2,.47,5.7-.9,7.05-2.51,2.48-4.3-.46-5.78-2.46-3.28-4.43-5.93-5.05-9.77-1.34A50.85,50.85,0,0,0,121.06,194c-.2,1.78.83,3.69,1.29,5.55,2-.58,4.29-.66,5.81-1.81a33.1,33.1,0,0,0,12.54-18.72c.67-2.7,2.49-5.51,5.58-4,1.41.7,2.45,4.3,2,6.19-1.52,6.29-3.82,12.4-5.77,18.59-1.45,4.61-2.53,9.36-4.38,13.79-.65,1.54-3.09,2.33-4.72,3.47-.67-1.87-1.94-3.77-1.86-5.61.11-2.66,1.2-5.28,1.75-7.44ZM127,260.91c7.73,8.38,6.56,18.88,7.4,28.88.62,7.47,1,15,1.8,22.4.19,1.71,1.24,4,2.6,4.79,21.09,11.67,42.48,13.91,63.88.86a9.36,9.36,0,0,0,3.76-6.23c.85-8.44,1-16.95,1.55-25.42s.09-17.4,6.12-24.62c.1-.13-.17-.57-.3-.95C185.08,268.32,156.36,268.2,127,260.91Zm-17.7-151.57,0,2.4c4.36,3.73,9.93,4.77,15.34,5.92a221.72,221.72,0,0,0,68.54,3.8c12.34-1.24,24.53-4.12,36.74-6.52,2.18-.43,4.12-2.08,6.17-3.17l-.37-1.7c-13.81-6-29-4.81-44.06-7.1,1.56-5.63,3.27-10.52,4.22-15.54,1.53-8,5.6-14.31,11.21-20.09,7.73-8,15-16.43,22.4-24.65-6.53-6.87-6.53-6.87-12.49-.59-6.65,7-13.05,14.27-20,20.95-6.21,6-10.67,12.48-11.9,21.21-.67,4.74-2.64,9.29-3.56,14-.76,3.94-2.83,4.84-6.59,5-15.14.48-30.28,1-45.37,2.2C122.71,106,116,108,109.29,109.34Z" transform="translate(-28 -33)"/><path class="cls-2" d="M117.53,211.14l15.77-7.08c-.55,2.16-1.64,4.78-1.75,7.44-.08,1.84,1.19,3.74,1.86,5.61,1.63-1.14,4.07-1.93,4.72-3.47,1.85-4.43,2.93-9.18,4.38-13.79,2-6.19,4.25-12.3,5.77-18.59.45-1.89-.59-5.49-2-6.19-3.09-1.53-4.91,1.28-5.58,4a33.1,33.1,0,0,1-12.54,18.72c-1.52,1.15-3.85,1.23-5.81,1.81-.46-1.86-1.49-3.77-1.29-5.55a50.85,50.85,0,0,1,15.67-31.56c3.84-3.71,6.49-3.09,9.77,1.34,1.48,2,3.27,4.94,5.78,2.46,1.37-1.35,1.71-5.06.9-7.05-2.53-6.24-10.14-9-16.39-6.28-8.6,3.7-13.64,10.94-18,18.72-1.28,2.26-2.38,4.62-4.21,8.18-2-21.27-3.88-41.18-5.81-61.67,42.71,10.31,84.33,11,126.64-.85-.27,2.93-.46,5.65-.77,8.36-2.33,20.19-4.79,40.37-7,60.58-.77,7.21-7.27,8.78-11.67,12.53,2.05-2.92,4.31-5.72,6.1-8.79,1.68-2.87,3.37-6.1.34-9.16s-6.64-2.5-10.14-.69c-1.32.68-2.56,1.52-3.8,2.27-4.88-3.47-6.86-3-8.87,3.21-2.25,6.94-7.54,10.42-14,13.36.63-2,1.14-4,1.92-6,3.95-9.73,8-19.43,12-29.13,1-2.51,2.46-5.36-1-6.88s-5.25.92-6.39,3.79c-4.49,11.31-8.82,22.68-13.5,33.9-1,2.35-3.23,4.16-4.89,6.22l-2-1.26c1.42-3.8,2.93-7.57,4.22-11.41,1.06-3.13,4-7.3-.72-9-4.32-1.58-4.64,3.42-6.15,6.17-2.15,3.92-4.32,7.85-6.83,11.54-.9,1.32-2.79,1.95-4.23,2.9l-1.52-1c1.44-3.72,2.94-7.41,4.3-11.16,1-2.84,4.75-6.31,0-8.46-4.26-1.91-5.67,2.33-6.89,5.33a102.77,102.77,0,0,0-5.28,15c-.55,2.37.08,6.32,1.69,7.53,1.93,1.45,5.56,1.23,8.32.81,2.14-.32,4.08-2,6.46-3.35,1.89,5.19,5.44,5,9.59,2.85,1-.48,2.66-1,3.17-.6,4.14,3.63,8.1,1.55,13.13-.76-.91,2.36-1.42,3.8-2,5.2-1.18,2.75-2.94,5.39-3.44,8.26-.39,2.2,0,5.94,1.42,6.76,3.1,1.81,5.16-1,6.32-3.74,2.77-6.6,5.12-13.4,8.17-19.86A72.34,72.34,0,0,1,208.93,191c1.15-1.57,3.18-2.48,4.82-3.69l1,1c-2.35,3.07-4.76,6.09-7,9.23-2.06,2.84-4.61,6-1.65,9.41s6.74,2.41,10.13.7c3.07-1.55,5.87-3.65,9.52-6-1.15,10.25-2.22,19.89-3.31,29.54-.55,4.8-1.21,9.59-1.65,14.4-.77,8.34-2,10.18-10.2,12.71-15.67,4.84-31.83,5.73-48,4.63a189.75,189.75,0,0,1-31.05-4.52c-10.5-2.5-10.23-5.59-10.69-12.57C120,233.91,118.6,222,117.53,211.14Z" transform="translate(-28 -33)"/><path class="cls-2" d="M127,260.91c29.37,7.29,58.09,7.41,86.81-.29.13.38.4.82.3.95-6,7.22-5.6,16.05-6.12,24.62s-.7,17-1.55,25.42a9.36,9.36,0,0,1-3.76,6.23c-21.4,13.05-42.79,10.81-63.88-.86-1.36-.75-2.41-3.08-2.6-4.79-.8-7.44-1.18-14.93-1.8-22.4C133.55,279.79,134.72,269.29,127,260.91Z" transform="translate(-28 -33)"/><path class="cls-2" d="M109.29,109.34c6.74-1.35,13.42-3.38,20.23-3.91,15.09-1.16,30.23-1.72,45.37-2.2,3.76-.12,5.83-1,6.59-5,.92-4.72,2.89-9.27,3.56-14,1.23-8.73,5.69-15.26,11.9-21.21,7-6.68,13.37-13.94,20-20.95,6-6.28,6-6.28,12.49.59-7.43,8.22-14.67,16.68-22.4,24.65-5.61,5.78-9.68,12.07-11.21,20.09-1,5-2.66,9.91-4.22,15.54,15,2.29,30.25,1.08,44.06,7.1l.37,1.7c-2.05,1.09-4,2.74-6.17,3.17-12.21,2.4-24.4,5.28-36.74,6.52a221.72,221.72,0,0,1-68.54-3.8c-5.41-1.15-11-2.19-15.34-5.92Zm82.82,1.91H175.88A13.11,13.11,0,0,0,192.11,111.25Z" transform="translate(-28 -33)"/><path class="cls-1" d="M192.11,111.25a13.11,13.11,0,0,1-16.23,0Z" transform="translate(-28 -33)"/></svg>