<svg id="Capa_5" data-name="Capa 5" xmlns="http://www.w3.org/2000/svg" viewBox="0 0 858.11 819.01"><path id="Icon_simple-mysql" data-name="Icon simple-mysql" d="M889.68,219.63a28.59,28.59,0,0,0-9.8,1.66v.65h.5A116.62,116.62,0,0,0,888,235.66c1.93,5.37,3.57,10.75,5.51,16.08l.5-.76a22.5,22.5,0,0,0,5-16.73c-1.43-2.37-1.64-4.72-2.85-7-1.44-3.37-4.48-5-6.44-7.69Zm-380.25,663H476.28Q474.67,764.9,466.63,661h-.29L415.93,882.63h-25.2L340.66,661.05h-.35q-5.54,99.71-7,221.61H303.12q3-148.2,14.67-277.9H358.9L406.66,809h.28L455.1,604.76h39.15q13,151.89,15.31,277.9Zm143.66-205q-20.28,154.15-53.35,224.13-25.85,54-56.6,53.92a43,43,0,0,1-20.23-6.93V924a65.14,65.14,0,0,0,13.8,1.3,28.14,28.14,0,0,0,23.13-11.15,48.3,48.3,0,0,0,10.55-30.41,271.18,271.18,0,0,0-8.21-47.43l-36.3-158.6h32.53l26,118.57a218.75,218.75,0,0,1,7.32,56.43,1031.15,1031.15,0,0,0,29.85-175h31.48Zm440.67,205h-94V604.76h31.65V848.49h62.39Zm-118.7,6.78-36.33-25.12a98.47,98.47,0,0,0,9.12-12.56Q971.07,813.66,971,738.57q0-138-77-138-37.76,0-59,35-23.07,38.29-23.14,112.82,0,73.26,20.52,107.53c11.08,19.82,33.08,31.84,56.6,30.91a66.84,66.84,0,0,0,25.92-4.93l47.38,38.8,12.87-31.26ZM857.35,827.07c-8-18.09-12.05-47.24-12.05-87.24q0-105,45.41-105c15.84,0,27.53,8.39,34.93,25.12q12,27.29,12,86.58,0,105.84-45.4,105.94-23.87,0-35-25.13Zm-59.28-21.36a89,89,0,0,1-18.45,58.09,60.49,60.49,0,0,1-49.48,22.61c-19.4,0-38.06-8.65-56.24-25.88l8.47-23.92a75.74,75.74,0,0,0,42.54,16.48,36.15,36.15,0,0,0,28-11.05,44.63,44.63,0,0,0,10.73-30.91,53.38,53.38,0,0,0-23.13-42.46c-13.87-10.68-41.58-33-41.58-33-15.09-15.42-22.6-32-22.6-59.15A83.7,83.7,0,0,1,693.13,622a53.31,53.31,0,0,1,43.53-20.89,72.35,72.35,0,0,1,50.05,20.61l-7.59,23.92a74.39,74.39,0,0,0-38-11.56,28,28,0,0,0-23.39,10.35,41.09,41.09,0,0,0-8.86,26.35,53.77,53.77,0,0,0,23.81,42.73c14,10.8,42.44,33.67,42.44,33.67,15.49,15.33,23.13,31.66,23.13,58.7ZM1133.5,511.59a81.48,81.48,0,0,0-46.38,9.45c-3.57,2-9.3,2-9.8,8.39a68.55,68.55,0,0,1,3.93,10.75,76.3,76.3,0,0,0,12.38,20.46,213.53,213.53,0,0,0,15.26,15.58c9.3,8,19.84,12.82,29,20.91,5.19,4.72,10.45,10.68,15.73,15.73,2.61,2.51,4.29,7,7.65,8.64v-1c-1.64-3-2.14-7.39-3.73-10.75-2.4-3.37-4.79-6.41-7.15-9.7a146.13,146.13,0,0,0-24.85-33.92c-7.65-7.34-24.38-17.59-27.53-29.91l-.46-.71a74.28,74.28,0,0,0,16.41-5.33c8.12-3,15.55-2.37,24-5.33,3.79-1.36,7.61-3,11.43-4.72v-3c-4.29-6-7.5-14.24-11.93-19.85a352.76,352.76,0,0,0-39.48-41.36A286.46,286.46,0,0,0,1073,439.12c-2.86-2-7.65-3-9.3-6.41a152.46,152.46,0,0,1-9.83-25.82c-6.87-18.52-13.59-38.95-19.56-58.45-4.29-13.17-6.9-26.29-12.16-38.34-24.66-57.14-51.38-91.76-92.46-125.63a94.64,94.64,0,0,0-30.59-13.77c-6-.4-11.94-1-17.91-1.36-3.93-2.36-7.72-8.74-11.08-11.8-13.56-12-48.74-38.2-58.75-3.59-6.43,21.81,9.55,43.32,15.09,54.37a169,169,0,0,1,12.16,25.12c1.68,5.84,2.14,11.81,3.83,17.89,3.79,14.78,7.4,31.26,12.4,45.08a176.83,176.83,0,0,0,8.84,20.75c1.93,3.67,5.22,5.38,6,11.4a128.23,128.23,0,0,0-5.51,25.12c-8.58,38-5.22,85.08,6.94,113.07,3.83,8.34,13,26.83,25.14,19.75,10.73-6,8.37-25.13,11.44-42a30.79,30.79,0,0,1,1.72-9.4v.75c3.35,9.45,6.71,18.45,9.79,27.89a176.37,176.37,0,0,0,31,45c5.72,6,10.26,16.48,17.42,20.2v-1H967a38.31,38.31,0,0,0-5.51-6.69A168.7,168.7,0,0,1,949,501.17,496.61,496.61,0,0,1,922.3,440c-3.93-10.56-7.22-21.92-10.37-32.31-1.43-4-1.43-10-3.83-12.07a132.74,132.74,0,0,0-11.44,22.79A262,262,0,0,0,890,469.13c-1,.35-.5,0-1,.71-7.64-2.61-10.26-13.77-13.12-23.12A202.42,202.42,0,0,1,873.72,357c1.68-7,8.83-29.25,6-36-1.5-6.4-6.23-10-8.84-15.22a145.29,145.29,0,0,1-8.58-21.46c-5.72-18.79-8.58-39.6-14.8-58.39a192.21,192.21,0,0,0-11.94-25.78A181.05,181.05,0,0,1,822.37,174a21.16,21.16,0,0,1-1-13.77,5,5,0,0,1,3.36-4.52c3.15-3.62,12,1.1,15.09,3.12a114,114,0,0,1,23.65,16.79c3.36,3.32,7,9.7,11.26,11.36h5c7.65,2.37,16.26.71,23.42,3.67a140.12,140.12,0,0,1,34.4,23.11,285.78,285.78,0,0,1,74.55,114.88c2.86,7.74,4.11,14.83,6.72,22.87,5,16.58,11.19,33.31,16.26,49.35a258.59,258.59,0,0,0,17,45.08c3.58,7,17.95,10.68,24.39,14.37a150.46,150.46,0,0,1,16.41,9.45c8.21,7,16.23,15.08,24,22.79,3.93,3.81,15.84,12.21,16.56,19Z" transform="translate(-303.12 -136.7)"/></svg>