<svg id="Capa_4" data-name="Capa 4" xmlns="http://www.w3.org/2000/svg" viewBox="0 0 786.13 964.47"><defs><style>.cls-1{fill:#efefef;}</style></defs><path class="cls-1" d="M734,1124.56H642.42c-4.37-.55-8.72-1.39-13.11-1.6-62.21-3-123.46-10.85-183-26.69-43.16-11.48-84.55-26.11-118.34-52.58-20.63-16.16-34-35.35-34-60.09q.15-341.25,0-682.5c0-15.25,5.09-29,15.17-41.56,15-18.63,35.54-31.93,58.45-42.79,59.3-28.12,124.22-41,190.76-49,75.12-9.07,150.51-9.91,226-3.51,64.58,5.49,128,15.65,188,37.41,45.79,16.61,88.11,37,107.75,79.14V1004c-8.3,17.82-20.56,33.44-38.8,44.89-14.53,9.11-29.59,18-45.65,24.94-60.95,26.34-126.9,38.08-194.26,45C779,1121.18,756.47,1122.69,734,1124.56ZM329.41,359.28V368c0,51.77.26,103.55-.17,155.31-.12,14.14,5.32,26,16.83,35.6a186.46,186.46,0,0,0,28.25,19.72C407.24,597,444.17,607.62,482,616c88.29,19.51,178.28,23.1,269,19.72,55.88-2.08,111.22-7.18,164.73-21.75,41.76-11.36,80.86-27,112.8-53.24,12.51-10.27,18.81-22.62,18.66-37.85-.48-51.45-.17-102.91-.21-154.37,0-2.87-.4-5.75-.69-9.69-5.53,3.62-9.54,6.35-13.68,8.94-39.89,24.92-85.72,38.54-133.12,48.63C800,437.55,699,442,597.18,433.43,502.24,425.42,409.69,410.3,329.41,359.28Zm0,457c0,55.52.57,108.56-.31,161.58-.31,18.56,7.38,33,23.37,44.7a209.14,209.14,0,0,0,27.71,17.32c39.23,20.12,82.56,31.24,127,39.48,86.11,16,173.27,18.75,260.85,12.74,62.83-4.3,124.57-13.77,183.49-33.56,27.4-9.2,53.64-20.26,75.08-38,13.63-11.25,20.88-24.3,20.66-41-.67-50.83-.23-101.68-.27-152.53,0-2.93-.39-5.87-.7-10.21-27.46,19.57-57.37,32.56-89.19,42.52C879.52,883.6,798.77,893,716.55,894.92c-90.13,2.12-179.12-4.45-265.84-26.56C407.51,857.34,366.25,842.79,329.41,816.24Zm0-227.8V600c0,48.94.89,97.9-.41,146.81-.58,22.08,9.88,37.9,29.08,51.09,26.36,18.1,57,29.34,88.78,38.37,71.14,20.18,144.73,28,219.38,29.32,88.59,1.56,176-5.24,260.78-28.69,34.05-9.42,66.71-21.31,94.39-41.22,17-12.24,26.26-26.85,25.9-46.6-.91-50.18-.3-100.39-.3-150.58V587.63c-8.35,5.24-14.44,9.35-20.85,13-48.23,27.8-103,41.48-159.29,51.11A1049.57,1049.57,0,0,1,606,663.24C508,655.44,412.46,640.67,329.41,588.44ZM687.28,408.67c33.76-1.83,67.63-2.81,101.26-5.68,59.77-5.08,118.25-15.37,173.75-35.53,23.32-8.48,45.58-18.57,63.89-33.8,27.79-23.1,28.06-46.7.08-69.42a173.1,173.1,0,0,0-30.08-19.31c-42.19-21.59-88.91-33-136.79-41.24-83-14.31-166.84-16.78-251-11-64.7,4.48-128.22,14.32-188.61,35.4-28,9.77-54.77,21.38-75.25,40.95-20.22,19.34-20.33,39.8-.12,59.14,6.34,6.07,13.31,12.3,21.49,16.25,21.2,10.23,42.42,21,65.1,28.41C513.33,399.61,599.66,407.11,687.28,408.67Z" transform="translate(-294 -160.09)"/><path class="cls-1" d="M872.51,484.26c17.5-.08,31.9,11.82,32.18,26.6s-14.79,27.76-32.35,27.55-31.49-12.4-31.45-27.22S855,484.35,872.51,484.26Z" transform="translate(-294 -160.09)"/><path class="cls-1" d="M754.23,499.67c17.29-.05,31.87,12.14,32,26.8s-14,27-31.34,27.35c-17.83.31-32.52-12-32.45-27.21C722.56,511.8,736.8,499.72,754.23,499.67Z" transform="translate(-294 -160.09)"/><path class="cls-1" d="M952.48,482.59c.14-14.85,14.31-26.68,31.89-26.63s31.71,11.93,31.81,26.79c.1,15-15,27.69-32.57,27.29S952.34,497.51,952.48,482.59Z" transform="translate(-294 -160.09)"/><path class="cls-1" d="M871.55,996.47c-17.87-.55-31.47-13.3-30.6-28.7.81-14.25,15.46-25.77,32.34-25.42,17.84.36,32.22,13.33,31.37,28.29C903.82,985.36,888.9,997,871.55,996.47Z" transform="translate(-294 -160.09)"/><path class="cls-1" d="M952.46,941c0-14.8,14.22-26.92,31.62-27s31.86,12,32.1,26.71c.25,15.1-14.51,27.64-32.29,27.45C966.46,968,952.42,955.85,952.46,941Z" transform="translate(-294 -160.09)"/><path class="cls-1" d="M754.68,958.11c17.82.16,31.78,12.17,31.57,27.15s-14.44,26.67-32.28,26.54-31.61-12.07-31.45-27.15S736.76,958,754.68,958.11Z" transform="translate(-294 -160.09)"/><path class="cls-1" d="M722.51,757.78c0-14.91,14-26.78,31.62-26.86s31.88,11.74,32.12,26.53c.24,15.06-14.64,27.74-32.31,27.53C736.47,784.76,722.48,772.65,722.51,757.78Z" transform="translate(-294 -160.09)"/><path class="cls-1" d="M952.48,714.14c-.09-15.15,13.66-26.88,31.6-26.94s32,11.55,32.09,26.6-13.89,26.92-31.7,27S952.57,729.23,952.48,714.14Z" transform="translate(-294 -160.09)"/><path class="cls-1" d="M872.67,715.54c17.9,0,32,11.76,32,26.75s-14.1,26.86-31.92,26.88-31.83-11.71-31.85-26.8S854.74,715.55,872.67,715.54Z" transform="translate(-294 -160.09)"/></svg>