<svg id="Capa_1" data-name="Capa 1" xmlns="http://www.w3.org/2000/svg" viewBox="0 0 357.77 432.44"><defs><style>.cls-1{fill:#676767;}.cls-2{fill:#4b4b4b;}</style></defs><path class="cls-1" d="M387.66,256.35c.72,2,1.36,4.06,2.18,6q22,53.06,44,106.1,17.88,43.13,35.74,86.25c2.16,5.22,4.34,10.43,6.5,15.65.3.71.52,1.45.89,2.52-1.2.09-2.12.21-3,.21q-12.3,0-24.6,0H373.35c-4.41,0-3.68-.11-5-3.34q-10.65-25.57-21.21-51.17-18-43.33-36-86.66-5.89-14.22-11.78-28.46c-.32-.78-.71-1.55-1.31-2.82-.6,1.19-1,1.92-1.34,2.68q-16.21,39.17-32.42,78.32-18.46,44.55-37,89.09a3.28,3.28,0,0,1-3.54,2.39q-51-.06-102,0c-.76,0-1.52-.13-2.63-.23.36-1.1.56-1.91.88-2.68q14.61-35.31,29.25-70.59l23.3-56.25q17.33-41.79,34.64-83.59c.51-1.25,1.19-2.46.84-3.89a10.08,10.08,0,0,0,1.52-2c2.58-6.08,5.09-12.19,7.62-18.3q16.68-40.25,33.36-80.51,5.76-13.89,11.56-27.77c1.49,3.43,3,6.83,4.45,10.28Q281.7,174,296.76,210.36c.3.71.63,1.41,1.16,2.58.54-1,.92-1.53,1.17-2.14q9.18-22.16,18.34-44.31,8.11-19.63,16.24-39.25a7.74,7.74,0,0,1,.48-.83,18.83,18.83,0,0,0,.72,3.22q9.54,23.13,19.17,46.24,15.09,36.47,30.17,72.91C385.27,251.34,386.51,253.83,387.66,256.35Z" transform="translate(-119.14 -40.73)"/><path class="cls-2" d="M262.14,127.34q-5.77,13.89-11.56,27.77-16.7,40.26-33.36,80.51c-2.53,6.11-5,12.22-7.62,18.3a10.08,10.08,0,0,1-1.52,2q-9.33-22.47-18.66-45L145,103.8q-12.57-30.31-25.12-60.62c-.27-.64-.45-1.32-.77-2.27,1.1,0,2-.14,2.79-.14q51,0,102,0a3.18,3.18,0,0,1,3.49,2.35q16.32,39.61,32.76,79.16C260.84,123.92,261.48,125.64,262.14,127.34Z" transform="translate(-119.14 -40.73)"/><path class="cls-2" d="M387.66,256.35c-1.15-2.52-2.39-5-3.45-7.57q-15.1-36.43-30.17-72.91-9.59-23.12-19.17-46.24a18.83,18.83,0,0,1-.72-3.22l24.27-58.65c3.41-8.23,6.87-16.44,10.18-24.71a3.2,3.2,0,0,1,3.53-2.32q51.11.08,102.21,0c.71,0,1.41.08,2.5.14-.39,1.11-.68,2.05-1,3q-9.54,23-19.09,46.08L396.6,235q-3.84,9.27-7.66,18.53C388.55,254.48,388.09,255.41,387.66,256.35Z" transform="translate(-119.14 -40.73)"/></svg>