<svg id="Capa_1" data-name="Capa 1" xmlns="http://www.w3.org/2000/svg" viewBox="0 0 647.05 663.27"><defs><style>.cls-1{fill:#707070;}</style></defs><path class="cls-1" d="M344.52,247.31c35.63-12.32,72.14-20.43,110.22-19.91,74.66,1,140.26,26,197.57,71.18,64,50.47,102.1,117.77,131.08,190.53a463.79,463.79,0,0,1,30.14,118.95c3.91,34.1-3,67-17.16,98.12-39.7,87.21-112.16,131.35-207.88,144.47-8.36,1.15-10.84-2.82-11.41-9.9C573,789.44,581.54,740.29,602.81,693c14.61-32.46,35.35-61,57.59-88.87,14.19-17.79,26.28-37.12,39.43-55.69,5-7.12,3.07-11.36-5.19-14-52.79-16.69-105.39-34-158.4-50-30.78-9.3-62-17.1-89.68-33.83C389,415.82,357.33,365,346.65,301.22c-.54-3.25-1.41-6.45-2.13-9.67Z" transform="translate(-344.52 -187.58)"/><path class="cls-1" d="M908.81,187.58c67.55,42.83,88.64,105.84,81.42,179.3-6.38,64.88-41.05,118.23-82.55,167.5-22.88,27.16-48.13,52.48-72.39,78.56-1.7,1.83-4.11,3.06-8.84,6.5-1.77-14.09-3.65-26.13-4.75-38.23-5.27-58.16-22-113.58-42.86-168.06-5.82-15.22-12.45-30.22-17.15-45.76-12.47-41.2-.38-77.95,24.63-111.53,25.45-34.16,59.61-56.83,101.76-68.28Z" transform="translate(-344.52 -187.58)"/></svg>