<svg id="Capa_5" data-name="Capa 5" xmlns="http://www.w3.org/2000/svg" viewBox="0 0 902.09 886.78"><path id="Icon_simple-mongodb" data-name="Icon simple-mongodb" d="M1122.94,536.6C1017,331.16,767.32,263.62,740.5,237.83a362.67,362.67,0,0,1-61.43-52.92,14.52,14.52,0,0,0-.42,1.82v.5h-.09a10,10,0,0,0-.33,1.44v.53h-.17c0,.37-.16.67-.16,1v1h-.25a3.81,3.81,0,0,1-.27.93v.77h-.16a1.28,1.28,0,0,1-.16.77v.77h-.17a5.88,5.88,0,0,1-.16,1.18v.08c-.25.62-.5,1.25-.79,1.85v.29h-.13c-.09.15-.25.29-.25.45v.58h-.25v.81h-.44v.67h-.42V201h-.33v.7h-.34v.63h-.5v.51h-.34v.7h-.34v.51h-.41v.48h-.25v.56h-.34a.14.14,0,0,0-.09.14v.37h-.25a.28.28,0,0,0-.09.23v.22H671a1,1,0,0,0-.17.37c-.25.26-.58.52-.83.77v.05a1.83,1.83,0,0,0-.42.26v.29h-.34v.3h-.41v.29h-.25v.4h-.51v.52h-.33v.14h-.34v.3h-.34v.4h-.34v.3h-.49v.41h-.34v.29h-.41v.29h-.25v.37h-.41v.3h-.34v.23h-.34v.3h-.5V213h-.34v.2h-.41v.3h-.34v.41h-.41v.14h-.26v.3h-.51v.14H661v.37h-.34V215h-.34v.29H660v.23h-.25l-.17.14v.15h-.19c-.09.08-.17.08-.17.15h-.08a1,1,0,0,1-.34.26v.11h-.09a10.79,10.79,0,0,0-1,.66h0a3.35,3.35,0,0,0-.79.37v.08h-.08c-.09,0-.25.07-.25.1v.2h-.17l-.25.11H656a1.89,1.89,0,0,0-.25.15v.15h-.25l-.16.07v.08h-.11c0,.08-.17.08-.17.11v.11h-.33a.79.79,0,0,1-.17.1v.23h-.25V219H654v.23h-.33v.29h-.42v-.25h-.42v.14h-.34v.19h-.42v.3h-.42v.14h-.34v.26H651v.15h-.34v.3h-.5v.14h-.34v.26h-.42v.14h-.33v.19h-.42v.37h-.17V222H648v.15h-.33v.08h-.34v.14h-.42v.37h-.33v.15h-.42v.15h-.34v.22h-.41v.15H645v.14h-.34v.15h-.33v.37h-.34v.16h-.5v.15h-.34v.14h-.42v.25h-.33v.15h-.43v.26h-.33v.15h-.51v.22h-.16v.15h-.34v.14h-.41V226h-.34v.22h-.42v.15h-.25a.08.08,0,0,0-.08.08v.1h-.14l-.34.15a1.83,1.83,0,0,1-.33.11V227h-.34v.19h-.34v.11h-.33v.15H637l-.25.11v.11h-.14l-.17.07v.11h-.16a7.22,7.22,0,0,1-1.18.59,10.47,10.47,0,0,1-1,.38c-1,.29-2.27.77-3.27,1.17-.67.19-1.34.45-1.85.63h-.08c-1.34.48-2.6.92-4.11,1.44h0c-2,.77-3.93,1.44-6.21,2.31h-.16c-4.78,1.74-9.81,3.7-15.6,5.88h-.08c-14.17,5.47-31,12.49-49.89,21l-1.25.56-.36.2c-114,52-293.66,160.32-312.61,335.38a169.39,169.39,0,0,0,.5,42.27V640c9.14,69,58.26,127.88,119.72,175.72h0a691.7,691.7,0,0,0,77.66,51.92h0A1144.39,1144.39,0,0,0,647.24,961c37,37.78,33.54,102.68,33.54,102.68l54,8s-11-62.85,4.44-93.19A66.48,66.48,0,0,1,768.43,954c8.89-2.77,35.2-11.12,66.81-23.83,1.51-.7,2.35-1.34,3.69-2C966.44,875.83,1204.61,746.8,1122.94,536.6Z" transform="translate(-237.53 -184.91)"/></svg>